{
.appVersion = "1075";
copyright = "Copyright © 2018 by Cadson Demak Co.,Ltd.. All rights reserved.";
customParameters = (
{
name = vendorID;
value = CDK;
},
{
name = description;
value = "Copyright (c) 2018, Cadson Demak (info@cadsondemak.com)";
},
{
name = license;

glyphs = (
{
glyphname = A;
lastChange = "2017-12-19 07:25:29 +0000";
layers = (
{
layerId = "0B1DFD06-3317-40CA-B510-4969A0718C16";
paths = (
{
closed = 1;
nodes = (
"323 710 LINE",
"265 710 LINE",
"0 0 LINE",
"63 0 LINE",
"143 225 LINE",
"444 225 LINE",
"525 0 LINE",
"588 0 LINE"
);
},
{
closed = 1;
nodes = (
"160 273 LINE",
"294 647 LINE",
"426 273 LINE"
);
}
);
width = 588;
}
);
note = A;
unicode = 0041;
},
{
glyphname = B;
lastChange = "2017-12-19 07:25:29 +0000";
layers = (
{
layerId = "0B1DFD06-3317-40CA-B510-4969A0718C16";
paths = (
{
closed = 1;
nodes = (
"509 291 OFFCURVE",
"435 356 OFFCURVE",
"365 373 CURVE",
"435 398 OFFCURVE",
"481 462 OFFCURVE",
"481 532 CURVE SMOOTH",
"481 650 OFFCURVE",
"395 709 OFFCURVE",
"226 709 CURVE SMOOTH",
"178 709 OFFCURVE",
"128 703 OFFCURVE",
"79 689 CURVE",
"79 6 LINE",
"125 -4 OFFCURVE",
"171 -9 OFFCURVE",
"213 -9 CURVE SMOOTH",
"410 -9 OFFCURVE",
"509 59 OFFCURVE",
"509 196 CURVE SMOOTH"
);
},
{
closed = 1;
nodes = (
"423 492 OFFCURVE",
"409 460 OFFCURVE",
"381 435 CURVE SMOOTH",
"350 407 OFFCURVE",
"307 394 OFFCURVE",
"256 394 CURVE SMOOTH",
"137 394 LINE",
"137 650 LINE",
"166 657 OFFCURVE",
"196 660 OFFCURVE",
"226 660 CURVE SMOOTH",
"357 660 OFFCURVE",
"423 617 OFFCURVE",
"423 531 CURVE SMOOTH"
);
},
{
closed = 1;
nodes = (
"453 140 OFFCURVE",
"428 100 OFFCURVE",
"379 72 CURVE SMOOTH",
"340 50 OFFCURVE",
"288 38 OFFCURVE",
"225 38 CURVE SMOOTH",
"193 38 OFFCURVE",
"163 41 OFFCURVE",
"137 47 CURVE",
"137 347 LINE",
"238 347 LINE SMOOTH",
"362 347 OFFCURVE",
"453 298 OFFCURVE",
"453 194 CURVE SMOOTH"
);
}
);
width = 556;
}
);
note = B;
unicode = 0042;
},
{
glyphname = C;
lastChange = "2017-12-19 07:25:29 +0000";
layers = (
{
layerId = "0B1DFD06-3317-40CA-B510-4969A0718C16";
paths = (
{
closed = 1;
nodes = (
"487 51 OFFCURVE",
"429 40 OFFCURVE",
"369 40 CURVE SMOOTH",
"294 40 OFFCURVE",
"229 68 OFFCURVE",
"176 123 CURVE SMOOTH",
"121 182 OFFCURVE",
"93 257 OFFCURVE",
"93 350 CURVE SMOOTH",
"93 442 OFFCURVE",
"121 517 OFFCURVE",
"176 576 CURVE SMOOTH",
"229 632 OFFCURVE",
"294 660 OFFCURVE",
"369 660 CURVE SMOOTH",
"429 660 OFFCURVE",
"487 648 OFFCURVE",
"539 626 CURVE",
"557 673 LINE",
"506 698 OFFCURVE",
"441 710 OFFCURVE",
"366 710 CURVE SMOOTH",
"270 710 OFFCURVE",
"191 676 OFFCURVE",
"128 609 CURVE SMOOTH",
"65 542 OFFCURVE",
"34 456 OFFCURVE",
"34 351 CURVE SMOOTH",
"34 247 OFFCURVE",
"65 160 OFFCURVE",
"128 91 CURVE SMOOTH",
"191 24 OFFCURVE",
"270 -10 OFFCURVE",
"366 -10 CURVE SMOOTH",
"441 -10 OFFCURVE",
"506 1 OFFCURVE",
"557 26 CURVE",
"539 74 LINE"
);
}
);
width = 597;
}
);
note = C;
unicode = 0043;
},
{
glyphname = D;
lastChange = "2017-12-19 07:25:29 +0000";
layers = (
{
layerId = "0B1DFD06-3317-40CA-B510-4969A0718C16";
paths = (
{
closed = 1;
nodes = (
"591 470 OFFCURVE",
"563 554 OFFCURVE",
"506 617 CURVE SMOOTH",
"450 678 OFFCURVE",
"378 707 OFFCURVE",
"288 707 CURVE SMOOTH",
"240 707 OFFCURVE",
"169 701 OFFCURVE",
"79 689 CURVE",
"79 7 LINE",
"169 -1 OFFCURVE",
"229 -6 OFFCURVE",
"259 -6 CURVE SMOOTH",
"481 -6 OFFCURVE",
"591 118 OFFCURVE",
"591 365 CURVE SMOOTH"
);
},
{
closed = 1;
nodes = (
"534 163 OFFCURVE",
"435 44 OFFCURVE",
"276 44 CURVE SMOOTH",
"232 44 OFFCURVE",
"185 47 OFFCURVE",
"137 53 CURVE",
"137 645 LINE",
"204 653 OFFCURVE",
"253 657 OFFCURVE",
"284 657 CURVE SMOOTH",
"356 657 OFFCURVE",
"415 632 OFFCURVE",
"460 584 CURVE SMOOTH",
"509 531 OFFCURVE",
"534 457 OFFCURVE",
"534 365 CURVE SMOOTH"
);
}
);
width = 634;
}
);
note = D;
unicode = 0044;
},
{
glyphname = E;
lastChange = "2017-12-19 07:25:29 +0000";
layers = (
{
layerId = "0B1DFD06-3317-40CA-B510-4969A0718C16";
paths = (
{
closed = 1;
nodes = (
"460 49 LINE",
"137 49 LINE",
"137 345 LINE",
"425 345 LINE",
"425 394 LINE",
"137 394 LINE",
"137 651 LINE",
"460 651 LINE",
"460 700 LINE",
"79 700 LINE",
"79 0 LINE",
"460 0 LINE"
);
}
);
width = 516;
}
);
note = E;
unicode = 0045;
},
{
glyphname = F;
lastChange = "2017-12-19 07:25:29 +0000";
layers = (
{
layerId = "0B1DFD06-3317-40CA-B510-4969A0718C16";
paths = (
{
closed = 1;
nodes = (
"453 385 LINE",
"137 385 LINE",
"137 651 LINE",
"475 651 LINE",
"475 700 LINE",
"79 700 LINE",
"79 0 LINE",
"137 0 LINE",
"137 337 LINE",
"453 337 LINE"
);
}
);
width = 516;
}
);
note = F;
unicode = 0046;
},
{
glyphname = G;
lastChange = "2017-12-19 07:25:29 +0000";
layers = (
{
layerId = "0B1DFD06-3317-40CA-B510-4969A0718C16";
paths = (
{
closed = 1;
nodes = (
"329 350 LINE",
"329 303 LINE",
"507 303 LINE",
"507 76 LINE",
"456 51 OFFCURVE",
"400 40 OFFCURVE",
"338 40 CURVE SMOOTH",
"181 40 OFFCURVE",
"93 157 OFFCURVE",
"93 350 CURVE SMOOTH",
"93 440 OFFCURVE",
"118 515 OFFCURVE",
"166 572 CURVE SMOOTH",
"216 629 OFFCURVE",
"278 659 OFFCURVE",
"351 659 CURVE SMOOTH",
"409 659 OFFCURVE",
"466 647 OFFCURVE",
"525 625 CURVE",
"542 672 LINE",
"488 695 OFFCURVE",
"426 707 OFFCURVE",
"354 707 CURVE SMOOTH",
"254 707 OFFCURVE",
"175 673 OFFCURVE",
"118 604 CURVE SMOOTH",
"62 539 OFFCURVE",
"34 456 OFFCURVE",
"34 351 CURVE SMOOTH",
"34 243 OFFCURVE",
"60 156 OFFCURVE",
"115 90 CURVE SMOOTH",
"169 25 OFFCURVE",
"240 -7 OFFCURVE",
"329 -7 CURVE SMOOTH",
"348 -7 OFFCURVE",
"388 -3 OFFCURVE",
"445 7 CURVE SMOOTH",
"503 18 OFFCURVE",
"532 24 OFFCURVE",
"532 24 CURVE",
"545 24 OFFCURVE",
"556 21 OFFCURVE",
"563 15 CURVE",
"563 350 LINE"
);
}
);
width = 625;
}
);
note = G;
unicode = 0047;
},
{
glyphname = H;
lastChange = "2017-12-19 07:25:29 +0000";
layers = (
{
layerId = "0B1DFD06-3317-40CA-B510-4969A0718C16";
paths = (
{
closed = 1;
nodes = (
"569 700 LINE",
"512 700 LINE",
"512 397 LINE",
"137 397 LINE",
"137 700 LINE",
"79 700 LINE",
"79 0 LINE",
"137 0 LINE",
"137 348 LINE",
"512 348 LINE",
"512 0 LINE",
"569 0 LINE"
);
}
);
width = 648;
}
);
note = H;
unicode = 0048;
},
{
glyphname = I;
lastChange = "2017-12-19 07:25:29 +0000";
layers = (
{
layerId = "0B1DFD06-3317-40CA-B510-4969A0718C16";
paths = (
{
closed = 1;
nodes = (
"137 700 LINE",
"79 700 LINE",
"79 0 LINE",
"137 0 LINE"
);
}
);
width = 216;
}
);
note = I;
unicode = 0049;
},
{
glyphname = J;
lastChange = "2017-12-19 07:25:29 +0000";
layers = (
{
layerId = "0B1DFD06-3317-40CA-B510-4969A0718C16";
paths = (
{
closed = 1;
nodes = (
"309 700 LINE",
"251 700 LINE",
"251 244 LINE SMOOTH",
"251 87 OFFCURVE",
"204 37 OFFCURVE",
"103 37 CURVE SMOOTH",
"66 37 OFFCURVE",
"35 43 OFFCURVE",
"13 54 CURVE",
"-1 9 LINE",
"29 -6 OFFCURVE",
"65 -13 OFFCURVE",
"103 -13 CURVE SMOOTH",
"240 -13 OFFCURVE",
"309 68 OFFCURVE",
"309 229 CURVE SMOOTH"
);
}
);
width = 388;
}
);
note = J;
unicode = 004A;
},
{
glyphname = K;
lastChange = "2017-12-19 07:25:29 +0000";
layers = (
{
layerId = "0B1DFD06-3317-40CA-B510-4969A0718C16";
paths = (
{
closed = 1;
nodes = (
"251 401 LINE",
"542 692 LINE",
"485 709 LINE",
"137 363 LINE",
"137 700 LINE",
"79 700 LINE",
"79 0 LINE",
"137 0 LINE",
"137 290 LINE",
"212 365 LINE",
"522 -7 LINE",
"573 13 LINE"
);
}
);
width = 553;
}
);
note = K;
unicode = 004B;
},
{
glyphname = L;
lastChange = "2017-12-19 07:25:29 +0000";
layers = (
{
layerId = "0B1DFD06-3317-40CA-B510-4969A0718C16";
paths = (
{
closed = 1;
nodes = (
"481 49 LINE",
"137 49 LINE",
"137 700 LINE",
"79 700 LINE",
"79 0 LINE",
"481 0 LINE"
);
}
);
width = 519;
}
);
note = L;
unicode = 004C;
},
{
glyphname = M;
lastChange = "2017-12-19 07:25:29 +0000";
layers = (
{
layerId = "0B1DFD06-3317-40CA-B510-4969A0718C16";
paths = (
{
closed = 1;
nodes = (
"698 700 LINE",
"631 700 LINE",
"403 72 LINE",
"175 700 LINE",
"107 700 LINE",
"59 0 LINE",
"113 0 LINE",
"157 617 LINE",
"384 0 LINE",
"422 0 LINE",
"648 617 LINE",
"692 0 LINE",
"747 0 LINE"
);
}
);
width = 806;
}
);
note = M;
unicode = 004D;
},
{
glyphname = N;
lastChange = "2017-12-19 07:25:29 +0000";
layers = (
{
layerId = "0B1DFD06-3317-40CA-B510-4969A0718C16";
paths = (
{
closed = 1;
nodes = (
"569 700 LINE",
"513 700 LINE",
"513 90 LINE",
"146 700 LINE",
"79 700 LINE",
"79 0 LINE",
"138 0 LINE",
"138 619 LINE",
"509 0 LINE",
"569 0 LINE"
);
}
);
width = 648;
}
);
note = N;
unicode = 004E;
},
{
glyphname = O;
lastChange = "2017-12-19 07:25:29 +0000";
layers = (
{
layerId = "0B1DFD06-3317-40CA-B510-4969A0718C16";
paths = (
{
closed = 1;
nodes = (
"682 453 OFFCURVE",
"651 539 OFFCURVE",
"591 609 CURVE SMOOTH",
"531 678 OFFCURVE",
"453 711 OFFCURVE",
"357 711 CURVE SMOOTH",
"262 711 OFFCURVE",
"182 678 OFFCURVE",
"122 609 CURVE SMOOTH",
"62 539 OFFCURVE",
"32 453 OFFCURVE",
"32 348 CURVE SMOOTH",
"32 244 OFFCURVE",
"62 157 OFFCURVE",
"122 88 CURVE SMOOTH",
"182 19 OFFCURVE",
"262 -15 OFFCURVE",
"357 -15 CURVE SMOOTH",
"453 -15 OFFCURVE",
"531 19 OFFCURVE",
"591 88 CURVE SMOOTH",
"651 157 OFFCURVE",
"682 244 OFFCURVE",
"682 348 CURVE SMOOTH"
);
},
{
closed = 1;
nodes = (
"625 262 OFFCURVE",
"600 188 OFFCURVE",
"550 126 CURVE SMOOTH",
"500 66 OFFCURVE",
"435 35 OFFCURVE",
"357 35 CURVE SMOOTH",
"279 35 OFFCURVE",
"215 66 OFFCURVE",
"165 126 CURVE SMOOTH",
"115 188 OFFCURVE",
"90 262 OFFCURVE",
"90 348 CURVE SMOOTH",
"90 435 OFFCURVE",
"115 509 OFFCURVE",
"165 569 CURVE SMOOTH",
"215 631 OFFCURVE",
"279 662 OFFCURVE",
"357 662 CURVE SMOOTH",
"435 662 OFFCURVE",
"500 631 OFFCURVE",
"550 569 CURVE SMOOTH",
"600 509 OFFCURVE",
"625 435 OFFCURVE",
"625 348 CURVE SMOOTH"
);
}
);
width = 714;
}
);
note = O;
unicode = 004F;
},
{
glyphname = P;
lastChange = "2017-12-19 07:25:29 +0000";
layers = (
{
layerId = "0B1DFD06-3317-40CA-B510-4969A0718C16";
paths = (
{
closed = 1;
nodes = (
"507 570 OFFCURVE",
"481 622 OFFCURVE",
"426 659 CURVE SMOOTH",
"378 691 OFFCURVE",
"319 707 OFFCURVE",
"248 707 CURVE SMOOTH",
"194 707 OFFCURVE",
"138 703 OFFCURVE",
"79 692 CURVE",
"79 0 LINE",
"137 0 LINE",
"137 294 LINE",
"166 288 OFFCURVE",
"197 285 OFFCURVE",
"228 285 CURVE SMOOTH",
"304 284 OFFCURVE",
"368 301 OFFCURVE",
"419 335 CURVE SMOOTH",
"478 375 OFFCURVE",
"507 432 OFFCURVE",
"507 506 CURVE SMOOTH"
);
},
{
closed = 1;
nodes = (
"453 397 OFFCURVE",
"382 341 OFFCURVE",
"240 334 CURVE",
"197 334 OFFCURVE",
"163 337 OFFCURVE",
"137 344 CURVE",
"137 650 LINE",
"162 654 OFFCURVE",
"198 657 OFFCURVE",
"247 657 CURVE SMOOTH",
"384 657 OFFCURVE",
"453 606 OFFCURVE",
"453 501 CURVE SMOOTH"
);
}
);
width = 556;
}
);
note = P;
unicode = 0050;
},
{
glyphname = Q;
lastChange = "2017-12-19 07:25:29 +0000";
layers = (
{
layerId = "0B1DFD06-3317-40CA-B510-4969A0718C16";
paths = (
{
closed = 1;
nodes = (
"682 453 OFFCURVE",
"651 539 OFFCURVE",
"591 609 CURVE SMOOTH",
"531 678 OFFCURVE",
"453 711 OFFCURVE",
"357 711 CURVE SMOOTH",
"262 711 OFFCURVE",
"182 678 OFFCURVE",
"122 609 CURVE SMOOTH",
"62 539 OFFCURVE",
"32 453 OFFCURVE",
"32 348 CURVE SMOOTH",
"32 244 OFFCURVE",
"62 157 OFFCURVE",
"122 88 CURVE SMOOTH",
"182 19 OFFCURVE",
"262 -15 OFFCURVE",
"357 -15 CURVE",
"438 -49 OFFCURVE",
"526 -76 OFFCURVE",
"623 -98 CURVE",
"644 -44 LINE",
"569 -40 OFFCURVE",
"501 -26 OFFCURVE",
"444 -1 CURVE",
"519 18 OFFCURVE",
"578 60 OFFCURVE",
"620 126 CURVE SMOOTH",
"662 190 OFFCURVE",
"682 265 OFFCURVE",
"682 348 CURVE SMOOTH"
);
},
{
closed = 1;
nodes = (
"625 262 OFFCURVE",
"600 188 OFFCURVE",
"550 126 CURVE SMOOTH",
"500 66 OFFCURVE",
"435 35 OFFCURVE",
"357 35 CURVE SMOOTH",
"279 35 OFFCURVE",
"215 66 OFFCURVE",
"165 126 CURVE SMOOTH",
"115 188 OFFCURVE",
"90 262 OFFCURVE",
"90 348 CURVE SMOOTH",
"90 435 OFFCURVE",
"115 509 OFFCURVE",
"165 569 CURVE SMOOTH",
"215 631 OFFCURVE",
"279 662 OFFCURVE",
"357 662 CURVE SMOOTH",
"435 662 OFFCURVE",
"500 631 OFFCURVE",
"550 569 CURVE SMOOTH",
"600 509 OFFCURVE",
"625 435 OFFCURVE",
"625 348 CURVE SMOOTH"
);
}
);
width = 716;
}
);
note = Q;
unicode = 0051;
},
{
glyphname = R;
lastChange = "2017-12-19 07:25:29 +0000";
layers = (
{
layerId = "0B1DFD06-3317-40CA-B510-4969A0718C16";
paths = (
{
closed = 1;
nodes = (
"526 0 LINE",
"515 79 OFFCURVE",
"503 140 OFFCURVE",
"490 179 CURVE SMOOTH",
"463 257 OFFCURVE",
"423 310 OFFCURVE",
"372 338 CURVE",
"462 372 OFFCURVE",
"507 432 OFFCURVE",
"507 519 CURVE SMOOTH",
"507 582 OFFCURVE",
"482 629 OFFCURVE",
"431 663 CURVE SMOOTH",
"387 691 OFFCURVE",
"326 706 OFFCURVE",
"251 707 CURVE SMOOTH",
"191 707 OFFCURVE",
"134 701 OFFCURVE",
"79 691 CURVE",
"79 0 LINE",
"137 0 LINE",
"137 319 LINE",
"272 319 LINE SMOOTH",
"378 319 OFFCURVE",
"444 213 OFFCURVE",
"470 0 CURVE"
);
},
{
closed = 1;
nodes = (
"453 419 OFFCURVE",
"384 365 OFFCURVE",
"268 365 CURVE SMOOTH",
"137 365 LINE",
"137 647 LINE",
"159 654 OFFCURVE",
"197 657 OFFCURVE",
"251 657 CURVE SMOOTH",
"385 657 OFFCURVE",
"453 609 OFFCURVE",
"453 512 CURVE SMOOTH"
);
}
);
width = 557;
}
);
note = R;
unicode = 0052;
},
{
glyphname = S;
lastChange = "2017-12-19 07:25:29 +0000";
layers = (
{
layerId = "0B1DFD06-3317-40CA-B510-4969A0718C16";
paths = (
{
closed = 1;
nodes = (
"470 237 OFFCURVE",
"453 281 OFFCURVE",
"419 313 CURVE SMOOTH",
"390 341 OFFCURVE",
"341 366 OFFCURVE",
"273 390 CURVE SMOOTH",
"169 425 OFFCURVE",
"118 475 OFFCURVE",
"118 539 CURVE SMOOTH",
"118 570 OFFCURVE",
"129 598 OFFCURVE",
"153 622 CURVE SMOOTH",
"182 650 OFFCURVE",
"225 664 OFFCURVE",
"279 664 CURVE SMOOTH",
"328 664 OFFCURVE",
"373 653 OFFCURVE",
"416 631 CURVE",
"441 676 LINE",
"400 701 OFFCURVE",
"347 713 OFFCURVE",
"281 713 CURVE SMOOTH",
"151 713 OFFCURVE",
"63 637 OFFCURVE",
"63 532 CURVE SMOOTH",
"63 442 OFFCURVE",
"128 378 OFFCURVE",
"259 335 CURVE SMOOTH",
"370 300 OFFCURVE",
"415 256 OFFCURVE",
"415 178 CURVE SMOOTH",
"415 91 OFFCURVE",
"348 35 OFFCURVE",
"238 35 CURVE SMOOTH",
"169 35 OFFCURVE",
"112 53 OFFCURVE",
"63 90 CURVE",
"40 40 LINE",
"91 4 OFFCURVE",
"156 -13 OFFCURVE",
"232 -13 CURVE SMOOTH",
"310 -13 OFFCURVE",
"370 7 OFFCURVE",
"413 50 CURVE",
"451 85 OFFCURVE",
"470 129 OFFCURVE",
"470 182 CURVE SMOOTH"
);
}
);
width = 517;
}
);
note = S;
unicode = 0053;
},
{
glyphname = T;
lastChange = "2017-12-19 07:25:29 +0000";
layers = (
{
layerId = "0B1DFD06-3317-40CA-B510-4969A0718C16";
paths = (
{
closed = 1;
nodes = (
"564 700 LINE",
"-7 700 LINE",
"-7 651 LINE",
"251 651 LINE",
"251 0 LINE",
"307 0 LINE",
"307 651 LINE",
"564 651 LINE"
);
}
);
width = 557;
}
);
note = T;
unicode = 0054;
},
{
glyphname = U;
lastChange = "2017-12-19 07:25:29 +0000";
layers = (
{
layerId = "0B1DFD06-3317-40CA-B510-4969A0718C16";
paths = (
{
closed = 1;
nodes = (
"606 700 LINE",
"548 700 LINE",
"548 297 LINE SMOOTH",
"550 113 OFFCURVE",
"467 35 OFFCURVE",
"343 35 CURVE SMOOTH",
"219 35 OFFCURVE",
"137 113 OFFCURVE",
"137 297 CURVE SMOOTH",
"137 700 LINE",
"79 700 LINE",
"79 295 LINE SMOOTH",
"79 90 OFFCURVE",
"168 -13 OFFCURVE",
"343 -13 CURVE SMOOTH",
"517 -13 OFFCURVE",
"606 90 OFFCURVE",
"606 295 CURVE SMOOTH"
);
}
);
width = 685;
}
);
note = U;
unicode = 0055;
},
{
glyphname = V;
lastChange = "2017-12-19 07:25:29 +0000";
layers = (
{
layerId = "0B1DFD06-3317-40CA-B510-4969A0718C16";
paths = (
{
closed = 1;
nodes = (
"509 700 LINE",
"287 66 LINE",
"65 700 LINE",
"0 700 LINE",
"256 0 LINE",
"318 0 LINE",
"573 700 LINE"
);
}
);
width = 573;
}
);
note = V;
unicode = 0056;
},
{
glyphname = W;
lastChange = "2017-12-19 07:25:29 +0000";
layers = (
{
layerId = "0B1DFD06-3317-40CA-B510-4969A0718C16";
paths = (
{
closed = 1;
nodes = (
"800 700 LINE",
"622 66 LINE",
"465 700 LINE",
"400 700 LINE",
"243 66 LINE",
"65 700 LINE",
"0 700 LINE",
"212 0 LINE",
"273 0 LINE",
"432 635 LINE",
"591 0 LINE",
"653 0 LINE",
"864 700 LINE"
);
}
);
width = 864;
}
);
note = W;
unicode = 0057;
},
{
glyphname = X;
lastChange = "2017-12-19 07:25:29 +0000";
layers = (
{
layerId = "0B1DFD06-3317-40CA-B510-4969A0718C16";
paths = (
{
closed = 1;
nodes = (
"341 359 LINE",
"579 700 LINE",
"510 700 LINE",
"307 394 LINE",
"104 700 LINE",
"35 700 LINE",
"273 359 LINE",
"25 0 LINE",
"93 0 LINE",
"307 316 LINE",
"522 0 LINE",
"589 0 LINE"
);
}
);
width = 614;
}
);
note = X;
unicode = 0058;
},
{
glyphname = Y;
lastChange = "2017-12-19 07:25:29 +0000";
layers = (
{
layerId = "0B1DFD06-3317-40CA-B510-4969A0718C16";
paths = (
{
closed = 1;
nodes = (
"472 700 LINE",
"269 357 LINE",
"66 700 LINE",
"0 700 LINE",
"241 307 LINE",
"241 0 LINE",
"297 0 LINE",
"297 309 LINE",
"538 700 LINE"
);
}
);
width = 538;
}
);
note = Y;
unicode = 0059;
},
{
glyphname = Z;
lastChange = "2017-12-19 07:25:29 +0000";
layers = (
{
layerId = "0B1DFD06-3317-40CA-B510-4969A0718C16";
paths = (
{
closed = 1;
nodes = (
"107 49 LINE",
"581 660 LINE",
"581 700 LINE",
"71 700 LINE",
"62 651 LINE",
"507 651 LINE",
"32 38 LINE",
"32 0 LINE",
"588 0 LINE",
"600 49 LINE"
);
}
);
width = 623;
}
);
note = Z;
unicode = 005A;
},
{
glyphname = a;
lastChange = "2017-12-19 07:26:08 +0000";
layers = (
{
layerId = "0B1DFD06-3317-40CA-B510-4969A0718C16";
paths = (
{
closed = 1;
nodes = (
"447 0 LINE",
"435 40 OFFCURVE",
"429 81 OFFCURVE",
"429 122 CURVE SMOOTH",
"429 301 LINE SMOOTH",
"429 441 OFFCURVE",
"366 510 OFFCURVE",
"240 510 CURVE SMOOTH",
"181 510 OFFCURVE",
"123 501 OFFCURVE",
"69 484 CURVE",
"76 431 LINE",
"148 453 OFFCURVE",
"201 465 OFFCURVE",
"235 465 CURVE SMOOTH",
"290 465 OFFCURVE",
"328 445 OFFCURVE",
"350 406 CURVE SMOOTH",
"365 381 OFFCURVE",
"372 353 OFFCURVE",
"372 320 CURVE SMOOTH",
"372 312 LINE",
"363 312 LINE SMOOTH",
"147 312 OFFCURVE",
"38 250 OFFCURVE",
"38 125 CURVE SMOOTH",
"38 38 OFFCURVE",
"110 -13 OFFCURVE",
"197 -13 CURVE SMOOTH",
"270 -13 OFFCURVE",
"329 15 OFFCURVE",
"375 71 CURVE",
"395 -10 LINE"
);
},
{
closed = 1;
nodes = (
"372 162 LINE SMOOTH",
"372 154 OFFCURVE",
"369 144 OFFCURVE",
"365 134 CURVE SMOOTH",
"334 68 OFFCURVE",
"279 35 OFFCURVE",
"201 35 CURVE SMOOTH",
"143 35 OFFCURVE",
"98 71 OFFCURVE",
"98 135 CURVE SMOOTH",
"98 219 OFFCURVE",
"190 262 OFFCURVE",
"372 262 CURVE"
);
}
);
width = 506;
}
);
note = a;
unicode = 0061;
},
{
glyphname = b;
lastChange = "2017-12-19 07:26:08 +0000";
layers = (
{
layerId = "0B1DFD06-3317-40CA-B510-4969A0718C16";
paths = (
{
closed = 1;
nodes = (
"548 403 OFFCURVE",
"463 510 OFFCURVE",
"323 510 CURVE SMOOTH",
"240 510 OFFCURVE",
"176 475 OFFCURVE",
"134 404 CURVE",
"134 742 LINE",
"76 742 LINE",
"76 122 LINE SMOOTH",
"76 66 OFFCURVE",
"75 25 OFFCURVE",
"72 0 CURVE",
"125 0 LINE",
"126 25 OFFCURVE",
"128 54 OFFCURVE",
"128 88 CURVE",
"173 21 OFFCURVE",
"237 -13 OFFCURVE",
"315 -13 CURVE SMOOTH",
"457 -13 OFFCURVE",
"548 96 OFFCURVE",
"548 256 CURVE SMOOTH"
);
},
{
closed = 1;
nodes = (
"492 109 OFFCURVE",
"431 35 OFFCURVE",
"307 35 CURVE SMOOTH",
"209 35 OFFCURVE",
"134 106 OFFCURVE",
"134 200 CURVE SMOOTH",
"134 284 LINE SMOOTH",
"134 338 OFFCURVE",
"153 382 OFFCURVE",
"191 416 CURVE",
"225 448 OFFCURVE",
"266 465 OFFCURVE",
"313 465 CURVE SMOOTH",
"426 465 OFFCURVE",
"492 378 OFFCURVE",
"492 254 CURVE SMOOTH"
);
}
);
width = 589;
}
);
note = b;
unicode = 0062;
},
{
glyphname = c;
lastChange = "2017-12-19 07:26:08 +0000";
layers = (
{
layerId = "0B1DFD06-3317-40CA-B510-4969A0718C16";
paths = (
{
closed = 1;
nodes = (
"401 46 OFFCURVE",
"356 34 OFFCURVE",
"301 34 CURVE SMOOTH",
"182 34 OFFCURVE",
"96 115 OFFCURVE",
"96 248 CURVE SMOOTH",
"96 382 OFFCURVE",
"182 463 OFFCURVE",
"301 463 CURVE SMOOTH",
"356 463 OFFCURVE",
"401 451 OFFCURVE",
"438 428 CURVE",
"459 475 LINE",
"416 498 OFFCURVE",
"365 510 OFFCURVE",
"304 510 CURVE SMOOTH",
"140 510 OFFCURVE",
"40 407 OFFCURVE",
"40 248 CURVE SMOOTH",
"40 90 OFFCURVE",
"140 -13 OFFCURVE",
"304 -13 CURVE SMOOTH",
"365 -13 OFFCURVE",
"416 -1 OFFCURVE",
"459 22 CURVE",
"438 69 LINE"
);
}
);
width = 487;
}
);
note = c;
unicode = 0063;
},
{
glyphname = d;
lastChange = "2017-12-19 07:26:08 +0000";
layers = (
{
layerId = "0B1DFD06-3317-40CA-B510-4969A0718C16";
paths = (
{
closed = 1;
nodes = (
"517 0 LINE",
"515 25 OFFCURVE",
"513 66 OFFCURVE",
"513 122 CURVE SMOOTH",
"513 742 LINE",
"456 742 LINE",
"456 404 LINE",
"413 475 OFFCURVE",
"350 510 OFFCURVE",
"266 510 CURVE SMOOTH",
"126 510 OFFCURVE",
"41 403 OFFCURVE",
"41 256 CURVE SMOOTH",
"41 96 OFFCURVE",
"132 -13 OFFCURVE",
"275 -13 CURVE SMOOTH",
"353 -13 OFFCURVE",
"416 21 OFFCURVE",
"462 88 CURVE",
"462 54 OFFCURVE",
"463 25 OFFCURVE",
"465 0 CURVE"
);
},
{
closed = 1;
nodes = (
"456 200 LINE SMOOTH",
"456 106 OFFCURVE",
"381 35 OFFCURVE",
"282 35 CURVE SMOOTH",
"159 35 OFFCURVE",
"97 109 OFFCURVE",
"97 254 CURVE SMOOTH",
"97 378 OFFCURVE",
"163 465 OFFCURVE",
"276 465 CURVE SMOOTH",
"323 465 OFFCURVE",
"365 448 OFFCURVE",
"398 416 CURVE",
"437 382 OFFCURVE",
"456 338 OFFCURVE",
"456 284 CURVE SMOOTH"
);
}
);
width = 589;
}
);
note = d;
unicode = 0064;
},
{
glyphname = e;
lastChange = "2017-12-19 07:26:08 +0000";
layers = (
{
layerId = "0B1DFD06-3317-40CA-B510-4969A0718C16";
paths = (
{
closed = 1;
nodes = (
"476 71 LINE",
"419 49 OFFCURVE",
"360 37 OFFCURVE",
"301 37 CURVE SMOOTH",
"182 37 OFFCURVE",
"100 113 OFFCURVE",
"96 247 CURVE",
"504 247 LINE",
"501 422 OFFCURVE",
"429 510 OFFCURVE",
"290 510 CURVE SMOOTH",
"218 510 OFFCURVE",
"157 485 OFFCURVE",
"110 435 CURVE SMOOTH",
"63 385 OFFCURVE",
"40 319 OFFCURVE",
"40 237 CURVE SMOOTH",
"40 165 OFFCURVE",
"63 104 OFFCURVE",
"110 57 CURVE SMOOTH",
"157 10 OFFCURVE",
"219 -13 OFFCURVE",
"295 -13 CURVE SMOOTH",
"362 -13 OFFCURVE",
"423 -1 OFFCURVE",
"481 22 CURVE"
);
},
{
closed = 1;
nodes = (
"98 293 LINE",
"106 337 OFFCURVE",
"122 375 OFFCURVE",
"150 406 CURVE SMOOTH",
"184 445 OFFCURVE",
"228 465 OFFCURVE",
"282 465 CURVE SMOOTH",
"343 465 OFFCURVE",
"387 442 OFFCURVE",
"416 400 CURVE SMOOTH",
"438 369 OFFCURVE",
"448 332 OFFCURVE",
"450 293 CURVE"
);
}
);
width = 550;
}
);
note = e;
unicode = 0065;
},
{
glyphname = f;
lastChange = "2017-12-19 07:26:08 +0000";
layers = (
{
layerId = "0B1DFD06-3317-40CA-B510-4969A0718C16";
paths = (
{
closed = 1;
nodes = (
"335 747 OFFCURVE",
"307 754 OFFCURVE",
"270 754 CURVE SMOOTH",
"151 754 OFFCURVE",
"93 676 OFFCURVE",
"93 519 CURVE SMOOTH",
"93 500 LINE",
"7 500 LINE",
"7 454 LINE",
"91 454 LINE",
"91 0 LINE",
"148 0 LINE",
"148 454 LINE",
"293 454 LINE",
"293 500 LINE",
"148 500 LINE",
"148 519 LINE SMOOTH",
"148 644 OFFCURVE",
"188 706 OFFCURVE",
"266 706 CURVE SMOOTH",
"293 706 OFFCURVE",
"316 700 OFFCURVE",
"338 689 CURVE",
"354 731 LINE"
);
}
);
width = 303;
}
);
note = f;
unicode = 0066;
},
{
glyphname = g;
lastChange = "2017-12-19 07:26:08 +0000";
layers = (
{
layerId = "0B1DFD06-3317-40CA-B510-4969A0718C16";
paths = (
{
closed = 1;
nodes = (
"404 381 OFFCURVE",
"384 422 OFFCURVE",
"344 462 CURVE",
"416 454 LINE",
"416 501 LINE",
"221 501 LINE SMOOTH",
"131 501 OFFCURVE",
"53 431 OFFCURVE",
"53 325 CURVE SMOOTH",
"53 281 OFFCURVE",
"71 240 OFFCURVE",
"107 200 CURVE",
"97 171 OFFCURVE",
"93 147 OFFCURVE",
"93 129 CURVE SMOOTH",
"93 100 OFFCURVE",
"107 76 OFFCURVE",
"138 57 CURVE SMOOTH",
"156 46 OFFCURVE",
"188 32 OFFCURVE",
"235 18 CURVE SMOOTH",
"313 -7 OFFCURVE",
"351 -44 OFFCURVE",
"351 -91 CURVE SMOOTH",
"351 -144 OFFCURVE",
"298 -181 OFFCURVE",
"226 -181 CURVE SMOOTH",
"184 -181 OFFCURVE",
"143 -169 OFFCURVE",
"100 -144 CURVE",
"79 -191 LINE",
"122 -218 OFFCURVE",
"171 -231 OFFCURVE",
"222 -231 CURVE SMOOTH",
"340 -231 OFFCURVE",
"401 -171 OFFCURVE",
"401 -87 CURVE SMOOTH",
"401 -18 OFFCURVE",
"354 31 OFFCURVE",
"260 57 CURVE SMOOTH",
"181 79 OFFCURVE",
"141 104 OFFCURVE",
"141 129 CURVE SMOOTH",
"141 143 OFFCURVE",
"144 157 OFFCURVE",
"150 172 CURVE",
"172 162 OFFCURVE",
"197 156 OFFCURVE",
"228 156 CURVE SMOOTH",
"328 156 OFFCURVE",
"404 225 OFFCURVE",
"404 335 CURVE SMOOTH"
);
},
{
closed = 1;
nodes = (
"354 247 OFFCURVE",
"298 200 OFFCURVE",
"228 200 CURVE SMOOTH",
"197 200 OFFCURVE",
"169 210 OFFCURVE",
"144 232 CURVE SMOOTH",
"118 256 OFFCURVE",
"104 287 OFFCURVE",
"104 326 CURVE SMOOTH",
"104 397 OFFCURVE",
"150 457 OFFCURVE",
"228 457 CURVE SMOOTH",
"268 457 OFFCURVE",
"300 442 OFFCURVE",
"323 413 CURVE SMOOTH",
"344 388 OFFCURVE",
"354 360 OFFCURVE",
"354 328 CURVE SMOOTH"
);
}
);
width = 457;
}
);
note = g;
unicode = 0067;
},
{
glyphname = h;
lastChange = "2017-12-19 07:26:08 +0000";
layers = (
{
layerId = "0B1DFD06-3317-40CA-B510-4969A0718C16";
paths = (
{
closed = 1;
nodes = (
"497 435 OFFCURVE",
"432 510 OFFCURVE",
"301 510 CURVE SMOOTH",
"229 510 OFFCURVE",
"173 476 OFFCURVE",
"134 410 CURVE",
"134 742 LINE",
"76 742 LINE",
"76 0 LINE",
"134 0 LINE",
"134 303 LINE SMOOTH",
"134 343 OFFCURVE",
"150 378 OFFCURVE",
"181 412 CURVE SMOOTH",
"213 445 OFFCURVE",
"250 463 OFFCURVE",
"290 463 CURVE SMOOTH",
"390 463 OFFCURVE",
"440 403 OFFCURVE",
"440 284 CURVE SMOOTH",
"440 0 LINE",
"497 0 LINE",
"497 284 LINE SMOOTH"
);
}
);
width = 573;
}
);
note = h;
unicode = 0068;
},
{
glyphname = i;
lastChange = "2017-12-19 07:26:08 +0000";
layers = (
{
layerId = "0B1DFD06-3317-40CA-B510-4969A0718C16";
paths = (
{
closed = 1;
nodes = (
"134 500 LINE",
"76 500 LINE",
"76 0 LINE",
"134 0 LINE"
);
},
{
closed = 1;
nodes = (
"150 679 OFFCURVE",
"131 698 OFFCURVE",
"103 698 CURVE SMOOTH",
"75 698 OFFCURVE",
"57 679 OFFCURVE",
"57 651 CURVE SMOOTH",
"57 623 OFFCURVE",
"75 606 OFFCURVE",
"103 606 CURVE SMOOTH",
"131 606 OFFCURVE",
"150 623 OFFCURVE",
"150 651 CURVE SMOOTH"
);
}
);
width = 210;
}
);
note = i;
unicode = 0069;
},
{
glyphname = j;
lastChange = "2017-12-19 07:26:08 +0000";
layers = (
{
layerId = "0B1DFD06-3317-40CA-B510-4969A0718C16";
paths = (
{
closed = 1;
nodes = (
"151 500 LINE",
"94 500 LINE",
"94 26 LINE SMOOTH",
"94 -31 OFFCURVE",
"87 -74 OFFCURVE",
"72 -101 CURVE SMOOTH",
"50 -143 OFFCURVE",
"6 -166 OFFCURVE",
"-62 -172 CURVE",
"-56 -218 LINE",
"81 -215 OFFCURVE",
"150 -138 OFFCURVE",
"151 10 CURVE SMOOTH"
);
},
{
closed = 1;
nodes = (
"168 679 OFFCURVE",
"148 698 OFFCURVE",
"121 698 CURVE SMOOTH",
"93 698 OFFCURVE",
"75 679 OFFCURVE",
"75 651 CURVE SMOOTH",
"75 623 OFFCURVE",
"93 606 OFFCURVE",
"121 606 CURVE SMOOTH",
"148 606 OFFCURVE",
"168 623 OFFCURVE",
"168 651 CURVE SMOOTH"
);
}
);
width = 228;
}
);
note = j;
unicode = 006A;
},
{
glyphname = k;
lastChange = "2017-12-19 07:26:08 +0000";
layers = (
{
layerId = "0B1DFD06-3317-40CA-B510-4969A0718C16";
paths = (
{
closed = 1;
nodes = (
"226 293 LINE",
"441 495 LINE",
"382 507 LINE",
"134 275 LINE",
"134 742 LINE",
"76 742 LINE",
"76 0 LINE",
"134 0 LINE",
"134 210 LINE",
"185 260 LINE",
"423 -15 LINE",
"481 1 LINE"
);
}
);
width = 465;
}
);
note = k;
unicode = 006B;
},
{
glyphname = l;
lastChange = "2017-12-19 07:26:08 +0000";
layers = (
{
layerId = "0B1DFD06-3317-40CA-B510-4969A0718C16";
paths = (
{
closed = 1;
nodes = (
"210 41 OFFCURVE",
"172 66 OFFCURVE",
"153 118 CURVE SMOOTH",
"140 150 OFFCURVE",
"134 201 OFFCURVE",
"134 273 CURVE SMOOTH",
"134 742 LINE",
"76 742 LINE",
"76 251 LINE SMOOTH",
"76 82 OFFCURVE",
"138 -4 OFFCURVE",
"262 -10 CURVE",
"268 40 LINE"
);
}
);
width = 294;
}
);
note = l;
unicode = 006C;
},
{
glyphname = m;
lastChange = "2017-12-19 07:26:08 +0000";
layers = (
{
layerId = "0B1DFD06-3317-40CA-B510-4969A0718C16";
paths = (
{
closed = 1;
nodes = (
"807 278 LINE SMOOTH",
"807 420 OFFCURVE",
"741 510 OFFCURVE",
"631 510 CURVE SMOOTH",
"550 510 OFFCURVE",
"491 473 OFFCURVE",
"451 398 CURVE",
"417 473 OFFCURVE",
"368 510 OFFCURVE",
"300 510 CURVE SMOOTH",
"226 510 OFFCURVE",
"171 476 OFFCURVE",
"132 410 CURVE",
"131 450 OFFCURVE",
"128 479 OFFCURVE",
"121 500 CURVE",
"66 500 LINE",
"74 444 OFFCURVE",
"76 403 OFFCURVE",
"76 376 CURVE SMOOTH",
"76 0 LINE",
"134 0 LINE",
"134 303 LINE SMOOTH",
"134 343 OFFCURVE",
"150 378 OFFCURVE",
"181 412 CURVE SMOOTH",
"212 445 OFFCURVE",
"247 463 OFFCURVE",
"287 463 CURVE SMOOTH",
"370 463 OFFCURVE",
"413 410 OFFCURVE",
"413 303 CURVE SMOOTH",
"413 0 LINE",
"470 0 LINE",
"470 318 LINE SMOOTH",
"470 354 OFFCURVE",
"485 388 OFFCURVE",
"513 417 CURVE SMOOTH",
"542 448 OFFCURVE",
"576 463 OFFCURVE",
"614 463 CURVE SMOOTH",
"703 463 OFFCURVE",
"750 390 OFFCURVE",
"750 276 CURVE SMOOTH",
"750 0 LINE",
"807 0 LINE"
);
}
);
width = 883;
}
);
note = m;
unicode = 006D;
},
{
glyphname = n;
lastChange = "2017-12-19 07:26:08 +0000";
layers = (
{
layerId = "0B1DFD06-3317-40CA-B510-4969A0718C16";
paths = (
{
closed = 1;
nodes = (
"497 284 LINE SMOOTH",
"497 435 OFFCURVE",
"432 510 OFFCURVE",
"301 510 CURVE SMOOTH",
"226 510 OFFCURVE",
"171 476 OFFCURVE",
"132 410 CURVE",
"131 450 OFFCURVE",
"128 479 OFFCURVE",
"121 500 CURVE",
"66 500 LINE",
"74 444 OFFCURVE",
"76 403 OFFCURVE",
"76 376 CURVE SMOOTH",
"76 0 LINE",
"134 0 LINE",
"134 303 LINE SMOOTH",
"134 343 OFFCURVE",
"150 378 OFFCURVE",
"181 412 CURVE SMOOTH",
"213 445 OFFCURVE",
"250 463 OFFCURVE",
"290 463 CURVE SMOOTH",
"390 463 OFFCURVE",
"440 403 OFFCURVE",
"440 284 CURVE SMOOTH",
"440 0 LINE",
"497 0 LINE"
);
}
);
width = 573;
}
);
note = n;
unicode = 006E;
},
{
glyphname = o;
lastChange = "2017-12-19 07:26:08 +0000";
layers = (
{
layerId = "0B1DFD06-3317-40CA-B510-4969A0718C16";
paths = (
{
closed = 1;
nodes = (
"544 322 OFFCURVE",
"520 384 OFFCURVE",
"475 434 CURVE SMOOTH",
"429 485 OFFCURVE",
"368 510 OFFCURVE",
"293 510 CURVE SMOOTH",
"218 510 OFFCURVE",
"156 485 OFFCURVE",
"110 434 CURVE SMOOTH",
"65 384 OFFCURVE",
"41 322 OFFCURVE",
"41 248 CURVE SMOOTH",
"41 175 OFFCURVE",
"65 113 OFFCURVE",
"110 62 CURVE SMOOTH",
"156 10 OFFCURVE",
"218 -15 OFFCURVE",
"293 -15 CURVE SMOOTH",
"368 -15 OFFCURVE",
"429 10 OFFCURVE",
"475 62 CURVE SMOOTH",
"520 113 OFFCURVE",
"544 175 OFFCURVE",
"544 248 CURVE SMOOTH"
);
},
{
closed = 1;
nodes = (
"488 188 OFFCURVE",
"469 137 OFFCURVE",
"432 96 CURVE SMOOTH",
"395 54 OFFCURVE",
"350 34 OFFCURVE",
"293 34 CURVE SMOOTH",
"235 34 OFFCURVE",
"188 54 OFFCURVE",
"151 96 CURVE SMOOTH",
"115 137 OFFCURVE",
"97 188 OFFCURVE",
"97 248 CURVE SMOOTH",
"97 309 OFFCURVE",
"115 360 OFFCURVE",
"151 400 CURVE SMOOTH",
"188 441 OFFCURVE",
"235 462 OFFCURVE",
"293 462 CURVE SMOOTH",
"350 462 OFFCURVE",
"395 441 OFFCURVE",
"432 400 CURVE SMOOTH",
"469 360 OFFCURVE",
"488 309 OFFCURVE",
"488 248 CURVE SMOOTH"
);
}
);
width = 585;
}
);
note = o;
unicode = 006F;
},
{
glyphname = p;
lastChange = "2017-12-19 07:26:08 +0000";
layers = (
{
layerId = "0B1DFD06-3317-40CA-B510-4969A0718C16";
paths = (
{
closed = 1;
nodes = (
"548 401 OFFCURVE",
"457 510 OFFCURVE",
"315 510 CURVE SMOOTH",
"237 510 OFFCURVE",
"173 476 OFFCURVE",
"128 409 CURVE",
"128 442 OFFCURVE",
"126 472 OFFCURVE",
"125 497 CURVE",
"72 497 LINE",
"75 472 OFFCURVE",
"76 432 OFFCURVE",
"76 375 CURVE SMOOTH",
"76 -245 LINE",
"134 -245 LINE",
"134 93 LINE",
"176 22 OFFCURVE",
"240 -13 OFFCURVE",
"323 -13 CURVE SMOOTH",
"392 -13 OFFCURVE",
"448 12 OFFCURVE",
"490 62 CURVE SMOOTH",
"529 107 OFFCURVE",
"548 168 OFFCURVE",
"548 241 CURVE SMOOTH"
);
},
{
closed = 1;
nodes = (
"494 181 OFFCURVE",
"479 131 OFFCURVE",
"448 93 CURVE SMOOTH",
"415 53 OFFCURVE",
"370 32 OFFCURVE",
"313 32 CURVE SMOOTH",
"266 32 OFFCURVE",
"225 49 OFFCURVE",
"191 81 CURVE",
"153 115 OFFCURVE",
"134 159 OFFCURVE",
"134 213 CURVE SMOOTH",
"134 297 LINE SMOOTH",
"134 391 OFFCURVE",
"209 462 OFFCURVE",
"307 462 CURVE SMOOTH",
"429 462 OFFCURVE",
"494 379 OFFCURVE",
"494 243 CURVE SMOOTH"
);
}
);
width = 589;
}
);
note = p;
unicode = 0070;
},
{
glyphname = q;
lastChange = "2017-12-19 07:26:08 +0000";
layers = (
{
layerId = "0B1DFD06-3317-40CA-B510-4969A0718C16";
paths = (
{
closed = 1;
nodes = (
"544 375 LINE SMOOTH",
"544 432 OFFCURVE",
"545 472 OFFCURVE",
"548 497 CURVE",
"495 497 LINE",
"494 472 OFFCURVE",
"492 442 OFFCURVE",
"492 409 CURVE",
"447 476 OFFCURVE",
"384 510 OFFCURVE",
"306 510 CURVE SMOOTH",
"163 510 OFFCURVE",
"72 401 OFFCURVE",
"72 241 CURVE SMOOTH",
"72 168 OFFCURVE",
"91 107 OFFCURVE",
"131 62 CURVE SMOOTH",
"172 12 OFFCURVE",
"228 -13 OFFCURVE",
"297 -13 CURVE SMOOTH",
"381 -13 OFFCURVE",
"444 22 OFFCURVE",
"487 93 CURVE",
"487 -245 LINE",
"544 -245 LINE"
);
},
{
closed = 1;
nodes = (
"487 213 LINE SMOOTH",
"487 159 OFFCURVE",
"467 115 OFFCURVE",
"429 81 CURVE",
"395 49 OFFCURVE",
"354 32 OFFCURVE",
"307 32 CURVE SMOOTH",
"250 32 OFFCURVE",
"206 53 OFFCURVE",
"172 93 CURVE SMOOTH",
"141 131 OFFCURVE",
"126 181 OFFCURVE",
"126 243 CURVE SMOOTH",
"126 379 OFFCURVE",
"191 462 OFFCURVE",
"313 462 CURVE SMOOTH",
"412 462 OFFCURVE",
"487 391 OFFCURVE",
"487 297 CURVE SMOOTH"
);
}
);
width = 589;
}
);
note = q;
unicode = 0071;
},
{
glyphname = r;
lastChange = "2017-12-19 07:26:08 +0000";
layers = (
{
layerId = "0B1DFD06-3317-40CA-B510-4969A0718C16";
paths = (
{
closed = 1;
nodes = (
"306 507 LINE",
"295 509 OFFCURVE",
"287 510 OFFCURVE",
"278 510 CURVE SMOOTH",
"209 510 OFFCURVE",
"157 473 OFFCURVE",
"126 400 CURVE",
"126 445 OFFCURVE",
"121 478 OFFCURVE",
"110 500 CURVE",
"62 500 LINE",
"72 465 OFFCURVE",
"76 410 OFFCURVE",
"76 337 CURVE SMOOTH",
"76 0 LINE",
"134 0 LINE",
"134 269 LINE SMOOTH",
"134 291 OFFCURVE",
"135 309 OFFCURVE",
"138 319 CURVE SMOOTH",
"163 413 OFFCURVE",
"213 460 OFFCURVE",
"288 460 CURVE SMOOTH",
"297 460 OFFCURVE",
"303 460 OFFCURVE",
"306 459 CURVE"
);
}
);
width = 319;
}
);
note = r;
unicode = 0072;
},
{
glyphname = s;
lastChange = "2017-12-19 07:26:08 +0000";
layers = (
{
layerId = "0B1DFD06-3317-40CA-B510-4969A0718C16";
paths = (
{
closed = 1;
nodes = (
"365 200 OFFCURVE",
"320 248 OFFCURVE",
"231 279 CURVE SMOOTH",
"154 306 OFFCURVE",
"116 338 OFFCURVE",
"116 378 CURVE SMOOTH",
"116 426 OFFCURVE",
"153 465 OFFCURVE",
"216 465 CURVE SMOOTH",
"260 465 OFFCURVE",
"297 453 OFFCURVE",
"326 429 CURVE",
"350 476 LINE",
"319 498 OFFCURVE",
"278 510 OFFCURVE",
"226 510 CURVE SMOOTH",
"122 510 OFFCURVE",
"62 447 OFFCURVE",
"62 370 CURVE SMOOTH",
"62 307 OFFCURVE",
"106 263 OFFCURVE",
"196 235 CURVE SMOOTH",
"273 212 OFFCURVE",
"312 176 OFFCURVE",
"312 128 CURVE SMOOTH",
"312 66 OFFCURVE",
"270 35 OFFCURVE",
"188 35 CURVE SMOOTH",
"153 35 OFFCURVE",
"112 49 OFFCURVE",
"65 74 CURVE",
"43 26 LINE",
"88 0 OFFCURVE",
"135 -13 OFFCURVE",
"184 -13 CURVE SMOOTH",
"297 -13 OFFCURVE",
"365 49 OFFCURVE",
"365 132 CURVE SMOOTH"
);
}
);
width = 415;
}
);
note = s;
unicode = 0073;
},
{
glyphname = t;
lastChange = "2017-12-19 07:26:08 +0000";
layers = (
{
layerId = "0B1DFD06-3317-40CA-B510-4969A0718C16";
paths = (
{
closed = 1;
nodes = (
"294 40 OFFCURVE",
"272 37 OFFCURVE",
"241 37 CURVE SMOOTH",
"191 37 OFFCURVE",
"166 74 OFFCURVE",
"166 148 CURVE SMOOTH",
"166 454 LINE",
"326 454 LINE",
"326 500 LINE",
"166 500 LINE",
"166 675 LINE",
"109 648 LINE",
"109 500 LINE",
"9 500 LINE",
"9 454 LINE",
"109 454 LINE",
"109 147 LINE SMOOTH",
"109 103 OFFCURVE",
"119 66 OFFCURVE",
"138 37 CURVE SMOOTH",
"160 3 OFFCURVE",
"194 -13 OFFCURVE",
"237 -13 CURVE SMOOTH",
"269 -13 OFFCURVE",
"295 -9 OFFCURVE",
"315 0 CURVE",
"309 46 LINE"
);
}
);
width = 350;
}
);
note = t;
unicode = 0074;
},
{
glyphname = u;
lastChange = "2017-12-19 07:26:08 +0000";
layers = (
{
layerId = "0B1DFD06-3317-40CA-B510-4969A0718C16";
paths = (
{
closed = 1;
nodes = (
"506 46 OFFCURVE",
"497 85 OFFCURVE",
"497 122 CURVE SMOOTH",
"497 500 LINE",
"440 500 LINE",
"440 197 LINE SMOOTH",
"440 148 OFFCURVE",
"420 109 OFFCURVE",
"384 78 CURVE SMOOTH",
"350 50 OFFCURVE",
"312 37 OFFCURVE",
"269 37 CURVE SMOOTH",
"179 37 OFFCURVE",
"134 101 OFFCURVE",
"134 229 CURVE SMOOTH",
"134 500 LINE",
"76 500 LINE",
"76 219 LINE SMOOTH",
"76 65 OFFCURVE",
"137 -13 OFFCURVE",
"256 -13 CURVE SMOOTH",
"338 -13 OFFCURVE",
"401 21 OFFCURVE",
"444 87 CURVE",
"448 56 OFFCURVE",
"456 24 OFFCURVE",
"467 -10 CURVE",
"522 1 LINE"
);
}
);
width = 573;
}
);
note = u;
unicode = 0075;
},
{
glyphname = v;
lastChange = "2017-12-19 07:26:08 +0000";
layers = (
{
layerId = "0B1DFD06-3317-40CA-B510-4969A0718C16";
paths = (
{
closed = 1;
nodes = (
"438 500 LINE",
"248 62 LINE",
"63 500 LINE",
"4 500 LINE",
"221 0 LINE",
"272 0 LINE",
"497 500 LINE"
);
}
);
width = 501;
}
);
note = v;
unicode = 0076;
},
{
glyphname = w;
lastChange = "2017-12-19 07:26:08 +0000";
layers = (
{
layerId = "0B1DFD06-3317-40CA-B510-4969A0718C16";
paths = (
{
closed = 1;
nodes = (
"688 500 LINE",
"542 68 LINE",
"401 500 LINE",
"347 500 LINE",
"197 68 LINE",
"65 500 LINE",
"4 500 LINE",
"168 0 LINE",
"221 0 LINE",
"372 441 LINE",
"516 0 LINE",
"566 0 LINE",
"745 500 LINE"
);
}
);
width = 745;
}
);
note = w;
unicode = 0077;
},
{
glyphname = x;
lastChange = "2017-12-19 07:26:08 +0000";
layers = (
{
layerId = "0B1DFD06-3317-40CA-B510-4969A0718C16";
paths = (
{
closed = 1;
nodes = (
"266 256 LINE",
"457 500 LINE",
"394 500 LINE",
"237 297 LINE",
"78 500 LINE",
"13 500 LINE",
"203 254 LINE",
"0 0 LINE",
"66 0 LINE",
"232 216 LINE",
"400 0 LINE",
"467 0 LINE"
);
}
);
width = 467;
}
);
note = x;
unicode = 0078;
},
{
glyphname = y;
lastChange = "2017-12-19 07:26:08 +0000";
layers = (
{
layerId = "0B1DFD06-3317-40CA-B510-4969A0718C16";
paths = (
{
closed = 1;
nodes = (
"491 500 LINE",
"428 500 LINE",
"253 76 LINE",
"66 500 LINE",
"4 500 LINE",
"212 34 LINE",
"215 25 OFFCURVE",
"216 19 OFFCURVE",
"216 16 CURVE",
"173 -98 OFFCURVE",
"110 -165 OFFCURVE",
"26 -184 CURVE",
"40 -229 LINE",
"135 -207 OFFCURVE",
"213 -131 OFFCURVE",
"270 0 CURVE SMOOTH"
);
}
);
width = 495;
}
);
note = y;
unicode = 0079;
},
{
glyphname = z;
lastChange = "2017-12-19 07:26:08 +0000";
layers = (
{
layerId = "0B1DFD06-3317-40CA-B510-4969A0718C16";
paths = (
{
closed = 1;
nodes = (
"454 47 LINE",
"94 47 LINE",
"445 460 LINE",
"447 500 LINE",
"49 500 LINE",
"40 453 LINE",
"375 453 LINE",
"22 35 LINE",
"22 0 LINE",
"442 0 LINE"
);
}
);
width = 472;
}
);
note = z;
unicode = 007A;
},
{
glyphname = AE;
lastChange = "2017-12-19 07:26:19 +0000";
layers = (
{
layerId = "0B1DFD06-3317-40CA-B510-4969A0718C16";
paths = (
{
closed = 1;
nodes = (
"800 49 LINE",
"534 49 LINE",
"490 344 LINE",
"766 344 LINE",
"766 392 LINE",
"482 392 LINE",
"447 651 LINE",
"782 651 LINE",
"782 700 LINE",
"365 700 LINE",
"-10 0 LINE",
"50 0 LINE",
"203 288 LINE",
"444 288 LINE",
"485 0 LINE",
"800 0 LINE"
);
},
{
closed = 1;
nodes = (
"226 335 LINE",
"397 659 LINE",
"437 335 LINE"
);
}
);
width = 856;
}
);
note = AE;
unicode = 00C6;
},
{
glyphname = Eth;
lastChange = "2017-12-19 07:26:43 +0000";
layers = (
{
layerId = "0B1DFD06-3317-40CA-B510-4969A0718C16";
paths = (
{
closed = 1;
nodes = (
"591 470 OFFCURVE",
"563 554 OFFCURVE",
"506 617 CURVE SMOOTH",
"450 678 OFFCURVE",
"378 707 OFFCURVE",
"288 707 CURVE SMOOTH",
"240 707 OFFCURVE",
"169 701 OFFCURVE",
"79 689 CURVE",
"79 362 LINE",
"7 362 LINE",
"7 313 LINE",
"79 313 LINE",
"79 7 LINE",
"169 -1 OFFCURVE",
"229 -6 OFFCURVE",
"259 -6 CURVE SMOOTH",
"481 -6 OFFCURVE",
"591 118 OFFCURVE",
"591 365 CURVE SMOOTH"
);
},
{
closed = 1;
nodes = (
"534 163 OFFCURVE",
"435 44 OFFCURVE",
"276 44 CURVE SMOOTH",
"232 44 OFFCURVE",
"185 47 OFFCURVE",
"137 53 CURVE",
"137 313 LINE",
"384 313 LINE",
"384 362 LINE",
"137 362 LINE",
"137 645 LINE",
"204 653 OFFCURVE",
"253 657 OFFCURVE",
"284 657 CURVE SMOOTH",
"356 657 OFFCURVE",
"415 632 OFFCURVE",
"460 584 CURVE SMOOTH",
"509 531 OFFCURVE",
"534 457 OFFCURVE",
"534 365 CURVE SMOOTH"
);
}
);
width = 634;
}
);
note = Eth;
unicode = 00D0;
},
{
glyphname = Dcroat;
lastChange = "2017-12-19 07:26:43 +0000";
layers = (
{
layerId = "0B1DFD06-3317-40CA-B510-4969A0718C16";
paths = (
{
closed = 1;
nodes = (
"591 581 OFFCURVE",
"487 707 OFFCURVE",
"310 707 CURVE SMOOTH",
"247 707 OFFCURVE",
"169 701 OFFCURVE",
"79 689 CURVE",
"79 379 LINE",
"9 379 LINE",
"9 331 LINE",
"79 331 LINE",
"79 7 LINE",
"169 -1 OFFCURVE",
"237 -6 OFFCURVE",
"281 -6 CURVE SMOOTH",
"397 -6 OFFCURVE",
"481 29 OFFCURVE",
"529 100 CURVE SMOOTH",
"570 159 OFFCURVE",
"591 247 OFFCURVE",
"591 365 CURVE SMOOTH"
);
},
{
closed = 1;
nodes = (
"534 151 OFFCURVE",
"456 44 OFFCURVE",
"298 44 CURVE SMOOTH",
"240 44 OFFCURVE",
"185 47 OFFCURVE",
"137 53 CURVE",
"137 331 LINE",
"359 331 LINE",
"359 379 LINE",
"137 379 LINE",
"137 645 LINE",
"204 653 OFFCURVE",
"260 657 OFFCURVE",
"306 657 CURVE SMOOTH",
"376 657 OFFCURVE",
"432 632 OFFCURVE",
"472 584 CURVE SMOOTH",
"513 532 OFFCURVE",
"534 459 OFFCURVE",
"534 365 CURVE SMOOTH"
);
}
);
width = 634;
}
);
note = Dcroat;
unicode = 0110;
},
{
glyphname = Eacute;
lastChange = "2017-12-19 05:21:12 +0000";
layers = (
{
background = {
paths = (
{
closed = 1;
nodes = (
"554 0 LINE",
"571 179 LINE",
"544 179 LINE",
"538 124 OFFCURVE",
"520 40 OFFCURVE",
"456 40 CURVE SMOOTH",
"201 40 LINE",
"201 659 LINE",
"441 659 LINE SMOOTH",
"516 659 OFFCURVE",
"525 567 OFFCURVE",
"528 527 CURVE",
"555 527 LINE",
"555 700 LINE",
"16 700 LINE",
"16 673 LINE",
"44 673 LINE SMOOTH",
"83 673 OFFCURVE",
"103 662 OFFCURVE",
"103 637 CURVE SMOOTH",
"103 62 LINE SMOOTH",
"103 37 OFFCURVE",
"83 26 OFFCURVE",
"44 26 CURVE SMOOTH",
"16 26 LINE",
"16 0 LINE"
);
},
{
closed = 1;
nodes = (
"455 251 LINE",
"455 485 LINE",
"431 485 LINE",
"427 436 OFFCURVE",
"424 388 OFFCURVE",
"379 388 CURVE SMOOTH",
"162 388 LINE",
"162 348 LINE",
"379 348 LINE SMOOTH",
"424 348 OFFCURVE",
"427 300 OFFCURVE",
"431 251 CURVE"
);
},
{
closed = 1;
nodes = (
"398 865 LINE SMOOTH",
"420 877 OFFCURVE",
"432 890 OFFCURVE",
"432 907 CURVE SMOOTH",
"432 922 OFFCURVE",
"420 937 OFFCURVE",
"398 937 CURVE SMOOTH",
"377 937 OFFCURVE",
"362 921 OFFCURVE",
"354 914 CURVE SMOOTH",
"239 807 LINE",
"256 782 LINE"
);
}
);
};
components = (
{
name = E;
},
{
name = acute;
transform = "{1, 0, 0, 1, 56, 230}";
}
);
layerId = "0B1DFD06-3317-40CA-B510-4969A0718C16";
width = 607;
}
);
note = Eacute;
unicode = 00C9;
},
{
glyphname = Ebreve;
lastChange = "2017-12-19 05:21:12 +0000";
layers = (
{
background = {
paths = (
{
closed = 1;
nodes = (
"554 0 LINE",
"571 179 LINE",
"544 179 LINE",
"538 124 OFFCURVE",
"520 40 OFFCURVE",
"456 40 CURVE SMOOTH",
"201 40 LINE",
"201 659 LINE",
"441 659 LINE SMOOTH",
"516 659 OFFCURVE",
"525 567 OFFCURVE",
"528 527 CURVE",
"555 527 LINE",
"555 700 LINE",
"16 700 LINE",
"16 673 LINE",
"44 673 LINE SMOOTH",
"83 673 OFFCURVE",
"103 662 OFFCURVE",
"103 637 CURVE SMOOTH",
"103 62 LINE SMOOTH",
"103 37 OFFCURVE",
"83 26 OFFCURVE",
"44 26 CURVE SMOOTH",
"16 26 LINE",
"16 0 LINE"
);
},
{
closed = 1;
nodes = (
"455 251 LINE",
"455 485 LINE",
"431 485 LINE",
"427 436 OFFCURVE",
"424 388 OFFCURVE",
"379 388 CURVE SMOOTH",
"162 388 LINE",
"162 348 LINE",
"379 348 LINE SMOOTH",
"424 348 OFFCURVE",
"427 300 OFFCURVE",
"431 251 CURVE"
);
},
{
closed = 1;
nodes = (
"432 776 OFFCURVE",
"474 832 OFFCURVE",
"478 907 CURVE",
"445 907 LINE",
"439 848 OFFCURVE",
"397 822 OFFCURVE",
"333 822 CURVE SMOOTH",
"269 822 OFFCURVE",
"226 848 OFFCURVE",
"219 907 CURVE",
"186 907 LINE",
"190 829 OFFCURVE",
"232 776 OFFCURVE",
"333 776 CURVE SMOOTH"
);
}
);
};
components = (
{
name = E;
},
{
name = breve;
transform = "{1, 0, 0, 1, 68, 230}";
}
);
layerId = "0B1DFD06-3317-40CA-B510-4969A0718C16";
width = 607;
}
);
note = Ebreve;
unicode = 0114;
},
{
glyphname = Ecaron;
lastChange = "2017-12-19 05:21:12 +0000";
layers = (
{
background = {
paths = (
{
closed = 1;
nodes = (
"554 0 LINE",
"571 179 LINE",
"544 179 LINE",
"538 124 OFFCURVE",
"520 40 OFFCURVE",
"456 40 CURVE SMOOTH",
"201 40 LINE",
"201 659 LINE",
"441 659 LINE SMOOTH",
"516 659 OFFCURVE",
"525 567 OFFCURVE",
"528 527 CURVE",
"555 527 LINE",
"555 700 LINE",
"16 700 LINE",
"16 673 LINE",
"44 673 LINE SMOOTH",
"83 673 OFFCURVE",
"103 662 OFFCURVE",
"103 637 CURVE SMOOTH",
"103 62 LINE SMOOTH",
"103 37 OFFCURVE",
"83 26 OFFCURVE",
"44 26 CURVE SMOOTH",
"16 26 LINE",
"16 0 LINE"
);
},
{
closed = 1;
nodes = (
"455 251 LINE",
"455 485 LINE",
"431 485 LINE",
"427 436 OFFCURVE",
"424 388 OFFCURVE",
"379 388 CURVE SMOOTH",
"162 388 LINE",
"162 348 LINE",
"379 348 LINE SMOOTH",
"424 348 OFFCURVE",
"427 300 OFFCURVE",
"431 251 CURVE"
);
},
{
closed = 1;
nodes = (
"357 782 LINE",
"481 911 LINE",
"462 932 LINE",
"354 847 LINE",
"346 840 OFFCURVE",
"337 836 OFFCURVE",
"331 836 CURVE SMOOTH",
"325 836 OFFCURVE",
"317 840 OFFCURVE",
"307 847 CURVE",
"199 932 LINE",
"180 911 LINE",
"304 782 LINE"
);
}
);
};
components = (
{
name = E;
},
{
name = caron;
transform = "{1, 0, 0, 1, 68, 230}";
}
);
layerId = "0B1DFD06-3317-40CA-B510-4969A0718C16";
width = 607;
}
);
note = Ecaron;
unicode = 011A;
},
{
glyphname = Ecircumflex;
lastChange = "2017-12-19 05:21:12 +0000";
layers = (
{
background = {
paths = (
{
closed = 1;
nodes = (
"554 0 LINE",
"571 179 LINE",
"544 179 LINE",
"538 124 OFFCURVE",
"520 40 OFFCURVE",
"456 40 CURVE SMOOTH",
"201 40 LINE",
"201 659 LINE",
"441 659 LINE SMOOTH",
"516 659 OFFCURVE",
"525 567 OFFCURVE",
"528 527 CURVE",
"555 527 LINE",
"555 700 LINE",
"16 700 LINE",
"16 673 LINE",
"44 673 LINE SMOOTH",
"83 673 OFFCURVE",
"103 662 OFFCURVE",
"103 637 CURVE SMOOTH",
"103 62 LINE SMOOTH",
"103 37 OFFCURVE",
"83 26 OFFCURVE",
"44 26 CURVE SMOOTH",
"16 26 LINE",
"16 0 LINE"
);
},
{
closed = 1;
nodes = (
"455 251 LINE",
"455 485 LINE",
"431 485 LINE",
"427 436 OFFCURVE",
"424 388 OFFCURVE",
"379 388 CURVE SMOOTH",
"162 388 LINE",
"162 348 LINE",
"379 348 LINE SMOOTH",
"424 348 OFFCURVE",
"427 300 OFFCURVE",
"431 251 CURVE"
);
},
{
closed = 1;
nodes = (
"304 868 LINE SMOOTH",
"312 874 OFFCURVE",
"322 879 OFFCURVE",
"328 879 CURVE SMOOTH",
"334 879 OFFCURVE",
"342 874 OFFCURVE",
"351 868 CURVE",
"459 782 LINE",
"478 803 LINE",
"354 932 LINE",
"301 932 LINE",
"177 803 LINE",
"196 782 LINE"
);
}
);
};
components = (
{
name = E;
},
{
name = circumflex;
transform = "{1, 0, 0, 1, 68, 230}";
}
);
layerId = "0B1DFD06-3317-40CA-B510-4969A0718C16";
width = 607;
}
);
note = Ecircumflex;
unicode = 00CA;
},
{
glyphname = Ecircumflexacute;
lastChange = "2017-12-19 05:21:12 +0000";
layers = (
{
background = {
paths = (
{
closed = 1;
nodes = (
"554 0 LINE",
"571 179 LINE",
"544 179 LINE",
"538 124 OFFCURVE",
"520 40 OFFCURVE",
"456 40 CURVE SMOOTH",
"201 40 LINE",
"201 659 LINE",
"441 659 LINE SMOOTH",
"516 659 OFFCURVE",
"525 567 OFFCURVE",
"528 527 CURVE",
"555 527 LINE",
"555 700 LINE",
"16 700 LINE",
"16 673 LINE",
"44 673 LINE SMOOTH",
"83 673 OFFCURVE",
"103 662 OFFCURVE",
"103 637 CURVE SMOOTH",
"103 62 LINE SMOOTH",
"103 37 OFFCURVE",
"83 26 OFFCURVE",
"44 26 CURVE SMOOTH",
"16 26 LINE",
"16 0 LINE"
);
},
{
closed = 1;
nodes = (
"455 251 LINE",
"455 485 LINE",
"431 485 LINE",
"427 436 OFFCURVE",
"424 388 OFFCURVE",
"379 388 CURVE SMOOTH",
"162 388 LINE",
"162 348 LINE",
"379 348 LINE SMOOTH",
"424 348 OFFCURVE",
"427 300 OFFCURVE",
"431 251 CURVE"
);
},
{
closed = 1;
nodes = (
"290 862 LINE SMOOTH",
"300 870 OFFCURVE",
"310 878 OFFCURVE",
"318 878 CURVE SMOOTH",
"324 878 OFFCURVE",
"332 873 OFFCURVE",
"341 867 CURVE",
"447 781 LINE",
"466 803 LINE",
"344 932 LINE",
"293 932 LINE",
"171 803 LINE",
"189 781 LINE"
);
},
{
closed = 1;
nodes = (
"555 960 LINE SMOOTH",
"578 972 OFFCURVE",
"591 988 OFFCURVE",
"591 1003 CURVE SMOOTH",
"591 1017 OFFCURVE",
"580 1034 OFFCURVE",
"557 1034 CURVE SMOOTH",
"538 1034 OFFCURVE",
"521 1018 OFFCURVE",
"511 1008 CURVE SMOOTH",
"415 915 LINE",
"433 893 LINE"
);
}
);
};
components = (
{
name = E;
},
{
name = circumflexacute;
transform = "{1, 0, 0, 1, 564, 230}";
}
);
layerId = "0B1DFD06-3317-40CA-B510-4969A0718C16";
width = 607;
}
);
note = Ecircumflexacute;
unicode = 1EBE;
},
{
glyphname = Ecircumflexdotbelow;
lastChange = "2017-12-19 05:21:12 +0000";
layers = (
{
background = {
paths = (
{
closed = 1;
nodes = (
"554 0 LINE",
"571 179 LINE",
"544 179 LINE",
"538 124 OFFCURVE",
"520 40 OFFCURVE",
"456 40 CURVE SMOOTH",
"201 40 LINE",
"201 659 LINE",
"441 659 LINE SMOOTH",
"516 659 OFFCURVE",
"525 567 OFFCURVE",
"528 527 CURVE",
"555 527 LINE",
"555 700 LINE",
"16 700 LINE",
"16 673 LINE",
"44 673 LINE SMOOTH",
"83 673 OFFCURVE",
"103 662 OFFCURVE",
"103 637 CURVE SMOOTH",
"103 62 LINE SMOOTH",
"103 37 OFFCURVE",
"83 26 OFFCURVE",
"44 26 CURVE SMOOTH",
"16 26 LINE",
"16 0 LINE"
);
},
{
closed = 1;
nodes = (
"350 -159 OFFCURVE",
"368 -140 OFFCURVE",
"368 -112 CURVE SMOOTH",
"368 -84 OFFCURVE",
"350 -64 OFFCURVE",
"322 -64 CURVE SMOOTH",
"294 -64 OFFCURVE",
"275 -84 OFFCURVE",
"275 -112 CURVE SMOOTH",
"275 -140 OFFCURVE",
"294 -159 OFFCURVE",
"322 -159 CURVE SMOOTH"
);
},
{
closed = 1;
nodes = (
"455 251 LINE",
"455 485 LINE",
"431 485 LINE",
"427 436 OFFCURVE",
"424 388 OFFCURVE",
"379 388 CURVE SMOOTH",
"162 388 LINE",
"162 348 LINE",
"379 348 LINE SMOOTH",
"424 348 OFFCURVE",
"427 300 OFFCURVE",
"431 251 CURVE"
);
},
{
closed = 1;
nodes = (
"294 868 LINE SMOOTH",
"302 874 OFFCURVE",
"312 879 OFFCURVE",
"318 879 CURVE SMOOTH",
"324 879 OFFCURVE",
"332 874 OFFCURVE",
"341 868 CURVE",
"449 782 LINE",
"468 803 LINE",
"344 932 LINE",
"291 932 LINE",
"167 803 LINE",
"186 782 LINE"
);
}
);
};
components = (
{
name = E;
},
{
name = dotbelowcomb;
transform = "{1, 0, 0, 1, 565, 0}";
},
{
name = circumflex;
transform = "{1, 0, 0, 1, 68, 230}";
}
);
layerId = "0B1DFD06-3317-40CA-B510-4969A0718C16";
width = 607;
}
);
note = Ecircumflexdotbelow;
unicode = 1EC6;
},
{
glyphname = Ecircumflexgrave;
lastChange = "2017-12-19 05:21:12 +0000";
layers = (
{
background = {
paths = (
{
closed = 1;
nodes = (
"554 0 LINE",
"571 179 LINE",
"544 179 LINE",
"538 124 OFFCURVE",
"520 40 OFFCURVE",
"456 40 CURVE SMOOTH",
"201 40 LINE",
"201 659 LINE",
"441 659 LINE SMOOTH",
"516 659 OFFCURVE",
"525 567 OFFCURVE",
"528 527 CURVE",
"555 527 LINE",
"555 700 LINE",
"16 700 LINE",
"16 673 LINE",
"44 673 LINE SMOOTH",
"83 673 OFFCURVE",
"103 662 OFFCURVE",
"103 637 CURVE SMOOTH",
"103 62 LINE SMOOTH",
"103 37 OFFCURVE",
"83 26 OFFCURVE",
"44 26 CURVE SMOOTH",
"16 26 LINE",
"16 0 LINE"
);
},
{
closed = 1;
nodes = (
"455 251 LINE",
"455 485 LINE",
"431 485 LINE",
"427 436 OFFCURVE",
"424 388 OFFCURVE",
"379 388 CURVE SMOOTH",
"162 388 LINE",
"162 348 LINE",
"379 348 LINE SMOOTH",
"424 348 OFFCURVE",
"427 300 OFFCURVE",
"431 251 CURVE"
);
},
{
closed = 1;
nodes = (
"227 915 LINE",
"132 1008 LINE SMOOTH",
"122 1018 OFFCURVE",
"105 1034 OFFCURVE",
"85 1034 CURVE SMOOTH",
"63 1034 OFFCURVE",
"52 1017 OFFCURVE",
"52 1003 CURVE SMOOTH",
"52 988 OFFCURVE",
"65 972 OFFCURVE",
"88 960 CURVE SMOOTH",
"210 893 LINE"
);
},
{
closed = 1;
nodes = (
"290 862 LINE SMOOTH",
"300 870 OFFCURVE",
"310 878 OFFCURVE",
"318 878 CURVE SMOOTH",
"324 878 OFFCURVE",
"332 873 OFFCURVE",
"341 867 CURVE",
"447 781 LINE",
"466 803 LINE",
"344 932 LINE",
"293 932 LINE",
"171 803 LINE",
"189 781 LINE"
);
}
);
};
components = (
{
name = E;
},
{
name = circumflexgrave;
transform = "{1, 0, 0, 1, 564, 230}";
}
);
layerId = "0B1DFD06-3317-40CA-B510-4969A0718C16";
width = 607;
}
);
note = Ecircumflexgrave;
unicode = 1EC0;
},
{
glyphname = Ecircumflexhookabove;
lastChange = "2017-12-19 05:21:12 +0000";
layers = (
{
background = {
paths = (
{
closed = 1;
nodes = (
"554 0 LINE",
"571 179 LINE",
"544 179 LINE",
"538 124 OFFCURVE",
"520 40 OFFCURVE",
"456 40 CURVE SMOOTH",
"201 40 LINE",
"201 659 LINE",
"441 659 LINE SMOOTH",
"516 659 OFFCURVE",
"525 567 OFFCURVE",
"528 527 CURVE",
"555 527 LINE",
"555 700 LINE",
"16 700 LINE",
"16 673 LINE",
"44 673 LINE SMOOTH",
"83 673 OFFCURVE",
"103 662 OFFCURVE",
"103 637 CURVE SMOOTH",
"103 62 LINE SMOOTH",
"103 37 OFFCURVE",
"83 26 OFFCURVE",
"44 26 CURVE SMOOTH",
"16 26 LINE",
"16 0 LINE"
);
},
{
closed = 1;
nodes = (
"455 251 LINE",
"455 485 LINE",
"431 485 LINE",
"427 436 OFFCURVE",
"424 388 OFFCURVE",
"379 388 CURVE SMOOTH",
"162 388 LINE",
"162 348 LINE",
"379 348 LINE SMOOTH",
"424 348 OFFCURVE",
"427 300 OFFCURVE",
"431 251 CURVE"
);
},
{
closed = 1;
nodes = (
"286 858 LINE",
"297 868 OFFCURVE",
"309 878 OFFCURVE",
"318 878 CURVE SMOOTH",
"324 878 OFFCURVE",
"332 873 OFFCURVE",
"341 867 CURVE",
"447 781 LINE",
"466 803 LINE",
"344 932 LINE",
"293 932 LINE",
"171 803 LINE",
"189 781 LINE"
);
},
{
closed = 1;
nodes = (
"493 898 LINE",
"474 905 OFFCURVE",
"464 912 OFFCURVE",
"464 926 CURVE SMOOTH",
"464 954 OFFCURVE",
"544 965 OFFCURVE",
"544 1010 CURVE SMOOTH",
"544 1047 OFFCURVE",
"502 1063 OFFCURVE",
"460 1063 CURVE SMOOTH",
"429 1063 OFFCURVE",
"384 1053 OFFCURVE",
"384 1022 CURVE SMOOTH",
"384 1010 OFFCURVE",
"395 1001 OFFCURVE",
"405 1001 CURVE SMOOTH",
"434 1001 OFFCURVE",
"421 1040 OFFCURVE",
"464 1040 CURVE SMOOTH",
"483 1040 OFFCURVE",
"494 1028 OFFCURVE",
"494 1013 CURVE SMOOTH",
"494 973 OFFCURVE",
"421 965 OFFCURVE",
"421 925 CURVE SMOOTH",
"421 901 OFFCURVE",
"437 880 OFFCURVE",
"484 880 CURVE"
);
}
);
};
components = (
{
name = E;
},
{
name = circumflexhookabove;
transform = "{1, 0, 0, 1, 564, 230}";
}
);
layerId = "0B1DFD06-3317-40CA-B510-4969A0718C16";
width = 607;
}
);
note = Ecircumflexhookabove;
unicode = 1EC2;
},
{
glyphname = Ecircumflextilde;
lastChange = "2017-12-19 05:21:12 +0000";
layers = (
{
background = {
paths = (
{
closed = 1;
nodes = (
"554 0 LINE",
"571 179 LINE",
"544 179 LINE",
"538 124 OFFCURVE",
"520 40 OFFCURVE",
"456 40 CURVE SMOOTH",
"201 40 LINE",
"201 659 LINE",
"441 659 LINE SMOOTH",
"516 659 OFFCURVE",
"525 567 OFFCURVE",
"528 527 CURVE",
"555 527 LINE",
"555 700 LINE",
"16 700 LINE",
"16 673 LINE",
"44 673 LINE SMOOTH",
"83 673 OFFCURVE",
"103 662 OFFCURVE",
"103 637 CURVE SMOOTH",
"103 62 LINE SMOOTH",
"103 37 OFFCURVE",
"83 26 OFFCURVE",
"44 26 CURVE SMOOTH",
"16 26 LINE",
"16 0 LINE"
);
},
{
closed = 1;
nodes = (
"455 251 LINE",
"455 485 LINE",
"431 485 LINE",
"427 436 OFFCURVE",
"424 388 OFFCURVE",
"379 388 CURVE SMOOTH",
"162 388 LINE",
"162 348 LINE",
"379 348 LINE SMOOTH",
"424 348 OFFCURVE",
"427 300 OFFCURVE",
"431 251 CURVE"
);
},
{
closed = 1;
nodes = (
"290 862 LINE SMOOTH",
"300 870 OFFCURVE",
"310 878 OFFCURVE",
"318 878 CURVE SMOOTH",
"324 878 OFFCURVE",
"332 873 OFFCURVE",
"341 867 CURVE",
"447 781 LINE",
"466 803 LINE",
"344 932 LINE",
"293 932 LINE",
"171 803 LINE",
"189 781 LINE"
);
},
{
closed = 1;
nodes = (
"193 997 OFFCURVE",
"211 1018 OFFCURVE",
"242 1018 CURVE SMOOTH",
"291 1018 OFFCURVE",
"338 964 OFFCURVE",
"387 964 CURVE SMOOTH",
"440 964 OFFCURVE",
"469 1012 OFFCURVE",
"481 1063 CURVE",
"460 1075 LINE",
"447 1035 OFFCURVE",
"431 1012 OFFCURVE",
"398 1012 CURVE SMOOTH",
"351 1012 OFFCURVE",
"302 1065 OFFCURVE",
"253 1065 CURVE SMOOTH",
"202 1065 OFFCURVE",
"170 1021 OFFCURVE",
"160 970 CURVE",
"180 958 LINE"
);
}
);
};
components = (
{
name = E;
},
{
name = circumflextilde;
transform = "{1, 0, 0, 1, 564, 230}";
}
);
layerId = "0B1DFD06-3317-40CA-B510-4969A0718C16";
width = 607;
}
);
note = Ecircumflextilde;
unicode = 1EC4;
},
{
glyphname = Edieresis;
lastChange = "2017-12-19 05:21:12 +0000";
layers = (
{
background = {
paths = (
{
closed = 1;
nodes = (
"554 0 LINE",
"571 179 LINE",
"544 179 LINE",
"538 124 OFFCURVE",
"520 40 OFFCURVE",
"456 40 CURVE SMOOTH",
"201 40 LINE",
"201 659 LINE",
"441 659 LINE SMOOTH",
"516 659 OFFCURVE",
"525 567 OFFCURVE",
"528 527 CURVE",
"555 527 LINE",
"555 700 LINE",
"16 700 LINE",
"16 673 LINE",
"44 673 LINE SMOOTH",
"83 673 OFFCURVE",
"103 662 OFFCURVE",
"103 637 CURVE SMOOTH",
"103 62 LINE SMOOTH",
"103 37 OFFCURVE",
"83 26 OFFCURVE",
"44 26 CURVE SMOOTH",
"16 26 LINE",
"16 0 LINE"
);
},
{
closed = 1;
nodes = (
"455 251 LINE",
"455 485 LINE",
"431 485 LINE",
"427 436 OFFCURVE",
"424 388 OFFCURVE",
"379 388 CURVE SMOOTH",
"162 388 LINE",
"162 348 LINE",
"379 348 LINE SMOOTH",
"424 348 OFFCURVE",
"427 300 OFFCURVE",
"431 251 CURVE"
);
},
{
closed = 1;
nodes = (
"254 781 OFFCURVE",
"272 800 OFFCURVE",
"272 827 CURVE SMOOTH",
"272 855 OFFCURVE",
"254 875 OFFCURVE",
"225 875 CURVE SMOOTH",
"197 875 OFFCURVE",
"179 855 OFFCURVE",
"179 827 CURVE SMOOTH",
"179 800 OFFCURVE",
"197 781 OFFCURVE",
"225 781 CURVE SMOOTH"
);
},
{
closed = 1;
nodes = (
"470 781 OFFCURVE",
"488 800 OFFCURVE",
"488 827 CURVE SMOOTH",
"488 855 OFFCURVE",
"470 875 OFFCURVE",
"441 875 CURVE SMOOTH",
"412 875 OFFCURVE",
"394 855 OFFCURVE",
"394 827 CURVE SMOOTH",
"394 800 OFFCURVE",
"412 781 OFFCURVE",
"441 781 CURVE SMOOTH"
);
}
);
};
components = (
{
name = E;
},
{
name = dieresis;
transform = "{1, 0, 0, 1, 68, 230}";
}
);
layerId = "0B1DFD06-3317-40CA-B510-4969A0718C16";
width = 607;
}
);
note = Edieresis;
unicode = 00CB;
},
{
glyphname = Edotaccent;
lastChange = "2017-12-19 05:21:12 +0000";
layers = (
{
background = {
paths = (
{
closed = 1;
nodes = (
"554 0 LINE",
"571 179 LINE",
"544 179 LINE",
"538 124 OFFCURVE",
"520 40 OFFCURVE",
"456 40 CURVE SMOOTH",
"201 40 LINE",
"201 659 LINE",
"441 659 LINE SMOOTH",
"516 659 OFFCURVE",
"525 567 OFFCURVE",
"528 527 CURVE",
"555 527 LINE",
"555 700 LINE",
"16 700 LINE",
"16 673 LINE",
"44 673 LINE SMOOTH",
"83 673 OFFCURVE",
"103 662 OFFCURVE",
"103 637 CURVE SMOOTH",
"103 62 LINE SMOOTH",
"103 37 OFFCURVE",
"83 26 OFFCURVE",
"44 26 CURVE SMOOTH",
"16 26 LINE",
"16 0 LINE"
);
},
{
closed = 1;
nodes = (
"455 251 LINE",
"455 485 LINE",
"431 485 LINE",
"427 436 OFFCURVE",
"424 388 OFFCURVE",
"379 388 CURVE SMOOTH",
"162 388 LINE",
"162 348 LINE",
"379 348 LINE SMOOTH",
"424 348 OFFCURVE",
"427 300 OFFCURVE",
"431 251 CURVE"
);
},
{
closed = 1;
nodes = (
"362 765 OFFCURVE",
"380 784 OFFCURVE",
"380 811 CURVE SMOOTH",
"380 839 OFFCURVE",
"362 858 OFFCURVE",
"334 858 CURVE SMOOTH",
"305 858 OFFCURVE",
"287 839 OFFCURVE",
"287 811 CURVE SMOOTH",
"287 784 OFFCURVE",
"305 765 OFFCURVE",
"334 765 CURVE SMOOTH"
);
}
);
};
components = (
{
name = E;
},
{
name = dotaccent;
transform = "{1, 0, 0, 1, 68, 230}";
}
);
layerId = "0B1DFD06-3317-40CA-B510-4969A0718C16";
width = 607;
}
);
note = Edotaccent;
unicode = 0116;
},
{
glyphname = Edotbelow;
lastChange = "2017-12-19 05:21:12 +0000";
layers = (
{
background = {
paths = (
{
closed = 1;
nodes = (
"554 0 LINE",
"571 179 LINE",
"544 179 LINE",
"538 124 OFFCURVE",
"520 40 OFFCURVE",
"456 40 CURVE SMOOTH",
"201 40 LINE",
"201 659 LINE",
"441 659 LINE SMOOTH",
"516 659 OFFCURVE",
"525 567 OFFCURVE",
"528 527 CURVE",
"555 527 LINE",
"555 700 LINE",
"16 700 LINE",
"16 673 LINE",
"44 673 LINE SMOOTH",
"83 673 OFFCURVE",
"103 662 OFFCURVE",
"103 637 CURVE SMOOTH",
"103 62 LINE SMOOTH",
"103 37 OFFCURVE",
"83 26 OFFCURVE",
"44 26 CURVE SMOOTH",
"16 26 LINE",
"16 0 LINE"
);
},
{
closed = 1;
nodes = (
"343 -159 OFFCURVE",
"361 -140 OFFCURVE",
"361 -112 CURVE SMOOTH",
"361 -84 OFFCURVE",
"343 -64 OFFCURVE",
"315 -64 CURVE SMOOTH",
"287 -64 OFFCURVE",
"268 -84 OFFCURVE",
"268 -112 CURVE SMOOTH",
"268 -140 OFFCURVE",
"287 -159 OFFCURVE",
"315 -159 CURVE SMOOTH"
);
},
{
closed = 1;
nodes = (
"455 251 LINE",
"455 485 LINE",
"431 485 LINE",
"427 436 OFFCURVE",
"424 388 OFFCURVE",
"379 388 CURVE SMOOTH",
"162 388 LINE",
"162 348 LINE",
"379 348 LINE SMOOTH",
"424 348 OFFCURVE",
"427 300 OFFCURVE",
"431 251 CURVE"
);
}
);
};
components = (
{
name = E;
},
{
name = dotbelowcomb;
transform = "{1, 0, 0, 1, 565, 0}";
}
);
layerId = "0B1DFD06-3317-40CA-B510-4969A0718C16";
width = 607;
}
);
note = Edotbelow;
unicode = 1EB8;
},
{
glyphname = Egrave;
lastChange = "2017-12-19 05:21:12 +0000";
layers = (
{
background = {
paths = (
{
closed = 1;
nodes = (
"554 0 LINE",
"571 179 LINE",
"544 179 LINE",
"538 124 OFFCURVE",
"520 40 OFFCURVE",
"456 40 CURVE SMOOTH",
"201 40 LINE",
"201 659 LINE",
"441 659 LINE SMOOTH",
"516 659 OFFCURVE",
"525 567 OFFCURVE",
"528 527 CURVE",
"555 527 LINE",
"555 700 LINE",
"16 700 LINE",
"16 673 LINE",
"44 673 LINE SMOOTH",
"83 673 OFFCURVE",
"103 662 OFFCURVE",
"103 637 CURVE SMOOTH",
"103 62 LINE SMOOTH",
"103 37 OFFCURVE",
"83 26 OFFCURVE",
"44 26 CURVE SMOOTH",
"16 26 LINE",
"16 0 LINE"
);
},
{
closed = 1;
nodes = (
"455 251 LINE",
"455 485 LINE",
"431 485 LINE",
"427 436 OFFCURVE",
"424 388 OFFCURVE",
"379 388 CURVE SMOOTH",
"162 388 LINE",
"162 348 LINE",
"379 348 LINE SMOOTH",
"424 348 OFFCURVE",
"427 300 OFFCURVE",
"431 251 CURVE"
);
},
{
closed = 1;
nodes = (
"425 807 LINE",
"310 913 LINE",
"301 922 OFFCURVE",
"285 937 OFFCURVE",
"265 937 CURVE SMOOTH",
"245 937 OFFCURVE",
"233 924 OFFCURVE",
"233 908 CURVE SMOOTH",
"233 890 OFFCURVE",
"245 876 OFFCURVE",
"264 865 CURVE SMOOTH",
"407 782 LINE"
);
}
);
};
components = (
{
name = E;
},
{
name = grave;
transform = "{1, 0, 0, 1, 68, 230}";
}
);
layerId = "0B1DFD06-3317-40CA-B510-4969A0718C16";
width = 607;
}
);
note = Egrave;
unicode = 00C8;
},
{
glyphname = Ehookabove;
lastChange = "2017-12-19 05:21:12 +0000";
layers = (
{
background = {
paths = (
{
closed = 1;
nodes = (
"554 0 LINE",
"571 179 LINE",
"544 179 LINE",
"538 124 OFFCURVE",
"520 40 OFFCURVE",
"456 40 CURVE SMOOTH",
"201 40 LINE",
"201 659 LINE",
"441 659 LINE SMOOTH",
"516 659 OFFCURVE",
"525 567 OFFCURVE",
"528 527 CURVE",
"555 527 LINE",
"555 700 LINE",
"16 700 LINE",
"16 673 LINE",
"44 673 LINE SMOOTH",
"83 673 OFFCURVE",
"103 662 OFFCURVE",
"103 637 CURVE SMOOTH",
"103 62 LINE SMOOTH",
"103 37 OFFCURVE",
"83 26 OFFCURVE",
"44 26 CURVE SMOOTH",
"16 26 LINE",
"16 0 LINE"
);
},
{
closed = 1;
nodes = (
"455 251 LINE",
"455 485 LINE",
"431 485 LINE",
"427 436 OFFCURVE",
"424 388 OFFCURVE",
"379 388 CURVE SMOOTH",
"162 388 LINE",
"162 348 LINE",
"379 348 LINE SMOOTH",
"424 348 OFFCURVE",
"427 300 OFFCURVE",
"431 251 CURVE"
);
},
{
closed = 1;
nodes = (
"367 798 LINE",
"348 805 OFFCURVE",
"336 811 OFFCURVE",
"336 828 CURVE SMOOTH",
"336 861 OFFCURVE",
"425 876 OFFCURVE",
"425 927 CURVE SMOOTH",
"425 969 OFFCURVE",
"389 991 OFFCURVE",
"336 991 CURVE SMOOTH",
"289 991 OFFCURVE",
"248 974 OFFCURVE",
"248 940 CURVE SMOOTH",
"248 923 OFFCURVE",
"256 915 OFFCURVE",
"271 915 CURVE SMOOTH",
"294 915 OFFCURVE",
"296 934 OFFCURVE",
"299 942 CURVE SMOOTH",
"304 956 OFFCURVE",
"321 962 OFFCURVE",
"337 962 CURVE SMOOTH",
"358 962 OFFCURVE",
"371 947 OFFCURVE",
"371 930 CURVE SMOOTH",
"371 885 OFFCURVE",
"289 874 OFFCURVE",
"289 828 CURVE SMOOTH",
"289 801 OFFCURVE",
"307 778 OFFCURVE",
"358 778 CURVE"
);
}
);
};
components = (
{
name = E;
},
{
name = hookabovecomb;
transform = "{1, 0, 0, 1, 565, 230}";
}
);
layerId = "0B1DFD06-3317-40CA-B510-4969A0718C16";
width = 607;
}
);
note = Ehookabove;
unicode = 1EBA;
},
{
glyphname = Emacron;
lastChange = "2017-12-19 05:21:12 +0000";
layers = (
{
background = {
paths = (
{
closed = 1;
nodes = (
"554 0 LINE",
"571 179 LINE",
"544 179 LINE",
"538 124 OFFCURVE",
"520 40 OFFCURVE",
"456 40 CURVE SMOOTH",
"201 40 LINE",
"201 659 LINE",
"441 659 LINE SMOOTH",
"516 659 OFFCURVE",
"525 567 OFFCURVE",
"528 527 CURVE",
"555 527 LINE",
"555 700 LINE",
"16 700 LINE",
"16 673 LINE",
"44 673 LINE SMOOTH",
"83 673 OFFCURVE",
"103 662 OFFCURVE",
"103 637 CURVE SMOOTH",
"103 62 LINE SMOOTH",
"103 37 OFFCURVE",
"83 26 OFFCURVE",
"44 26 CURVE SMOOTH",
"16 26 LINE",
"16 0 LINE"
);
},
{
closed = 1;
nodes = (
"455 251 LINE",
"455 485 LINE",
"431 485 LINE",
"427 436 OFFCURVE",
"424 388 OFFCURVE",
"379 388 CURVE SMOOTH",
"162 388 LINE",
"162 348 LINE",
"379 348 LINE SMOOTH",
"424 348 OFFCURVE",
"427 300 OFFCURVE",
"431 251 CURVE"
);
},
{
closed = 1;
nodes = (
"495 782 LINE",
"495 824 LINE",
"162 824 LINE",
"162 782 LINE"
);
}
);
};
components = (
{
name = E;
},
{
name = macron;
transform = "{1, 0, 0, 1, 68, 230}";
}
);
layerId = "0B1DFD06-3317-40CA-B510-4969A0718C16";
width = 607;
}
);
note = Emacron;
unicode = 0112;
},
{
glyphname = Eogonek;
lastChange = "2017-12-19 05:21:12 +0000";
layers = (
{
background = {
paths = (
{
closed = 1;
nodes = (
"554 0 LINE",
"571 179 LINE",
"544 179 LINE",
"538 124 OFFCURVE",
"520 40 OFFCURVE",
"456 40 CURVE SMOOTH",
"201 40 LINE",
"201 659 LINE",
"441 659 LINE SMOOTH",
"516 659 OFFCURVE",
"525 567 OFFCURVE",
"528 527 CURVE",
"555 527 LINE",
"555 700 LINE",
"16 700 LINE",
"16 673 LINE",
"44 673 LINE SMOOTH",
"83 673 OFFCURVE",
"103 662 OFFCURVE",
"103 637 CURVE SMOOTH",
"103 62 LINE SMOOTH",
"103 37 OFFCURVE",
"83 26 OFFCURVE",
"44 26 CURVE SMOOTH",
"16 26 LINE",
"16 0 LINE"
);
},
{
closed = 1;
nodes = (
"496 -196 OFFCURVE",
"524 -189 OFFCURVE",
"549 -172 CURVE",
"543 -152 LINE",
"527 -158 OFFCURVE",
"510 -162 OFFCURVE",
"497 -162 CURVE SMOOTH",
"464 -162 OFFCURVE",
"437 -146 OFFCURVE",
"437 -106 CURVE SMOOTH",
"437 -66 OFFCURVE",
"464 -26 OFFCURVE",
"510 4 CURVE",
"469 4 LINE",
"416 -22 OFFCURVE",
"376 -64 OFFCURVE",
"376 -114 CURVE SMOOTH",
"376 -147 OFFCURVE",
"395 -196 OFFCURVE",
"470 -196 CURVE SMOOTH"
);
},
{
closed = 1;
nodes = (
"455 251 LINE",
"455 485 LINE",
"431 485 LINE",
"427 436 OFFCURVE",
"424 388 OFFCURVE",
"379 388 CURVE SMOOTH",
"162 388 LINE",
"162 348 LINE",
"379 348 LINE SMOOTH",
"424 348 OFFCURVE",
"427 300 OFFCURVE",
"431 251 CURVE"
);
}
);
};
components = (
{
name = E;
},
{
name = ogonek;
transform = "{1, 0, 0, 1, 256, 0}";
}
);
layerId = "0B1DFD06-3317-40CA-B510-4969A0718C16";
width = 607;
}
);
note = Eogonek;
unicode = 0118;
},
{
glyphname = Etilde;
lastChange = "2017-12-19 05:21:12 +0000";
layers = (
{
background = {
paths = (
{
closed = 1;
nodes = (
"554 0 LINE",
"571 179 LINE",
"544 179 LINE",
"538 124 OFFCURVE",
"520 40 OFFCURVE",
"456 40 CURVE SMOOTH",
"201 40 LINE",
"201 659 LINE",
"441 659 LINE SMOOTH",
"516 659 OFFCURVE",
"525 567 OFFCURVE",
"528 527 CURVE",
"555 527 LINE",
"555 700 LINE",
"16 700 LINE",
"16 673 LINE",
"44 673 LINE SMOOTH",
"83 673 OFFCURVE",
"103 662 OFFCURVE",
"103 637 CURVE SMOOTH",
"103 62 LINE SMOOTH",
"103 37 OFFCURVE",
"83 26 OFFCURVE",
"44 26 CURVE SMOOTH",
"16 26 LINE",
"16 0 LINE"
);
},
{
closed = 1;
nodes = (
"455 251 LINE",
"455 485 LINE",
"431 485 LINE",
"427 436 OFFCURVE",
"424 388 OFFCURVE",
"379 388 CURVE SMOOTH",
"162 388 LINE",
"162 348 LINE",
"379 348 LINE SMOOTH",
"424 348 OFFCURVE",
"427 300 OFFCURVE",
"431 251 CURVE"
);
},
{
closed = 1;
nodes = (
"190 817 OFFCURVE",
"208 838 OFFCURVE",
"241 838 CURVE SMOOTH",
"292 838 OFFCURVE",
"341 784 OFFCURVE",
"392 784 CURVE SMOOTH",
"450 784 OFFCURVE",
"480 832 OFFCURVE",
"492 884 CURVE",
"471 895 LINE",
"455 855 OFFCURVE",
"439 833 OFFCURVE",
"405 833 CURVE SMOOTH",
"356 833 OFFCURVE",
"304 886 OFFCURVE",
"253 886 CURVE SMOOTH",
"199 886 OFFCURVE",
"166 842 OFFCURVE",
"154 790 CURVE",
"176 779 LINE"
);
}
);
};
components = (
{
name = E;
},
{
name = tilde;
transform = "{1, 0, 0, 1, 68, 230}";
}
);
layerId = "0B1DFD06-3317-40CA-B510-4969A0718C16";
width = 607;
}
);
note = Etilde;
unicode = 1EBC;
},
{
glyphname = Hbar;
lastChange = "2017-12-19 05:21:12 +0000";
layers = (
{
components = (
{
name = H;
}
);
layerId = "0B1DFD06-3317-40CA-B510-4969A0718C16";
paths = (
{
closed = 1;
nodes = (
"719 504 LINE",
"719 544 LINE",
"43 544 LINE",
"43 504 LINE"
);
}
);
width = 773;
}
);
note = Hbar;
unicode = 0126;
},
{
glyphname = Lslash;
lastChange = "2017-12-19 07:30:19 +0000";
layers = (
{
layerId = "0B1DFD06-3317-40CA-B510-4969A0718C16";
paths = (
{
closed = 1;
nodes = (
"490 49 LINE",
"146 49 LINE",
"146 304 LINE",
"465 401 LINE",
"465 456 LINE",
"146 354 LINE",
"146 700 LINE",
"88 700 LINE",
"88 335 LINE",
"26 316 LINE",
"40 270 LINE",
"88 285 LINE",
"88 0 LINE",
"490 0 LINE"
);
}
);
width = 531;
}
);
note = Lslash;
unicode = 0141;
},
{
glyphname = Nacute;
lastChange = "2017-12-19 05:21:12 +0000";
layers = (
{
background = {
paths = (
{
closed = 1;
nodes = (
"247 0 LINE",
"247 26 LINE",
"217 26 LINE SMOOTH",
"179 26 OFFCURVE",
"159 37 OFFCURVE",
"159 62 CURVE SMOOTH",
"159 642 LINE",
"587 0 LINE",
"645 0 LINE",
"645 637 LINE SMOOTH",
"645 662 OFFCURVE",
"665 673 OFFCURVE",
"703 673 CURVE SMOOTH",
"733 673 LINE",
"733 700 LINE",
"508 700 LINE",
"508 673 LINE",
"537 673 LINE SMOOTH",
"576 673 OFFCURVE",
"595 662 OFFCURVE",
"595 637 CURVE SMOOTH",
"595 126 LINE",
"217 700 LINE",
"22 700 LINE",
"22 673 LINE",
"51 673 LINE SMOOTH",
"90 673 OFFCURVE",
"109 662 OFFCURVE",
"109 637 CURVE SMOOTH",
"109 62 LINE SMOOTH",
"109 37 OFFCURVE",
"90 26 OFFCURVE",
"51 26 CURVE SMOOTH",
"22 26 LINE",
"22 0 LINE"
);
},
{
closed = 1;
nodes = (
"458 865 LINE SMOOTH",
"480 877 OFFCURVE",
"492 890 OFFCURVE",
"492 907 CURVE SMOOTH",
"492 922 OFFCURVE",
"480 937 OFFCURVE",
"458 937 CURVE SMOOTH",
"437 937 OFFCURVE",
"422 921 OFFCURVE",
"414 914 CURVE SMOOTH",
"299 807 LINE",
"316 782 LINE"
);
}
);
};
components = (
{
name = N;
},
{
name = acute;
transform = "{1, 0, 0, 1, 120, 230}";
}
);
layerId = "0B1DFD06-3317-40CA-B510-4969A0718C16";
width = 755;
}
);
note = Nacute;
unicode = 0143;
},
{
glyphname = Ncaron;
lastChange = "2017-12-19 05:21:12 +0000";
layers = (
{
background = {
paths = (
{
closed = 1;
nodes = (
"247 0 LINE",
"247 26 LINE",
"217 26 LINE SMOOTH",
"179 26 OFFCURVE",
"159 37 OFFCURVE",
"159 62 CURVE SMOOTH",
"159 642 LINE",
"587 0 LINE",
"645 0 LINE",
"645 637 LINE SMOOTH",
"645 662 OFFCURVE",
"665 673 OFFCURVE",
"703 673 CURVE SMOOTH",
"733 673 LINE",
"733 700 LINE",
"508 700 LINE",
"508 673 LINE",
"537 673 LINE SMOOTH",
"576 673 OFFCURVE",
"595 662 OFFCURVE",
"595 637 CURVE SMOOTH",
"595 126 LINE",
"217 700 LINE",
"22 700 LINE",
"22 673 LINE",
"51 673 LINE SMOOTH",
"90 673 OFFCURVE",
"109 662 OFFCURVE",
"109 637 CURVE SMOOTH",
"109 62 LINE SMOOTH",
"109 37 OFFCURVE",
"90 26 OFFCURVE",
"51 26 CURVE SMOOTH",
"22 26 LINE",
"22 0 LINE"
);
},
{
closed = 1;
nodes = (
"403 782 LINE",
"527 911 LINE",
"508 932 LINE",
"400 847 LINE",
"392 840 OFFCURVE",
"383 836 OFFCURVE",
"377 836 CURVE SMOOTH",
"371 836 OFFCURVE",
"363 840 OFFCURVE",
"353 847 CURVE",
"245 932 LINE",
"226 911 LINE",
"350 782 LINE"
);
}
);
};
components = (
{
name = N;
},
{
name = caron;
transform = "{1, 0, 0, 1, 132, 230}";
}
);
layerId = "0B1DFD06-3317-40CA-B510-4969A0718C16";
width = 755;
}
);
note = Ncaron;
unicode = 0147;
},
{
glyphname = Ncommaaccent;
lastChange = "2017-12-19 05:21:12 +0000";
layers = (
{
background = {
paths = (
{
closed = 1;
nodes = (
"247 0 LINE",
"247 26 LINE",
"217 26 LINE SMOOTH",
"179 26 OFFCURVE",
"159 37 OFFCURVE",
"159 62 CURVE SMOOTH",
"159 642 LINE",
"587 0 LINE",
"645 0 LINE",
"645 637 LINE SMOOTH",
"645 662 OFFCURVE",
"665 673 OFFCURVE",
"703 673 CURVE SMOOTH",
"733 673 LINE",
"733 700 LINE",
"508 700 LINE",
"508 673 LINE",
"537 673 LINE SMOOTH",
"576 673 OFFCURVE",
"595 662 OFFCURVE",
"595 637 CURVE SMOOTH",
"595 126 LINE",
"217 700 LINE",
"22 700 LINE",
"22 673 LINE",
"51 673 LINE SMOOTH",
"90 673 OFFCURVE",
"109 662 OFFCURVE",
"109 637 CURVE SMOOTH",
"109 62 LINE SMOOTH",
"109 37 OFFCURVE",
"90 26 OFFCURVE",
"51 26 CURVE SMOOTH",
"22 26 LINE",
"22 0 LINE"
);
},
{
closed = 1;
nodes = (
"369 -258 OFFCURVE",
"413 -198 OFFCURVE",
"413 -135 CURVE SMOOTH",
"413 -87 OFFCURVE",
"389 -67 OFFCURVE",
"360 -67 CURVE SMOOTH",
"331 -67 OFFCURVE",
"314 -87 OFFCURVE",
"314 -111 CURVE SMOOTH",
"314 -145 OFFCURVE",
"349 -152 OFFCURVE",
"349 -187 CURVE SMOOTH",
"349 -223 OFFCURVE",
"323 -256 OFFCURVE",
"296 -282 CURVE",
"313 -299 LINE"
);
}
);
};
components = (
{
name = N;
},
{
name = commaaccentcomb;
}
);
layerId = "0B1DFD06-3317-40CA-B510-4969A0718C16";
width = 707;
}
);
note = Ncommaaccent;
unicode = 0145;
},
{
glyphname = Ndotaccent;
lastChange = "2017-12-19 05:21:12 +0000";
layers = (
{
background = {
paths = (
{
closed = 1;
nodes = (
"247 0 LINE",
"247 26 LINE",
"217 26 LINE SMOOTH",
"179 26 OFFCURVE",
"159 37 OFFCURVE",
"159 62 CURVE SMOOTH",
"159 642 LINE",
"587 0 LINE",
"645 0 LINE",
"645 637 LINE SMOOTH",
"645 662 OFFCURVE",
"665 673 OFFCURVE",
"703 673 CURVE SMOOTH",
"733 673 LINE",
"733 700 LINE",
"508 700 LINE",
"508 673 LINE",
"537 673 LINE SMOOTH",
"576 673 OFFCURVE",
"595 662 OFFCURVE",
"595 637 CURVE SMOOTH",
"595 126 LINE",
"217 700 LINE",
"22 700 LINE",
"22 673 LINE",
"51 673 LINE SMOOTH",
"90 673 OFFCURVE",
"109 662 OFFCURVE",
"109 637 CURVE SMOOTH",
"109 62 LINE SMOOTH",
"109 37 OFFCURVE",
"90 26 OFFCURVE",
"51 26 CURVE SMOOTH",
"22 26 LINE",
"22 0 LINE"
);
},
{
closed = 1;
nodes = (
"405 765 OFFCURVE",
"423 784 OFFCURVE",
"423 811 CURVE SMOOTH",
"423 839 OFFCURVE",
"405 858 OFFCURVE",
"377 858 CURVE SMOOTH",
"348 858 OFFCURVE",
"330 839 OFFCURVE",
"330 811 CURVE SMOOTH",
"330 784 OFFCURVE",
"348 765 OFFCURVE",
"377 765 CURVE SMOOTH"
);
}
);
};
components = (
{
name = N;
},
{
name = dotaccent;
transform = "{1, 0, 0, 1, 132, 230}";
}
);
layerId = "0B1DFD06-3317-40CA-B510-4969A0718C16";
width = 755;
}
);
note = Ndotaccent;
unicode = 1E44;
},
{
glyphname = Ndotbelow;
lastChange = "2017-12-19 05:21:12 +0000";
layers = (
{
background = {
paths = (
{
closed = 1;
nodes = (
"247 0 LINE",
"247 26 LINE",
"217 26 LINE SMOOTH",
"179 26 OFFCURVE",
"159 37 OFFCURVE",
"159 62 CURVE SMOOTH",
"159 642 LINE",
"587 0 LINE",
"645 0 LINE",
"645 637 LINE SMOOTH",
"645 662 OFFCURVE",
"665 673 OFFCURVE",
"703 673 CURVE SMOOTH",
"733 673 LINE",
"733 700 LINE",
"508 700 LINE",
"508 673 LINE",
"537 673 LINE SMOOTH",
"576 673 OFFCURVE",
"595 662 OFFCURVE",
"595 637 CURVE SMOOTH",
"595 126 LINE",
"217 700 LINE",
"22 700 LINE",
"22 673 LINE",
"51 673 LINE SMOOTH",
"90 673 OFFCURVE",
"109 662 OFFCURVE",
"109 637 CURVE SMOOTH",
"109 62 LINE SMOOTH",
"109 37 OFFCURVE",
"90 26 OFFCURVE",
"51 26 CURVE SMOOTH",
"22 26 LINE",
"22 0 LINE"
);
},
{
closed = 1;
nodes = (
"415 -159 OFFCURVE",
"433 -140 OFFCURVE",
"433 -112 CURVE SMOOTH",
"433 -84 OFFCURVE",
"415 -64 OFFCURVE",
"387 -64 CURVE SMOOTH",
"359 -64 OFFCURVE",
"340 -84 OFFCURVE",
"340 -112 CURVE SMOOTH",
"340 -140 OFFCURVE",
"359 -159 OFFCURVE",
"387 -159 CURVE SMOOTH"
);
}
);
};
components = (
{
name = N;
},
{
name = dotbelowcomb;
transform = "{1, 0, 0, 1, 629, 0}";
}
);
layerId = "0B1DFD06-3317-40CA-B510-4969A0718C16";
width = 755;
}
);
note = uni1E46;
unicode = 1E46;
},
{
color = 0;
glyphname = Eng;
lastChange = "2017-12-19 05:23:35 +0000";
layers = (
{
background = {
paths = (
{
closed = 1;
nodes = (
"592 -259 OFFCURVE",
"645 -182 OFFCURVE",
"645 -36 CURVE SMOOTH",
"645 637 LINE SMOOTH",
"645 662 OFFCURVE",
"665 673 OFFCURVE",
"703 673 CURVE SMOOTH",
"733 673 LINE",
"733 700 LINE",
"508 700 LINE",
"508 673 LINE",
"537 673 LINE SMOOTH",
"576 673 OFFCURVE",
"595 662 OFFCURVE",
"595 637 CURVE SMOOTH",
"595 125 LINE",
"219 700 LINE",
"22 700 LINE",
"22 673 LINE",
"51 673 LINE SMOOTH",
"90 673 OFFCURVE",
"109 662 OFFCURVE",
"109 637 CURVE SMOOTH",
"109 62 LINE SMOOTH",
"109 37 OFFCURVE",
"93 26 OFFCURVE",
"51 26 CURVE SMOOTH",
"22 26 LINE",
"22 0 LINE",
"247 0 LINE",
"247 26 LINE",
"217 26 LINE SMOOTH",
"179 26 OFFCURVE",
"159 37 OFFCURVE",
"159 62 CURVE SMOOTH",
"159 647 LINE",
"586 0 LINE",
"586 -76 LINE SMOOTH",
"586 -173 OFFCURVE",
"510 -238 OFFCURVE",
"423 -243 CURVE",
"427 -268 LINE"
);
}
);
};
layerId = "0B1DFD06-3317-40CA-B510-4969A0718C16";
paths = (
{
closed = 1;
nodes = (
"592 -259 OFFCURVE",
"645 -182 OFFCURVE",
"645 -36 CURVE SMOOTH",
"645 637 LINE SMOOTH",
"645 662 OFFCURVE",
"665 673 OFFCURVE",
"703 673 CURVE SMOOTH",
"733 673 LINE",
"733 700 LINE",
"508 700 LINE",
"508 673 LINE",
"537 673 LINE SMOOTH",
"576 673 OFFCURVE",
"595 662 OFFCURVE",
"595 637 CURVE SMOOTH",
"595 125 LINE",
"219 700 LINE",
"22 700 LINE",
"22 673 LINE",
"51 673 LINE SMOOTH",
"90 673 OFFCURVE",
"109 662 OFFCURVE",
"109 637 CURVE SMOOTH",
"109 62 LINE SMOOTH",
"109 37 OFFCURVE",
"93 26 OFFCURVE",
"51 26 CURVE SMOOTH",
"22 26 LINE",
"22 0 LINE",
"247 0 LINE",
"247 26 LINE",
"217 26 LINE SMOOTH",
"179 26 OFFCURVE",
"159 37 OFFCURVE",
"159 62 CURVE SMOOTH",
"159 647 LINE",
"586 0 LINE",
"586 -76 LINE SMOOTH",
"586 -173 OFFCURVE",
"510 -238 OFFCURVE",
"423 -243 CURVE",
"427 -268 LINE"
);
}
);
width = 755;
}
);
note = Eng;
unicode = 014A;
},
{
glyphname = Nlinebelow;
lastChange = "2017-12-19 05:21:12 +0000";
layers = (
{
background = {
paths = (
{
closed = 1;
nodes = (
"247 0 LINE",
"247 26 LINE",
"217 26 LINE SMOOTH",
"179 26 OFFCURVE",
"159 37 OFFCURVE",
"159 62 CURVE SMOOTH",
"159 642 LINE",
"587 0 LINE",
"645 0 LINE",
"645 637 LINE SMOOTH",
"645 662 OFFCURVE",
"665 673 OFFCURVE",
"703 673 CURVE SMOOTH",
"733 673 LINE",
"733 700 LINE",
"508 700 LINE",
"508 673 LINE",
"537 673 LINE SMOOTH",
"576 673 OFFCURVE",
"595 662 OFFCURVE",
"595 637 CURVE SMOOTH",
"595 126 LINE",
"217 700 LINE",
"22 700 LINE",
"22 673 LINE",
"51 673 LINE SMOOTH",
"90 673 OFFCURVE",
"109 662 OFFCURVE",
"109 637 CURVE SMOOTH",
"109 62 LINE SMOOTH",
"109 37 OFFCURVE",
"90 26 OFFCURVE",
"51 26 CURVE SMOOTH",
"22 26 LINE",
"22 0 LINE"
);
},
{
closed = 1;
nodes = (
"542 -110 LINE",
"542 -72 LINE",
"210 -72 LINE",
"210 -110 LINE"
);
}
);
};
components = (
{
name = N;
},
{
name = macronbelowcomb;
transform = "{1, 0, 0, 1, 378, 0}";
}
);
layerId = "0B1DFD06-3317-40CA-B510-4969A0718C16";
width = 755;
}
);
note = Nlinebelow;
unicode = 1E48;
},
{
glyphname = Ntilde;
lastChange = "2017-12-19 05:21:12 +0000";
layers = (
{
background = {
paths = (
{
closed = 1;
nodes = (
"247 0 LINE",
"247 26 LINE",
"217 26 LINE SMOOTH",
"179 26 OFFCURVE",
"159 37 OFFCURVE",
"159 62 CURVE SMOOTH",
"159 642 LINE",
"587 0 LINE",
"645 0 LINE",
"645 637 LINE SMOOTH",
"645 662 OFFCURVE",
"665 673 OFFCURVE",
"703 673 CURVE SMOOTH",
"733 673 LINE",
"733 700 LINE",
"508 700 LINE",
"508 673 LINE",
"537 673 LINE SMOOTH",
"576 673 OFFCURVE",
"595 662 OFFCURVE",
"595 637 CURVE SMOOTH",
"595 126 LINE",
"217 700 LINE",
"22 700 LINE",
"22 673 LINE",
"51 673 LINE SMOOTH",
"90 673 OFFCURVE",
"109 662 OFFCURVE",
"109 637 CURVE SMOOTH",
"109 62 LINE SMOOTH",
"109 37 OFFCURVE",
"90 26 OFFCURVE",
"51 26 CURVE SMOOTH",
"22 26 LINE",
"22 0 LINE"
);
},
{
closed = 1;
nodes = (
"254 818 OFFCURVE",
"272 839 OFFCURVE",
"305 839 CURVE SMOOTH",
"356 839 OFFCURVE",
"405 785 OFFCURVE",
"456 785 CURVE SMOOTH",
"514 785 OFFCURVE",
"544 833 OFFCURVE",
"556 885 CURVE",
"535 896 LINE",
"519 856 OFFCURVE",
"503 834 OFFCURVE",
"469 834 CURVE SMOOTH",
"420 834 OFFCURVE",
"368 887 OFFCURVE",
"317 887 CURVE SMOOTH",
"263 887 OFFCURVE",
"230 843 OFFCURVE",
"218 791 CURVE",
"240 780 LINE"
);
}
);
};
components = (
{
name = N;
},
{
name = tilde;
transform = "{1, 0, 0, 1, 132, 230}";
}
);
layerId = "0B1DFD06-3317-40CA-B510-4969A0718C16";
width = 755;
}
);
note = Ntilde;
unicode = 00D1;
},
{
glyphname = Oacute;
lastChange = "2017-12-19 05:21:12 +0000";
layers = (
{
background = {
paths = (
{
closed = 1;
nodes = (
"601 -10 OFFCURVE",
"719 124 OFFCURVE",
"719 350 CURVE SMOOTH",
"719 574 OFFCURVE",
"601 710 OFFCURVE",
"378 710 CURVE SMOOTH",
"154 710 OFFCURVE",
"36 574 OFFCURVE",
"36 350 CURVE SMOOTH",
"36 124 OFFCURVE",
"154 -10 OFFCURVE",
"378 -10 CURVE SMOOTH"
);
},
{
closed = 1;
nodes = (
"215 32 OFFCURVE",
"135 158 OFFCURVE",
"135 350 CURVE SMOOTH",
"135 541 OFFCURVE",
"215 668 OFFCURVE",
"377 668 CURVE SMOOTH",
"541 668 OFFCURVE",
"620 541 OFFCURVE",
"620 350 CURVE SMOOTH",
"620 158 OFFCURVE",
"541 32 OFFCURVE",
"377 32 CURVE SMOOTH"
);
},
{
closed = 1;
nodes = (
"440 865 LINE SMOOTH",
"462 877 OFFCURVE",
"474 890 OFFCURVE",
"474 907 CURVE SMOOTH",
"474 922 OFFCURVE",
"462 937 OFFCURVE",
"440 937 CURVE SMOOTH",
"419 937 OFFCURVE",
"404 921 OFFCURVE",
"396 914 CURVE SMOOTH",
"281 807 LINE",
"298 782 LINE"
);
}
);
};
components = (
{
name = O;
},
{
name = acute;
transform = "{1, 0, 0, 1, 120, 230}";
}
);
layerId = "0B1DFD06-3317-40CA-B510-4969A0718C16";
width = 755;
}
);
leftKerningGroup = O;
note = Oacute;
rightKerningGroup = O;
unicode = 00D3;
},
{
glyphname = Obreve;
lastChange = "2017-12-19 05:21:12 +0000";
layers = (
{
background = {
paths = (
{
closed = 1;
nodes = (
"601 -10 OFFCURVE",
"719 124 OFFCURVE",
"719 350 CURVE SMOOTH",
"719 574 OFFCURVE",
"601 710 OFFCURVE",
"378 710 CURVE SMOOTH",
"154 710 OFFCURVE",
"36 574 OFFCURVE",
"36 350 CURVE SMOOTH",
"36 124 OFFCURVE",
"154 -10 OFFCURVE",
"378 -10 CURVE SMOOTH"
);
},
{
closed = 1;
nodes = (
"215 32 OFFCURVE",
"135 158 OFFCURVE",
"135 350 CURVE SMOOTH",
"135 541 OFFCURVE",
"215 668 OFFCURVE",
"377 668 CURVE SMOOTH",
"541 668 OFFCURVE",
"620 541 OFFCURVE",
"620 350 CURVE SMOOTH",
"620 158 OFFCURVE",
"541 32 OFFCURVE",
"377 32 CURVE SMOOTH"
);
},
{
closed = 1;
nodes = (
"477 774 OFFCURVE",
"519 830 OFFCURVE",
"523 905 CURVE",
"490 905 LINE",
"484 846 OFFCURVE",
"442 820 OFFCURVE",
"378 820 CURVE SMOOTH",
"314 820 OFFCURVE",
"271 846 OFFCURVE",
"264 905 CURVE",
"231 905 LINE",
"235 827 OFFCURVE",
"277 774 OFFCURVE",
"378 774 CURVE SMOOTH"
);
}
);
};
components = (
{
name = O;
},
{
name = breve;
transform = "{1, 0, 0, 1, 132, 230}";
}
);
layerId = "0B1DFD06-3317-40CA-B510-4969A0718C16";
width = 755;
}
);
leftKerningGroup = O;
note = Obreve;
rightKerningGroup = O;
unicode = 014E;
},
{
glyphname = Ocaron;
lastChange = "2017-12-19 05:21:12 +0000";
layers = (
{
background = {
paths = (
{
closed = 1;
nodes = (
"601 -10 OFFCURVE",
"719 124 OFFCURVE",
"719 350 CURVE SMOOTH",
"719 574 OFFCURVE",
"601 710 OFFCURVE",
"378 710 CURVE SMOOTH",
"154 710 OFFCURVE",
"36 574 OFFCURVE",
"36 350 CURVE SMOOTH",
"36 124 OFFCURVE",
"154 -10 OFFCURVE",
"378 -10 CURVE SMOOTH"
);
},
{
closed = 1;
nodes = (
"215 32 OFFCURVE",
"135 158 OFFCURVE",
"135 350 CURVE SMOOTH",
"135 541 OFFCURVE",
"215 668 OFFCURVE",
"377 668 CURVE SMOOTH",
"541 668 OFFCURVE",
"620 541 OFFCURVE",
"620 350 CURVE SMOOTH",
"620 158 OFFCURVE",
"541 32 OFFCURVE",
"377 32 CURVE SMOOTH"
);
},
{
closed = 1;
nodes = (
"404 782 LINE",
"528 911 LINE",
"509 932 LINE",
"401 847 LINE",
"393 840 OFFCURVE",
"384 836 OFFCURVE",
"378 836 CURVE SMOOTH",
"372 836 OFFCURVE",
"364 840 OFFCURVE",
"354 847 CURVE",
"246 932 LINE",
"227 911 LINE",
"351 782 LINE"
);
}
);
};
components = (
{
name = O;
},
{
name = caron;
transform = "{1, 0, 0, 1, 132, 230}";
}
);
layerId = "0B1DFD06-3317-40CA-B510-4969A0718C16";
width = 755;
}
);
leftKerningGroup = O;
note = Ocaron;
rightKerningGroup = O;
unicode = 01D1;
},
{
glyphname = Ocircumflex;
lastChange = "2017-12-19 05:21:12 +0000";
layers = (
{
background = {
paths = (
{
closed = 1;
nodes = (
"601 -10 OFFCURVE",
"719 124 OFFCURVE",
"719 350 CURVE SMOOTH",
"719 574 OFFCURVE",
"601 710 OFFCURVE",
"378 710 CURVE SMOOTH",
"154 710 OFFCURVE",
"36 574 OFFCURVE",
"36 350 CURVE SMOOTH",
"36 124 OFFCURVE",
"154 -10 OFFCURVE",
"378 -10 CURVE SMOOTH"
);
},
{
closed = 1;
nodes = (
"215 32 OFFCURVE",
"135 158 OFFCURVE",
"135 350 CURVE SMOOTH",
"135 541 OFFCURVE",
"215 668 OFFCURVE",
"377 668 CURVE SMOOTH",
"541 668 OFFCURVE",
"620 541 OFFCURVE",
"620 350 CURVE SMOOTH",
"620 158 OFFCURVE",
"541 32 OFFCURVE",
"377 32 CURVE SMOOTH"
);
},
{
closed = 1;
nodes = (
"354 868 LINE SMOOTH",
"362 874 OFFCURVE",
"372 879 OFFCURVE",
"378 879 CURVE SMOOTH",
"384 879 OFFCURVE",
"392 874 OFFCURVE",
"401 868 CURVE",
"509 782 LINE",
"528 803 LINE",
"404 932 LINE",
"351 932 LINE",
"227 803 LINE",
"246 782 LINE"
);
}
);
};
components = (
{
name = O;
},
{
name = circumflex;
transform = "{1, 0, 0, 1, 132, 230}";
}
);
layerId = "0B1DFD06-3317-40CA-B510-4969A0718C16";
width = 755;
}
);
leftKerningGroup = O;
note = Ocircumflex;
rightKerningGroup = O;
unicode = 00D4;
},
{
glyphname = Ocircumflexacute;
lastChange = "2017-12-19 05:21:12 +0000";
layers = (
{
background = {
paths = (
{
closed = 1;
nodes = (
"601 -10 OFFCURVE",
"719 124 OFFCURVE",
"719 350 CURVE SMOOTH",
"719 574 OFFCURVE",
"601 710 OFFCURVE",
"378 710 CURVE SMOOTH",
"154 710 OFFCURVE",
"36 574 OFFCURVE",
"36 350 CURVE SMOOTH",
"36 124 OFFCURVE",
"154 -10 OFFCURVE",
"378 -10 CURVE SMOOTH"
);
},
{
closed = 1;
nodes = (
"215 32 OFFCURVE",
"135 158 OFFCURVE",
"135 350 CURVE SMOOTH",
"135 541 OFFCURVE",
"215 668 OFFCURVE",
"377 668 CURVE SMOOTH",
"541 668 OFFCURVE",
"620 541 OFFCURVE",
"620 350 CURVE SMOOTH",
"620 158 OFFCURVE",
"541 32 OFFCURVE",
"377 32 CURVE SMOOTH"
);
},
{
closed = 1;
nodes = (
"348 861 LINE SMOOTH",
"358 869 OFFCURVE",
"368 877 OFFCURVE",
"376 877 CURVE SMOOTH",
"382 877 OFFCURVE",
"390 872 OFFCURVE",
"399 866 CURVE",
"505 780 LINE",
"524 802 LINE",
"402 931 LINE",
"351 931 LINE",
"229 802 LINE",
"247 780 LINE"
);
},
{
closed = 1;
nodes = (
"613 959 LINE SMOOTH",
"636 971 OFFCURVE",
"649 987 OFFCURVE",
"649 1002 CURVE SMOOTH",
"649 1016 OFFCURVE",
"638 1033 OFFCURVE",
"615 1033 CURVE SMOOTH",
"596 1033 OFFCURVE",
"579 1017 OFFCURVE",
"569 1007 CURVE SMOOTH",
"473 914 LINE",
"491 892 LINE"
);
}
);
};
components = (
{
name = O;
},
{
name = circumflexacute;
transform = "{1, 0, 0, 1, 628, 230}";
}
);
layerId = "0B1DFD06-3317-40CA-B510-4969A0718C16";
width = 755;
}
);
leftKerningGroup = O;
note = Ocircumflexacute;
rightKerningGroup = O;
unicode = 1ED0;
},
{
glyphname = Ocircumflexdotbelow;
lastChange = "2017-12-19 05:21:12 +0000";
layers = (
{
background = {
paths = (
{
closed = 1;
nodes = (
"36 124 OFFCURVE",
"154 -10 OFFCURVE",
"378 -10 CURVE SMOOTH",
"601 -10 OFFCURVE",
"719 124 OFFCURVE",
"719 350 CURVE SMOOTH",
"719 574 OFFCURVE",
"601 710 OFFCURVE",
"378 710 CURVE SMOOTH",
"154 710 OFFCURVE",
"36 574 OFFCURVE",
"36 350 CURVE SMOOTH"
);
},
{
closed = 1;
nodes = (
"135 541 OFFCURVE",
"215 668 OFFCURVE",
"377 668 CURVE SMOOTH",
"541 668 OFFCURVE",
"620 541 OFFCURVE",
"620 350 CURVE SMOOTH",
"620 158 OFFCURVE",
"541 32 OFFCURVE",
"377 32 CURVE SMOOTH",
"215 32 OFFCURVE",
"135 158 OFFCURVE",
"135 350 CURVE SMOOTH"
);
},
{
closed = 1;
nodes = (
"245 782 LINE",
"353 868 LINE SMOOTH",
"361 874 OFFCURVE",
"371 879 OFFCURVE",
"377 879 CURVE SMOOTH",
"383 879 OFFCURVE",
"391 874 OFFCURVE",
"400 868 CURVE",
"508 782 LINE",
"527 803 LINE",
"403 932 LINE",
"350 932 LINE",
"226 803 LINE"
);
},
{
closed = 1;
nodes = (
"330 -140 OFFCURVE",
"349 -159 OFFCURVE",
"377 -159 CURVE SMOOTH",
"405 -159 OFFCURVE",
"423 -140 OFFCURVE",
"423 -112 CURVE SMOOTH",
"423 -84 OFFCURVE",
"405 -64 OFFCURVE",
"377 -64 CURVE SMOOTH",
"349 -64 OFFCURVE",
"330 -84 OFFCURVE",
"330 -112 CURVE SMOOTH"
);
}
);
};
components = (
{
name = O;
},
{
name = dotbelowcomb;
transform = "{1, 0, 0, 1, 629, 0}";
},
{
name = circumflex;
transform = "{1, 0, 0, 1, 132, 230}";
}
);
layerId = "0B1DFD06-3317-40CA-B510-4969A0718C16";
width = 755;
}
);
leftKerningGroup = O;
note = Ocircumflexdotbelow;
rightKerningGroup = O;
unicode = 1ED8;
},
{
glyphname = Ocircumflexgrave;
lastChange = "2017-12-19 05:21:12 +0000";
layers = (
{
background = {
paths = (
{
closed = 1;
nodes = (
"601 -10 OFFCURVE",
"719 124 OFFCURVE",
"719 350 CURVE SMOOTH",
"719 574 OFFCURVE",
"601 710 OFFCURVE",
"378 710 CURVE SMOOTH",
"154 710 OFFCURVE",
"36 574 OFFCURVE",
"36 350 CURVE SMOOTH",
"36 124 OFFCURVE",
"154 -10 OFFCURVE",
"378 -10 CURVE SMOOTH"
);
},
{
closed = 1;
nodes = (
"215 32 OFFCURVE",
"135 158 OFFCURVE",
"135 350 CURVE SMOOTH",
"135 541 OFFCURVE",
"215 668 OFFCURVE",
"377 668 CURVE SMOOTH",
"541 668 OFFCURVE",
"620 541 OFFCURVE",
"620 350 CURVE SMOOTH",
"620 158 OFFCURVE",
"541 32 OFFCURVE",
"377 32 CURVE SMOOTH"
);
},
{
closed = 1;
nodes = (
"285 914 LINE",
"190 1007 LINE SMOOTH",
"180 1017 OFFCURVE",
"163 1033 OFFCURVE",
"143 1033 CURVE SMOOTH",
"121 1033 OFFCURVE",
"110 1016 OFFCURVE",
"110 1002 CURVE SMOOTH",
"110 987 OFFCURVE",
"123 971 OFFCURVE",
"146 959 CURVE SMOOTH",
"268 892 LINE"
);
},
{
closed = 1;
nodes = (
"348 861 LINE SMOOTH",
"358 869 OFFCURVE",
"368 877 OFFCURVE",
"376 877 CURVE SMOOTH",
"382 877 OFFCURVE",
"390 872 OFFCURVE",
"399 866 CURVE",
"505 780 LINE",
"524 802 LINE",
"402 931 LINE",
"351 931 LINE",
"229 802 LINE",
"247 780 LINE"
);
}
);
};
components = (
{
name = O;
},
{
name = circumflexgrave;
transform = "{1, 0, 0, 1, 628, 230}";
}
);
layerId = "0B1DFD06-3317-40CA-B510-4969A0718C16";
width = 755;
}
);
leftKerningGroup = O;
note = Ocircumflexgrave;
rightKerningGroup = O;
unicode = 1ED2;
},
{
glyphname = Ocircumflexhookabove;
lastChange = "2017-12-19 05:21:12 +0000";
layers = (
{
background = {
paths = (
{
closed = 1;
nodes = (
"601 -10 OFFCURVE",
"719 124 OFFCURVE",
"719 350 CURVE SMOOTH",
"719 574 OFFCURVE",
"601 710 OFFCURVE",
"378 710 CURVE SMOOTH",
"154 710 OFFCURVE",
"36 574 OFFCURVE",
"36 350 CURVE SMOOTH",
"36 124 OFFCURVE",
"154 -10 OFFCURVE",
"378 -10 CURVE SMOOTH"
);
},
{
closed = 1;
nodes = (
"215 32 OFFCURVE",
"135 158 OFFCURVE",
"135 350 CURVE SMOOTH",
"135 541 OFFCURVE",
"215 668 OFFCURVE",
"377 668 CURVE SMOOTH",
"541 668 OFFCURVE",
"620 541 OFFCURVE",
"620 350 CURVE SMOOTH",
"620 158 OFFCURVE",
"541 32 OFFCURVE",
"377 32 CURVE SMOOTH"
);
},
{
closed = 1;
nodes = (
"344 858 LINE",
"355 868 OFFCURVE",
"367 878 OFFCURVE",
"376 878 CURVE SMOOTH",
"382 878 OFFCURVE",
"390 873 OFFCURVE",
"399 867 CURVE",
"505 781 LINE",
"524 803 LINE",
"402 932 LINE",
"351 932 LINE",
"229 803 LINE",
"247 781 LINE"
);
},
{
closed = 1;
nodes = (
"551 898 LINE",
"532 905 OFFCURVE",
"522 912 OFFCURVE",
"522 926 CURVE SMOOTH",
"522 954 OFFCURVE",
"602 965 OFFCURVE",
"602 1010 CURVE SMOOTH",
"602 1047 OFFCURVE",
"560 1063 OFFCURVE",
"518 1063 CURVE SMOOTH",
"487 1063 OFFCURVE",
"442 1053 OFFCURVE",
"442 1022 CURVE SMOOTH",
"442 1010 OFFCURVE",
"453 1001 OFFCURVE",
"463 1001 CURVE SMOOTH",
"492 1001 OFFCURVE",
"479 1040 OFFCURVE",
"522 1040 CURVE SMOOTH",
"541 1040 OFFCURVE",
"552 1028 OFFCURVE",
"552 1013 CURVE SMOOTH",
"552 973 OFFCURVE",
"479 965 OFFCURVE",
"479 925 CURVE SMOOTH",
"479 901 OFFCURVE",
"495 880 OFFCURVE",
"542 880 CURVE"
);
}
);
};
components = (
{
name = O;
},
{
name = circumflexhookabove;
transform = "{1, 0, 0, 1, 628, 230}";
}
);
layerId = "0B1DFD06-3317-40CA-B510-4969A0718C16";
width = 755;
}
);
leftKerningGroup = O;
note = Ocircumflexhookabove;
rightKerningGroup = O;
unicode = 1ED4;
},
{
glyphname = Ocircumflextilde;
lastChange = "2017-12-19 05:21:12 +0000";
layers = (
{
background = {
paths = (
{
closed = 1;
nodes = (
"601 -10 OFFCURVE",
"719 124 OFFCURVE",
"719 350 CURVE SMOOTH",
"719 574 OFFCURVE",
"601 710 OFFCURVE",
"378 710 CURVE SMOOTH",
"154 710 OFFCURVE",
"36 574 OFFCURVE",
"36 350 CURVE SMOOTH",
"36 124 OFFCURVE",
"154 -10 OFFCURVE",
"378 -10 CURVE SMOOTH"
);
},
{
closed = 1;
nodes = (
"215 32 OFFCURVE",
"135 158 OFFCURVE",
"135 350 CURVE SMOOTH",
"135 541 OFFCURVE",
"215 668 OFFCURVE",
"377 668 CURVE SMOOTH",
"541 668 OFFCURVE",
"620 541 OFFCURVE",
"620 350 CURVE SMOOTH",
"620 158 OFFCURVE",
"541 32 OFFCURVE",
"377 32 CURVE SMOOTH"
);
},
{
closed = 1;
nodes = (
"348 862 LINE SMOOTH",
"358 870 OFFCURVE",
"368 878 OFFCURVE",
"376 878 CURVE SMOOTH",
"382 878 OFFCURVE",
"390 873 OFFCURVE",
"399 867 CURVE",
"505 781 LINE",
"524 803 LINE",
"402 932 LINE",
"351 932 LINE",
"229 803 LINE",
"247 781 LINE"
);
},
{
closed = 1;
nodes = (
"251 997 OFFCURVE",
"269 1018 OFFCURVE",
"300 1018 CURVE SMOOTH",
"349 1018 OFFCURVE",
"396 964 OFFCURVE",
"445 964 CURVE SMOOTH",
"498 964 OFFCURVE",
"527 1012 OFFCURVE",
"539 1063 CURVE",
"518 1075 LINE",
"505 1035 OFFCURVE",
"489 1012 OFFCURVE",
"456 1012 CURVE SMOOTH",
"409 1012 OFFCURVE",
"360 1065 OFFCURVE",
"311 1065 CURVE SMOOTH",
"260 1065 OFFCURVE",
"228 1021 OFFCURVE",
"218 970 CURVE",
"238 958 LINE"
);
}
);
};
components = (
{
name = O;
},
{
name = circumflextilde;
transform = "{1, 0, 0, 1, 628, 230}";
}
);
layerId = "0B1DFD06-3317-40CA-B510-4969A0718C16";
width = 755;
}
);
leftKerningGroup = O;
note = Ocircumflextilde;
rightKerningGroup = O;
unicode = 1ED6;
},
{
glyphname = Odieresis;
lastChange = "2017-12-19 05:21:12 +0000";
layers = (
{
background = {
paths = (
{
closed = 1;
nodes = (
"601 -10 OFFCURVE",
"719 124 OFFCURVE",
"719 350 CURVE SMOOTH",
"719 574 OFFCURVE",
"601 710 OFFCURVE",
"378 710 CURVE SMOOTH",
"154 710 OFFCURVE",
"36 574 OFFCURVE",
"36 350 CURVE SMOOTH",
"36 124 OFFCURVE",
"154 -10 OFFCURVE",
"378 -10 CURVE SMOOTH"
);
},
{
closed = 1;
nodes = (
"215 32 OFFCURVE",
"135 158 OFFCURVE",
"135 350 CURVE SMOOTH",
"135 541 OFFCURVE",
"215 668 OFFCURVE",
"377 668 CURVE SMOOTH",
"541 668 OFFCURVE",
"620 541 OFFCURVE",
"620 350 CURVE SMOOTH",
"620 158 OFFCURVE",
"541 32 OFFCURVE",
"377 32 CURVE SMOOTH"
);
},
{
closed = 1;
nodes = (
"298 781 OFFCURVE",
"316 800 OFFCURVE",
"316 827 CURVE SMOOTH",
"316 855 OFFCURVE",
"298 875 OFFCURVE",
"269 875 CURVE SMOOTH",
"241 875 OFFCURVE",
"223 855 OFFCURVE",
"223 827 CURVE SMOOTH",
"223 800 OFFCURVE",
"241 781 OFFCURVE",
"269 781 CURVE SMOOTH"
);
},
{
closed = 1;
nodes = (
"514 781 OFFCURVE",
"532 800 OFFCURVE",
"532 827 CURVE SMOOTH",
"532 855 OFFCURVE",
"514 875 OFFCURVE",
"485 875 CURVE SMOOTH",
"456 875 OFFCURVE",
"438 855 OFFCURVE",
"438 827 CURVE SMOOTH",
"438 800 OFFCURVE",
"456 781 OFFCURVE",
"485 781 CURVE SMOOTH"
);
}
);
};
components = (
{
name = O;
},
{
name = dieresis;
transform = "{1, 0, 0, 1, 132, 230}";
}
);
layerId = "0B1DFD06-3317-40CA-B510-4969A0718C16";
width = 755;
}
);
leftKerningGroup = O;
note = Odieresis;
rightKerningGroup = O;
unicode = 00D6;
},
{
glyphname = Odotbelow;
lastChange = "2017-12-19 05:21:12 +0000";
layers = (
{
background = {
paths = (
{
closed = 1;
nodes = (
"36 124 OFFCURVE",
"154 -10 OFFCURVE",
"378 -10 CURVE SMOOTH",
"601 -10 OFFCURVE",
"719 124 OFFCURVE",
"719 350 CURVE SMOOTH",
"719 574 OFFCURVE",
"601 710 OFFCURVE",
"378 710 CURVE SMOOTH",
"154 710 OFFCURVE",
"36 574 OFFCURVE",
"36 350 CURVE SMOOTH"
);
},
{
closed = 1;
nodes = (
"135 541 OFFCURVE",
"215 668 OFFCURVE",
"377 668 CURVE SMOOTH",
"541 668 OFFCURVE",
"620 541 OFFCURVE",
"620 350 CURVE SMOOTH",
"620 158 OFFCURVE",
"541 32 OFFCURVE",
"377 32 CURVE SMOOTH",
"215 32 OFFCURVE",
"135 158 OFFCURVE",
"135 350 CURVE SMOOTH"
);
},
{
closed = 1;
nodes = (
"330 -140 OFFCURVE",
"349 -159 OFFCURVE",
"377 -159 CURVE SMOOTH",
"405 -159 OFFCURVE",
"423 -140 OFFCURVE",
"423 -112 CURVE SMOOTH",
"423 -84 OFFCURVE",
"405 -64 OFFCURVE",
"377 -64 CURVE SMOOTH",
"349 -64 OFFCURVE",
"330 -84 OFFCURVE",
"330 -112 CURVE SMOOTH"
);
}
);
};
components = (
{
name = O;
},
{
name = dotbelowcomb;
transform = "{1, 0, 0, 1, 629, 0}";
}
);
layerId = "0B1DFD06-3317-40CA-B510-4969A0718C16";
width = 755;
}
);
leftKerningGroup = O;
note = Odotbelow;
rightKerningGroup = O;
unicode = 1ECC;
},
{
glyphname = Ograve;
lastChange = "2017-12-19 05:21:12 +0000";
layers = (
{
background = {
paths = (
{
closed = 1;
nodes = (
"601 -10 OFFCURVE",
"719 124 OFFCURVE",
"719 350 CURVE SMOOTH",
"719 574 OFFCURVE",
"601 710 OFFCURVE",
"378 710 CURVE SMOOTH",
"154 710 OFFCURVE",
"36 574 OFFCURVE",
"36 350 CURVE SMOOTH",
"36 124 OFFCURVE",
"154 -10 OFFCURVE",
"378 -10 CURVE SMOOTH"
);
},
{
closed = 1;
nodes = (
"215 32 OFFCURVE",
"135 158 OFFCURVE",
"135 350 CURVE SMOOTH",
"135 541 OFFCURVE",
"215 668 OFFCURVE",
"377 668 CURVE SMOOTH",
"541 668 OFFCURVE",
"620 541 OFFCURVE",
"620 350 CURVE SMOOTH",
"620 158 OFFCURVE",
"541 32 OFFCURVE",
"377 32 CURVE SMOOTH"
);
},
{
closed = 1;
nodes = (
"459 807 LINE",
"344 913 LINE",
"335 922 OFFCURVE",
"319 937 OFFCURVE",
"299 937 CURVE SMOOTH",
"279 937 OFFCURVE",
"267 924 OFFCURVE",
"267 908 CURVE SMOOTH",
"267 890 OFFCURVE",
"279 876 OFFCURVE",
"298 865 CURVE SMOOTH",
"441 782 LINE"
);
}
);
};
components = (
{
name = O;
},
{
name = grave;
transform = "{1, 0, 0, 1, 132, 230}";
}
);
layerId = "0B1DFD06-3317-40CA-B510-4969A0718C16";
width = 755;
}
);
leftKerningGroup = O;
note = Ograve;
rightKerningGroup = O;
unicode = 00D2;
},
{
glyphname = Ohookabove;
lastChange = "2017-12-19 05:21:12 +0000";
layers = (
{
background = {
paths = (
{
closed = 1;
nodes = (
"601 -10 OFFCURVE",
"719 124 OFFCURVE",
"719 350 CURVE SMOOTH",
"719 574 OFFCURVE",
"601 710 OFFCURVE",
"378 710 CURVE SMOOTH",
"154 710 OFFCURVE",
"36 574 OFFCURVE",
"36 350 CURVE SMOOTH",
"36 124 OFFCURVE",
"154 -10 OFFCURVE",
"378 -10 CURVE SMOOTH"
);
},
{
closed = 1;
nodes = (
"215 32 OFFCURVE",
"135 158 OFFCURVE",
"135 350 CURVE SMOOTH",
"135 541 OFFCURVE",
"215 668 OFFCURVE",
"377 668 CURVE SMOOTH",
"541 668 OFFCURVE",
"620 541 OFFCURVE",
"620 350 CURVE SMOOTH",
"620 158 OFFCURVE",
"541 32 OFFCURVE",
"377 32 CURVE SMOOTH"
);
},
{
closed = 1;
nodes = (
"407 798 LINE",
"388 805 OFFCURVE",
"376 811 OFFCURVE",
"376 828 CURVE SMOOTH",
"376 861 OFFCURVE",
"465 876 OFFCURVE",
"465 927 CURVE SMOOTH",
"465 969 OFFCURVE",
"429 991 OFFCURVE",
"376 991 CURVE SMOOTH",
"329 991 OFFCURVE",
"288 974 OFFCURVE",
"288 940 CURVE SMOOTH",
"288 923 OFFCURVE",
"296 915 OFFCURVE",
"311 915 CURVE SMOOTH",
"334 915 OFFCURVE",
"336 934 OFFCURVE",
"339 942 CURVE SMOOTH",
"344 956 OFFCURVE",
"361 962 OFFCURVE",
"377 962 CURVE SMOOTH",
"398 962 OFFCURVE",
"411 947 OFFCURVE",
"411 930 CURVE SMOOTH",
"411 885 OFFCURVE",
"329 874 OFFCURVE",
"329 828 CURVE SMOOTH",
"329 801 OFFCURVE",
"347 778 OFFCURVE",
"398 778 CURVE"
);
}
);
};
components = (
{
name = O;
},
{
name = hookabovecomb;
transform = "{1, 0, 0, 1, 629, 230}";
}
);
layerId = "0B1DFD06-3317-40CA-B510-4969A0718C16";
width = 755;
}
);
leftKerningGroup = O;
note = Ohookabove;
rightKerningGroup = O;
unicode = 1ECE;
},
{
glyphname = Ohorn;
lastChange = "2017-12-19 07:30:37 +0000";
layers = (
{
layerId = "0B1DFD06-3317-40CA-B510-4969A0718C16";
paths = (
{
closed = 1;
nodes = (
"682 450 OFFCURVE",
"654 535 OFFCURVE",
"597 603 CURVE",
"623 626 OFFCURVE",
"645 656 OFFCURVE",
"662 689 CURVE SMOOTH",
"675 719 OFFCURVE",
"682 744 OFFCURVE",
"682 766 CURVE",
"635 766 LINE",
"635 717 OFFCURVE",
"614 672 OFFCURVE",
"573 628 CURVE",
"515 684 OFFCURVE",
"442 711 OFFCURVE",
"357 711 CURVE SMOOTH",
"262 711 OFFCURVE",
"182 678 OFFCURVE",
"122 609 CURVE SMOOTH",
"62 539 OFFCURVE",
"32 453 OFFCURVE",
"32 348 CURVE SMOOTH",
"32 244 OFFCURVE",
"62 157 OFFCURVE",
"122 88 CURVE SMOOTH",
"182 19 OFFCURVE",
"262 -15 OFFCURVE",
"357 -15 CURVE SMOOTH",
"453 -15 OFFCURVE",
"531 19 OFFCURVE",
"591 88 CURVE SMOOTH",
"651 157 OFFCURVE",
"682 244 OFFCURVE",
"682 348 CURVE SMOOTH"
);
},
{
closed = 1;
nodes = (
"625 262 OFFCURVE",
"600 188 OFFCURVE",
"550 126 CURVE SMOOTH",
"500 66 OFFCURVE",
"435 35 OFFCURVE",
"357 35 CURVE SMOOTH",
"279 35 OFFCURVE",
"215 66 OFFCURVE",
"165 126 CURVE SMOOTH",
"115 188 OFFCURVE",
"90 262 OFFCURVE",
"90 348 CURVE SMOOTH",
"90 435 OFFCURVE",
"115 509 OFFCURVE",
"165 569 CURVE SMOOTH",
"215 631 OFFCURVE",
"279 662 OFFCURVE",
"357 662 CURVE SMOOTH",
"435 662 OFFCURVE",
"500 631 OFFCURVE",
"550 569 CURVE SMOOTH",
"600 509 OFFCURVE",
"625 435 OFFCURVE",
"625 348 CURVE SMOOTH"
);
}
);
width = 714;
}
);
note = Ohorn;
unicode = 01A0;
},
{
glyphname = Ohornacute;
lastChange = "2017-12-19 05:21:12 +0000";
layers = (
{
background = {
paths = (
{
closed = 1;
nodes = (
"602 -10 OFFCURVE",
"720 124 OFFCURVE",
"720 350 CURVE SMOOTH",
"720 574 OFFCURVE",
"602 710 OFFCURVE",
"379 710 CURVE SMOOTH",
"155 710 OFFCURVE",
"37 574 OFFCURVE",
"37 350 CURVE SMOOTH",
"37 124 OFFCURVE",
"155 -10 OFFCURVE",
"379 -10 CURVE SMOOTH"
);
},
{
closed = 1;
nodes = (
"216 32 OFFCURVE",
"136 158 OFFCURVE",
"136 350 CURVE SMOOTH",
"136 541 OFFCURVE",
"216 668 OFFCURVE",
"378 668 CURVE SMOOTH",
"542 668 OFFCURVE",
"621 541 OFFCURVE",
"621 350 CURVE SMOOTH",
"621 158 OFFCURVE",
"542 32 OFFCURVE",
"378 32 CURVE SMOOTH"
);
},
{
closed = 1;
nodes = (
"424 864 LINE SMOOTH",
"446 876 OFFCURVE",
"458 889 OFFCURVE",
"458 906 CURVE SMOOTH",
"458 921 OFFCURVE",
"446 936 OFFCURVE",
"424 936 CURVE SMOOTH",
"403 936 OFFCURVE",
"388 920 OFFCURVE",
"380 913 CURVE SMOOTH",
"265 806 LINE",
"282 781 LINE"
);
},
{
closed = 1;
nodes = (
"691 567 OFFCURVE",
"756 632 OFFCURVE",
"756 705 CURVE SMOOTH",
"756 752 OFFCURVE",
"729 772 OFFCURVE",
"701 772 CURVE SMOOTH",
"672 772 OFFCURVE",
"656 752 OFFCURVE",
"656 729 CURVE SMOOTH",
"656 695 OFFCURVE",
"689 688 OFFCURVE",
"689 653 CURVE SMOOTH",
"689 617 OFFCURVE",
"658 588 OFFCURVE",
"623 568 CURVE",
"623 543 LINE"
);
}
);
};
components = (
{
name = acute;
transform = "{1, 0, 0, 1, 120, 230}";
},
{
name = Ohorn;
}
);
layerId = "0B1DFD06-3317-40CA-B510-4969A0718C16";
width = 755;
}
);
leftKerningGroup = O;
note = Ohornacute;
rightKerningGroup = O;
unicode = 1EDA;
},
{
glyphname = Ohorndotbelow;
lastChange = "2017-12-19 05:21:12 +0000";
layers = (
{
background = {
paths = (
{
closed = 1;
nodes = (
"602 -10 OFFCURVE",
"720 124 OFFCURVE",
"720 350 CURVE SMOOTH",
"720 574 OFFCURVE",
"602 710 OFFCURVE",
"379 710 CURVE SMOOTH",
"155 710 OFFCURVE",
"37 574 OFFCURVE",
"37 350 CURVE SMOOTH",
"37 124 OFFCURVE",
"155 -10 OFFCURVE",
"379 -10 CURVE SMOOTH"
);
},
{
closed = 1;
nodes = (
"216 32 OFFCURVE",
"136 158 OFFCURVE",
"136 350 CURVE SMOOTH",
"136 541 OFFCURVE",
"216 668 OFFCURVE",
"378 668 CURVE SMOOTH",
"542 668 OFFCURVE",
"621 541 OFFCURVE",
"621 350 CURVE SMOOTH",
"621 158 OFFCURVE",
"542 32 OFFCURVE",
"378 32 CURVE SMOOTH"
);
},
{
closed = 1;
nodes = (
"691 567 OFFCURVE",
"756 632 OFFCURVE",
"756 705 CURVE SMOOTH",
"756 752 OFFCURVE",
"729 772 OFFCURVE",
"701 772 CURVE SMOOTH",
"672 772 OFFCURVE",
"656 752 OFFCURVE",
"656 729 CURVE SMOOTH",
"656 695 OFFCURVE",
"689 688 OFFCURVE",
"689 653 CURVE SMOOTH",
"689 617 OFFCURVE",
"658 588 OFFCURVE",
"623 568 CURVE",
"623 543 LINE"
);
},
{
closed = 1;
nodes = (
"395 -159 OFFCURVE",
"413 -140 OFFCURVE",
"413 -112 CURVE SMOOTH",
"413 -84 OFFCURVE",
"395 -64 OFFCURVE",
"367 -64 CURVE SMOOTH",
"339 -64 OFFCURVE",
"320 -84 OFFCURVE",
"320 -112 CURVE SMOOTH",
"320 -140 OFFCURVE",
"339 -159 OFFCURVE",
"367 -159 CURVE SMOOTH"
);
}
);
};
components = (
{
name = dotbelowcomb;
transform = "{1, 0, 0, 1, 629, 0}";
},
{
name = Ohorn;
}
);
layerId = "0B1DFD06-3317-40CA-B510-4969A0718C16";
width = 755;
}
);
leftKerningGroup = O;
note = Ohorndotbelow;
rightKerningGroup = O;
unicode = 1EE2;
},
{
glyphname = Ohorngrave;
lastChange = "2017-12-19 05:21:12 +0000";
layers = (
{
background = {
paths = (
{
closed = 1;
nodes = (
"602 -10 OFFCURVE",
"720 124 OFFCURVE",
"720 350 CURVE SMOOTH",
"720 574 OFFCURVE",
"602 710 OFFCURVE",
"379 710 CURVE SMOOTH",
"155 710 OFFCURVE",
"37 574 OFFCURVE",
"37 350 CURVE SMOOTH",
"37 124 OFFCURVE",
"155 -10 OFFCURVE",
"379 -10 CURVE SMOOTH"
);
},
{
closed = 1;
nodes = (
"216 32 OFFCURVE",
"136 158 OFFCURVE",
"136 350 CURVE SMOOTH",
"136 541 OFFCURVE",
"216 668 OFFCURVE",
"378 668 CURVE SMOOTH",
"542 668 OFFCURVE",
"621 541 OFFCURVE",
"621 350 CURVE SMOOTH",
"621 158 OFFCURVE",
"542 32 OFFCURVE",
"378 32 CURVE SMOOTH"
);
},
{
closed = 1;
nodes = (
"464 816 LINE",
"349 922 LINE",
"340 931 OFFCURVE",
"324 946 OFFCURVE",
"304 946 CURVE SMOOTH",
"284 946 OFFCURVE",
"272 933 OFFCURVE",
"272 917 CURVE SMOOTH",
"272 899 OFFCURVE",
"284 885 OFFCURVE",
"303 874 CURVE SMOOTH",
"446 791 LINE"
);
},
{
closed = 1;
nodes = (
"691 567 OFFCURVE",
"756 632 OFFCURVE",
"756 705 CURVE SMOOTH",
"756 752 OFFCURVE",
"729 772 OFFCURVE",
"701 772 CURVE SMOOTH",
"672 772 OFFCURVE",
"656 752 OFFCURVE",
"656 729 CURVE SMOOTH",
"656 695 OFFCURVE",
"689 688 OFFCURVE",
"689 653 CURVE SMOOTH",
"689 617 OFFCURVE",
"658 588 OFFCURVE",
"623 568 CURVE",
"623 543 LINE"
);
}
);
};
components = (
{
name = grave;
transform = "{1, 0, 0, 1, 132, 230}";
},
{
name = Ohorn;
}
);
layerId = "0B1DFD06-3317-40CA-B510-4969A0718C16";
width = 755;
}
);
leftKerningGroup = O;
note = Ohorngrave;
rightKerningGroup = O;
unicode = 1EDC;
},
{
glyphname = Ohornhookabove;
lastChange = "2017-12-19 05:21:12 +0000";
layers = (
{
background = {
paths = (
{
closed = 1;
nodes = (
"602 -10 OFFCURVE",
"720 124 OFFCURVE",
"720 350 CURVE SMOOTH",
"720 574 OFFCURVE",
"602 710 OFFCURVE",
"379 710 CURVE SMOOTH",
"155 710 OFFCURVE",
"37 574 OFFCURVE",
"37 350 CURVE SMOOTH",
"37 124 OFFCURVE",
"155 -10 OFFCURVE",
"379 -10 CURVE SMOOTH"
);
},
{
closed = 1;
nodes = (
"216 32 OFFCURVE",
"136 158 OFFCURVE",
"136 350 CURVE SMOOTH",
"136 541 OFFCURVE",
"216 668 OFFCURVE",
"378 668 CURVE SMOOTH",
"542 668 OFFCURVE",
"621 541 OFFCURVE",
"621 350 CURVE SMOOTH",
"621 158 OFFCURVE",
"542 32 OFFCURVE",
"378 32 CURVE SMOOTH"
);
},
{
closed = 1;
nodes = (
"412 809 LINE",
"393 816 OFFCURVE",
"381 822 OFFCURVE",
"381 839 CURVE SMOOTH",
"381 872 OFFCURVE",
"470 887 OFFCURVE",
"470 938 CURVE SMOOTH",
"470 980 OFFCURVE",
"434 1002 OFFCURVE",
"381 1002 CURVE SMOOTH",
"334 1002 OFFCURVE",
"293 985 OFFCURVE",
"293 951 CURVE SMOOTH",
"293 934 OFFCURVE",
"301 926 OFFCURVE",
"316 926 CURVE SMOOTH",
"339 926 OFFCURVE",
"341 945 OFFCURVE",
"344 953 CURVE SMOOTH",
"349 967 OFFCURVE",
"366 973 OFFCURVE",
"382 973 CURVE SMOOTH",
"403 973 OFFCURVE",
"416 958 OFFCURVE",
"416 941 CURVE SMOOTH",
"416 896 OFFCURVE",
"334 885 OFFCURVE",
"334 839 CURVE SMOOTH",
"334 812 OFFCURVE",
"352 789 OFFCURVE",
"403 789 CURVE"
);
},
{
closed = 1;
nodes = (
"691 567 OFFCURVE",
"756 632 OFFCURVE",
"756 705 CURVE SMOOTH",
"756 752 OFFCURVE",
"729 772 OFFCURVE",
"701 772 CURVE SMOOTH",
"672 772 OFFCURVE",
"656 752 OFFCURVE",
"656 729 CURVE SMOOTH",
"656 695 OFFCURVE",
"689 688 OFFCURVE",
"689 653 CURVE SMOOTH",
"689 617 OFFCURVE",
"658 588 OFFCURVE",
"623 568 CURVE",
"623 543 LINE"
);
}
);
};
components = (
{
name = hookabovecomb;
transform = "{1, 0, 0, 1, 629, 230}";
},
{
name = Ohorn;
}
);
layerId = "0B1DFD06-3317-40CA-B510-4969A0718C16";
width = 755;
}
);
leftKerningGroup = O;
note = Ohornhookabove;
rightKerningGroup = O;
unicode = 1EDE;
},
{
glyphname = Ohorntilde;
lastChange = "2017-12-19 05:21:12 +0000";
layers = (
{
background = {
paths = (
{
closed = 1;
nodes = (
"602 -10 OFFCURVE",
"720 124 OFFCURVE",
"720 350 CURVE SMOOTH",
"720 574 OFFCURVE",
"602 710 OFFCURVE",
"379 710 CURVE SMOOTH",
"155 710 OFFCURVE",
"37 574 OFFCURVE",
"37 350 CURVE SMOOTH",
"37 124 OFFCURVE",
"155 -10 OFFCURVE",
"379 -10 CURVE SMOOTH"
);
},
{
closed = 1;
nodes = (
"216 32 OFFCURVE",
"136 158 OFFCURVE",
"136 350 CURVE SMOOTH",
"136 541 OFFCURVE",
"216 668 OFFCURVE",
"378 668 CURVE SMOOTH",
"542 668 OFFCURVE",
"621 541 OFFCURVE",
"621 350 CURVE SMOOTH",
"621 158 OFFCURVE",
"542 32 OFFCURVE",
"378 32 CURVE SMOOTH"
);
},
{
closed = 1;
nodes = (
"234 828 OFFCURVE",
"252 849 OFFCURVE",
"285 849 CURVE SMOOTH",
"336 849 OFFCURVE",
"385 795 OFFCURVE",
"436 795 CURVE SMOOTH",
"494 795 OFFCURVE",
"524 843 OFFCURVE",
"536 895 CURVE",
"515 906 LINE",
"499 866 OFFCURVE",
"483 844 OFFCURVE",
"449 844 CURVE SMOOTH",
"400 844 OFFCURVE",
"348 897 OFFCURVE",
"297 897 CURVE SMOOTH",
"243 897 OFFCURVE",
"210 853 OFFCURVE",
"198 801 CURVE",
"220 790 LINE"
);
},
{
closed = 1;
nodes = (
"691 567 OFFCURVE",
"756 632 OFFCURVE",
"756 705 CURVE SMOOTH",
"756 752 OFFCURVE",
"729 772 OFFCURVE",
"701 772 CURVE SMOOTH",
"672 772 OFFCURVE",
"656 752 OFFCURVE",
"656 729 CURVE SMOOTH",
"656 695 OFFCURVE",
"689 688 OFFCURVE",
"689 653 CURVE SMOOTH",
"689 617 OFFCURVE",
"658 588 OFFCURVE",
"623 568 CURVE",
"623 543 LINE"
);
}
);
};
components = (
{
name = tilde;
transform = "{1, 0, 0, 1, 132, 230}";
},
{
name = Ohorn;
}
);
layerId = "0B1DFD06-3317-40CA-B510-4969A0718C16";
width = 755;
}
);
leftKerningGroup = O;
note = Ohorntilde;
rightKerningGroup = O;
unicode = 1EE0;
},
{
glyphname = Ohungarumlaut;
lastChange = "2017-12-19 05:21:12 +0000";
layers = (
{
background = {
paths = (
{
closed = 1;
nodes = (
"601 -10 OFFCURVE",
"719 124 OFFCURVE",
"719 350 CURVE SMOOTH",
"719 574 OFFCURVE",
"601 710 OFFCURVE",
"378 710 CURVE SMOOTH",
"154 710 OFFCURVE",
"36 574 OFFCURVE",
"36 350 CURVE SMOOTH",
"36 124 OFFCURVE",
"154 -10 OFFCURVE",
"378 -10 CURVE SMOOTH"
);
},
{
closed = 1;
nodes = (
"215 32 OFFCURVE",
"135 158 OFFCURVE",
"135 350 CURVE SMOOTH",
"135 541 OFFCURVE",
"215 668 OFFCURVE",
"377 668 CURVE SMOOTH",
"541 668 OFFCURVE",
"620 541 OFFCURVE",
"620 350 CURVE SMOOTH",
"620 158 OFFCURVE",
"541 32 OFFCURVE",
"377 32 CURVE SMOOTH"
);
},
{
closed = 1;
nodes = (
"395 864 LINE SMOOTH",
"417 877 OFFCURVE",
"429 891 OFFCURVE",
"429 908 CURVE SMOOTH",
"429 922 OFFCURVE",
"421 937 OFFCURVE",
"399 937 CURVE SMOOTH",
"378 937 OFFCURVE",
"357 919 OFFCURVE",
"350 913 CURVE",
"236 807 LINE",
"253 782 LINE"
);
},
{
closed = 1;
nodes = (
"556 864 LINE SMOOTH",
"577 877 OFFCURVE",
"589 891 OFFCURVE",
"589 908 CURVE SMOOTH",
"589 922 OFFCURVE",
"578 937 OFFCURVE",
"556 937 CURVE SMOOTH",
"534 937 OFFCURVE",
"517 919 OFFCURVE",
"510 913 CURVE",
"396 807 LINE",
"414 782 LINE"
);
}
);
};
components = (
{
name = O;
},
{
name = hungarumlaut;
transform = "{1, 0, 0, 1, 131, 230}";
}
);
layerId = "0B1DFD06-3317-40CA-B510-4969A0718C16";
width = 755;
}
);
leftKerningGroup = O;
note = Ohungarumlaut;
rightKerningGroup = O;
unicode = 0150;
},
{
glyphname = Omacron;
lastChange = "2017-12-19 05:21:12 +0000";
layers = (
{
background = {
paths = (
{
closed = 1;
nodes = (
"601 -10 OFFCURVE",
"719 124 OFFCURVE",
"719 350 CURVE SMOOTH",
"719 574 OFFCURVE",
"601 710 OFFCURVE",
"378 710 CURVE SMOOTH",
"154 710 OFFCURVE",
"36 574 OFFCURVE",
"36 350 CURVE SMOOTH",
"36 124 OFFCURVE",
"154 -10 OFFCURVE",
"378 -10 CURVE SMOOTH"
);
},
{
closed = 1;
nodes = (
"215 32 OFFCURVE",
"135 158 OFFCURVE",
"135 350 CURVE SMOOTH",
"135 541 OFFCURVE",
"215 668 OFFCURVE",
"377 668 CURVE SMOOTH",
"541 668 OFFCURVE",
"620 541 OFFCURVE",
"620 350 CURVE SMOOTH",
"620 158 OFFCURVE",
"541 32 OFFCURVE",
"377 32 CURVE SMOOTH"
);
},
{
closed = 1;
nodes = (
"543 793 LINE",
"543 835 LINE",
"210 835 LINE",
"210 793 LINE"
);
}
);
};
components = (
{
name = O;
},
{
name = macron;
transform = "{1, 0, 0, 1, 132, 230}";
}
);
layerId = "0B1DFD06-3317-40CA-B510-4969A0718C16";
width = 755;
}
);
leftKerningGroup = O;
note = Omacron;
rightKerningGroup = O;
unicode = 014C;
},
{
glyphname = Oslash;
lastChange = "2017-12-19 07:30:49 +0000";
layers = (
{
layerId = "0B1DFD06-3317-40CA-B510-4969A0718C16";
paths = (
{
closed = 1;
nodes = (
"682 453 OFFCURVE",
"651 539 OFFCURVE",
"591 609 CURVE SMOOTH",
"575 626 OFFCURVE",
"559 642 OFFCURVE",
"539 656 CURVE",
"575 725 LINE",
"515 725 LINE",
"494 682 LINE",
"453 701 OFFCURVE",
"407 711 OFFCURVE",
"357 711 CURVE SMOOTH",
"262 711 OFFCURVE",
"182 678 OFFCURVE",
"122 609 CURVE SMOOTH",
"62 539 OFFCURVE",
"32 453 OFFCURVE",
"32 348 CURVE SMOOTH",
"32 244 OFFCURVE",
"62 157 OFFCURVE",
"122 88 CURVE SMOOTH",
"140 69 OFFCURVE",
"159 51 OFFCURVE",
"178 37 CURVE",
"140 -43 LINE",
"196 -43 LINE",
"222 12 LINE",
"262 -6 OFFCURVE",
"307 -15 OFFCURVE",
"357 -15 CURVE SMOOTH",
"453 -15 OFFCURVE",
"531 19 OFFCURVE",
"591 88 CURVE SMOOTH",
"651 157 OFFCURVE",
"682 244 OFFCURVE",
"682 348 CURVE SMOOTH"
);
},
{
closed = 1;
nodes = (
"203 88 LINE",
"190 98 OFFCURVE",
"176 112 OFFCURVE",
"165 126 CURVE SMOOTH",
"115 188 OFFCURVE",
"90 262 OFFCURVE",
"90 348 CURVE SMOOTH",
"90 435 OFFCURVE",
"115 509 OFFCURVE",
"165 569 CURVE SMOOTH",
"215 631 OFFCURVE",
"279 662 OFFCURVE",
"357 662 CURVE SMOOTH",
"398 662 OFFCURVE",
"437 653 OFFCURVE",
"470 635 CURVE"
);
},
{
closed = 1;
nodes = (
"625 262 OFFCURVE",
"600 188 OFFCURVE",
"550 126 CURVE SMOOTH",
"500 66 OFFCURVE",
"435 35 OFFCURVE",
"357 35 CURVE SMOOTH",
"316 35 OFFCURVE",
"279 44 OFFCURVE",
"245 60 CURVE",
"515 604 LINE",
"528 594 OFFCURVE",
"539 582 OFFCURVE",
"550 569 CURVE SMOOTH",
"600 509 OFFCURVE",
"625 435 OFFCURVE",
"625 348 CURVE SMOOTH"
);
}
);
width = 714;
}
);
note = Oslash;
unicode = 00D8;
},
{
glyphname = OE;
lastChange = "2017-12-19 07:31:00 +0000";
layers = (
{
layerId = "0B1DFD06-3317-40CA-B510-4969A0718C16";
paths = (
{
closed = 1;
nodes = (
"666 49 LINE",
"666 345 LINE",
"954 345 LINE",
"954 394 LINE",
"666 394 LINE",
"666 651 LINE",
"989 651 LINE",
"989 700 LINE",
"609 700 LINE",
"609 588 LINE",
"547 670 OFFCURVE",
"463 711 OFFCURVE",
"357 711 CURVE SMOOTH",
"262 711 OFFCURVE",
"182 678 OFFCURVE",
"122 609 CURVE SMOOTH",
"62 539 OFFCURVE",
"32 453 OFFCURVE",
"32 348 CURVE SMOOTH",
"32 244 OFFCURVE",
"62 157 OFFCURVE",
"122 88 CURVE SMOOTH",
"182 19 OFFCURVE",
"262 -15 OFFCURVE",
"357 -15 CURVE SMOOTH",
"463 -15 OFFCURVE",
"547 26 OFFCURVE",
"609 109 CURVE",
"609 0 LINE",
"989 0 LINE",
"989 49 LINE"
);
},
{
closed = 1;
nodes = (
"609 213 LINE",
"563 106 OFFCURVE",
"469 35 OFFCURVE",
"357 35 CURVE SMOOTH",
"279 35 OFFCURVE",
"215 66 OFFCURVE",
"165 126 CURVE SMOOTH",
"115 188 OFFCURVE",
"90 262 OFFCURVE",
"90 348 CURVE SMOOTH",
"90 435 OFFCURVE",
"115 509 OFFCURVE",
"165 569 CURVE SMOOTH",
"215 631 OFFCURVE",
"279 662 OFFCURVE",
"357 662 CURVE SMOOTH",
"417 662 OFFCURVE",
"473 641 OFFCURVE",
"525 601 CURVE SMOOTH",
"573 562 OFFCURVE",
"601 519 OFFCURVE",
"609 470 CURVE"
);
}
);
width = 1045;
}
);
note = OE;
unicode = 0152;
},
{
glyphname = Thorn;
lastChange = "2017-12-19 07:31:16 +0000";
layers = (
{
layerId = "0B1DFD06-3317-40CA-B510-4969A0718C16";
paths = (
{
closed = 1;
nodes = (
"516 445 OFFCURVE",
"490 494 OFFCURVE",
"435 531 CURVE SMOOTH",
"387 562 OFFCURVE",
"331 578 OFFCURVE",
"265 578 CURVE SMOOTH",
"225 578 OFFCURVE",
"185 572 OFFCURVE",
"144 562 CURVE",
"144 700 LINE",
"88 700 LINE",
"88 0 LINE",
"144 0 LINE",
"144 173 LINE",
"184 166 OFFCURVE",
"215 162 OFFCURVE",
"240 162 CURVE SMOOTH",
"410 162 OFFCURVE",
"516 238 OFFCURVE",
"516 385 CURVE SMOOTH"
);
},
{
closed = 1;
nodes = (
"462 272 OFFCURVE",
"384 209 OFFCURVE",
"243 209 CURVE SMOOTH",
"212 209 OFFCURVE",
"179 215 OFFCURVE",
"144 225 CURVE",
"144 510 LINE",
"188 523 OFFCURVE",
"228 531 OFFCURVE",
"265 531 CURVE SMOOTH",
"322 531 OFFCURVE",
"368 519 OFFCURVE",
"401 497 CURVE",
"441 469 OFFCURVE",
"462 429 OFFCURVE",
"462 378 CURVE SMOOTH"
);
}
);
width = 559;
}
);
note = Thorn;
unicode = 00DE;
},
{
color = 0;
glyphname = Germandbls;
lastChange = "2017-12-19 05:23:49 +0000";
layers = (
{
layerId = "0B1DFD06-3317-40CA-B510-4969A0718C16";
paths = (
{
closed = 1;
nodes = (
"606 -10 OFFCURVE",
"674 88 OFFCURVE",
"674 203 CURVE SMOOTH",
"674 313 OFFCURVE",
"592 385 OFFCURVE",
"445 398 CURVE",
"591 553 LINE",
"569 627 OFFCURVE",
"489 710 OFFCURVE",
"354 710 CURVE SMOOTH",
"177 710 OFFCURVE",
"92 616 OFFCURVE",
"92 470 CURVE SMOOTH",
"92 62 LINE SMOOTH",
"92 37 OFFCURVE",
"72 26 OFFCURVE",
"33 26 CURVE SMOOTH",
"5 26 LINE",
"5 0 LINE",
"255 0 LINE",
"255 26 LINE",
"227 26 LINE SMOOTH",
"202 26 OFFCURVE",
"188 44 OFFCURVE",
"188 63 CURVE SMOOTH",
"188 495 LINE SMOOTH",
"188 602 OFFCURVE",
"246 668 OFFCURVE",
"347 668 CURVE SMOOTH",
"431 668 OFFCURVE",
"479 617 OFFCURVE",
"499 555 CURVE",
"344 387 LINE",
"344 361 LINE",
"406 361 LINE SMOOTH",
"520 361 OFFCURVE",
"578 296 OFFCURVE",
"578 203 CURVE SMOOTH",
"578 100 OFFCURVE",
"521 29 OFFCURVE",
"419 29 CURVE SMOOTH",
"374 29 OFFCURVE",
"324 37 OFFCURVE",
"277 56 CURVE",
"277 14 LINE",
"318 -2 OFFCURVE",
"367 -10 OFFCURVE",
"423 -10 CURVE SMOOTH"
);
}
);
width = 703;
}
);
note = uni1E9E;
unicode = 1E9E;
},
{
color = 0;
glyphname = Schwa;
lastChange = "2017-12-19 05:23:49 +0000";
layers = (
{
layerId = "0B1DFD06-3317-40CA-B510-4969A0718C16";
paths = (
{
closed = 1;
nodes = (
"543 -10 OFFCURVE",
"658 120 OFFCURVE",
"658 346 CURVE SMOOTH",
"658 569 OFFCURVE",
"533 710 OFFCURVE",
"323 710 CURVE SMOOTH",
"160 710 OFFCURVE",
"56 618 OFFCURVE",
"41 500 CURVE",
"84 500 LINE",
"111 616 OFFCURVE",
"202 660 OFFCURVE",
"298 660 CURVE SMOOTH",
"479 660 OFFCURVE",
"559 515 OFFCURVE",
"559 341 CURVE SMOOTH",
"559 185 OFFCURVE",
"486 39 OFFCURVE",
"327 39 CURVE SMOOTH",
"181 39 OFFCURVE",
"133 180 OFFCURVE",
"132 283 CURVE",
"573 283 LINE",
"573 333 LINE",
"33 333 LINE",
"33 303 LINE SMOOTH",
"33 132 OFFCURVE",
"119 -10 OFFCURVE",
"330 -10 CURVE SMOOTH"
);
}
);
width = 692;
}
);
note = uni018F;
unicode = 018F;
},
{
glyphname = Tbar;
lastChange = "2017-12-19 05:21:12 +0000";
layers = (
{
components = (
{
name = T;
}
);
layerId = "0B1DFD06-3317-40CA-B510-4969A0718C16";
paths = (
{
closed = 1;
nodes = (
"520 317 LINE",
"520 363 LINE",
"134 363 LINE",
"134 317 LINE"
);
}
);
width = 652;
}
);
leftKerningGroup = T;
note = Tbar;
rightKerningGroup = T;
unicode = 0166;
},
{
glyphname = Uacute;
lastChange = "2017-12-19 05:21:12 +0000";
layers = (
{
background = {
paths = (
{
closed = 1;
nodes = (
"539 -10 OFFCURVE",
"636 51 OFFCURVE",
"636 204 CURVE SMOOTH",
"636 637 LINE SMOOTH",
"636 662 OFFCURVE",
"660 673 OFFCURVE",
"690 673 CURVE SMOOTH",
"713 673 LINE",
"713 700 LINE",
"510 700 LINE",
"510 673 LINE",
"532 673 LINE SMOOTH",
"564 673 OFFCURVE",
"586 662 OFFCURVE",
"586 637 CURVE SMOOTH",
"586 197 LINE SMOOTH",
"586 65 OFFCURVE",
"489 31 OFFCURVE",
"397 31 CURVE SMOOTH",
"290 31 OFFCURVE",
"203 63 OFFCURVE",
"203 197 CURVE SMOOTH",
"203 637 LINE SMOOTH",
"203 662 OFFCURVE",
"226 673 OFFCURVE",
"257 673 CURVE SMOOTH",
"280 673 LINE",
"280 700 LINE",
"28 700 LINE",
"28 673 LINE",
"51 673 LINE SMOOTH",
"82 673 OFFCURVE",
"105 662 OFFCURVE",
"105 637 CURVE SMOOTH",
"105 204 LINE SMOOTH",
"105 46 OFFCURVE",
"208 -10 OFFCURVE",
"375 -10 CURVE SMOOTH"
);
},
{
closed = 1;
nodes = (
"447 865 LINE SMOOTH",
"469 877 OFFCURVE",
"481 890 OFFCURVE",
"481 907 CURVE SMOOTH",
"481 922 OFFCURVE",
"469 937 OFFCURVE",
"447 937 CURVE SMOOTH",
"426 937 OFFCURVE",
"411 921 OFFCURVE",
"403 914 CURVE SMOOTH",
"288 807 LINE",
"305 782 LINE"
);
}
);
};
components = (
{
name = U;
},
{
name = acute;
transform = "{1, 0, 0, 1, 136, 230}";
}
);
layerId = "0B1DFD06-3317-40CA-B510-4969A0718C16";
width = 742;
}
);
leftKerningGroup = U;
note = Uacute;
rightKerningGroup = U;
unicode = 00DA;
},
{
glyphname = Ubreve;
lastChange = "2017-12-19 05:21:12 +0000";
layers = (
{
background = {
paths = (
{
closed = 1;
nodes = (
"539 -10 OFFCURVE",
"636 51 OFFCURVE",
"636 204 CURVE SMOOTH",
"636 637 LINE SMOOTH",
"636 662 OFFCURVE",
"660 673 OFFCURVE",
"690 673 CURVE SMOOTH",
"713 673 LINE",
"713 700 LINE",
"510 700 LINE",
"510 673 LINE",
"532 673 LINE SMOOTH",
"564 673 OFFCURVE",
"586 662 OFFCURVE",
"586 637 CURVE SMOOTH",
"586 197 LINE SMOOTH",
"586 65 OFFCURVE",
"489 31 OFFCURVE",
"397 31 CURVE SMOOTH",
"290 31 OFFCURVE",
"203 63 OFFCURVE",
"203 197 CURVE SMOOTH",
"203 637 LINE SMOOTH",
"203 662 OFFCURVE",
"226 673 OFFCURVE",
"257 673 CURVE SMOOTH",
"280 673 LINE",
"280 700 LINE",
"28 700 LINE",
"28 673 LINE",
"51 673 LINE SMOOTH",
"82 673 OFFCURVE",
"105 662 OFFCURVE",
"105 637 CURVE SMOOTH",
"105 204 LINE SMOOTH",
"105 46 OFFCURVE",
"208 -10 OFFCURVE",
"375 -10 CURVE SMOOTH"
);
},
{
closed = 1;
nodes = (
"483 774 OFFCURVE",
"525 830 OFFCURVE",
"529 905 CURVE",
"496 905 LINE",
"490 846 OFFCURVE",
"448 820 OFFCURVE",
"384 820 CURVE SMOOTH",
"320 820 OFFCURVE",
"277 846 OFFCURVE",
"270 905 CURVE",
"237 905 LINE",
"241 827 OFFCURVE",
"283 774 OFFCURVE",
"384 774 CURVE SMOOTH"
);
}
);
};
components = (
{
name = U;
},
{
name = breve;
transform = "{1, 0, 0, 1, 148, 230}";
}
);
layerId = "0B1DFD06-3317-40CA-B510-4969A0718C16";
width = 742;
}
);
leftKerningGroup = U;
note = Ubreve;
rightKerningGroup = U;
unicode = 016C;
},
{
glyphname = Ucaron;
lastChange = "2017-12-19 05:21:12 +0000";
layers = (
{
background = {
paths = (
{
closed = 1;
nodes = (
"539 -10 OFFCURVE",
"636 51 OFFCURVE",
"636 204 CURVE SMOOTH",
"636 637 LINE SMOOTH",
"636 662 OFFCURVE",
"660 673 OFFCURVE",
"690 673 CURVE SMOOTH",
"713 673 LINE",
"713 700 LINE",
"510 700 LINE",
"510 673 LINE",
"532 673 LINE SMOOTH",
"564 673 OFFCURVE",
"586 662 OFFCURVE",
"586 637 CURVE SMOOTH",
"586 197 LINE SMOOTH",
"586 65 OFFCURVE",
"489 31 OFFCURVE",
"397 31 CURVE SMOOTH",
"290 31 OFFCURVE",
"203 63 OFFCURVE",
"203 197 CURVE SMOOTH",
"203 637 LINE SMOOTH",
"203 662 OFFCURVE",
"226 673 OFFCURVE",
"257 673 CURVE SMOOTH",
"280 673 LINE",
"280 700 LINE",
"28 700 LINE",
"28 673 LINE",
"51 673 LINE SMOOTH",
"82 673 OFFCURVE",
"105 662 OFFCURVE",
"105 637 CURVE SMOOTH",
"105 204 LINE SMOOTH",
"105 46 OFFCURVE",
"208 -10 OFFCURVE",
"375 -10 CURVE SMOOTH"
);
},
{
closed = 1;
nodes = (
"397 782 LINE",
"521 911 LINE",
"502 932 LINE",
"394 847 LINE",
"386 840 OFFCURVE",
"377 836 OFFCURVE",
"371 836 CURVE SMOOTH",
"365 836 OFFCURVE",
"357 840 OFFCURVE",
"347 847 CURVE",
"239 932 LINE",
"220 911 LINE",
"344 782 LINE"
);
}
);
};
components = (
{
name = U;
},
{
name = caron;
transform = "{1, 0, 0, 1, 148, 230}";
}
);
layerId = "0B1DFD06-3317-40CA-B510-4969A0718C16";
width = 742;
}
);
leftKerningGroup = U;
note = Ucaron;
rightKerningGroup = U;
unicode = 01D3;
},
{
glyphname = Ucircumflex;
lastChange = "2017-12-19 05:21:12 +0000";
layers = (
{
background = {
paths = (
{
closed = 1;
nodes = (
"539 -10 OFFCURVE",
"636 51 OFFCURVE",
"636 204 CURVE SMOOTH",
"636 637 LINE SMOOTH",
"636 662 OFFCURVE",
"660 673 OFFCURVE",
"690 673 CURVE SMOOTH",
"713 673 LINE",
"713 700 LINE",
"510 700 LINE",
"510 673 LINE",
"532 673 LINE SMOOTH",
"564 673 OFFCURVE",
"586 662 OFFCURVE",
"586 637 CURVE SMOOTH",
"586 197 LINE SMOOTH",
"586 65 OFFCURVE",
"489 31 OFFCURVE",
"397 31 CURVE SMOOTH",
"290 31 OFFCURVE",
"203 63 OFFCURVE",
"203 197 CURVE SMOOTH",
"203 637 LINE SMOOTH",
"203 662 OFFCURVE",
"226 673 OFFCURVE",
"257 673 CURVE SMOOTH",
"280 673 LINE",
"280 700 LINE",
"28 700 LINE",
"28 673 LINE",
"51 673 LINE SMOOTH",
"82 673 OFFCURVE",
"105 662 OFFCURVE",
"105 637 CURVE SMOOTH",
"105 204 LINE SMOOTH",
"105 46 OFFCURVE",
"208 -10 OFFCURVE",
"375 -10 CURVE SMOOTH"
);
},
{
closed = 1;
nodes = (
"360 868 LINE SMOOTH",
"368 874 OFFCURVE",
"378 879 OFFCURVE",
"384 879 CURVE SMOOTH",
"390 879 OFFCURVE",
"398 874 OFFCURVE",
"407 868 CURVE",
"515 782 LINE",
"534 803 LINE",
"410 932 LINE",
"357 932 LINE",
"233 803 LINE",
"252 782 LINE"
);
}
);
};
components = (
{
name = U;
},
{
name = circumflex;
transform = "{1, 0, 0, 1, 148, 230}";
}
);
layerId = "0B1DFD06-3317-40CA-B510-4969A0718C16";
width = 742;
}
);
leftKerningGroup = U;
note = Ucircumflex;
rightKerningGroup = U;
unicode = 00DB;
},
{
glyphname = Udieresis;
lastChange = "2017-12-19 05:21:12 +0000";
layers = (
{
background = {
paths = (
{
closed = 1;
nodes = (
"539 -10 OFFCURVE",
"636 51 OFFCURVE",
"636 204 CURVE SMOOTH",
"636 637 LINE SMOOTH",
"636 662 OFFCURVE",
"660 673 OFFCURVE",
"690 673 CURVE SMOOTH",
"713 673 LINE",
"713 700 LINE",
"510 700 LINE",
"510 673 LINE",
"532 673 LINE SMOOTH",
"564 673 OFFCURVE",
"586 662 OFFCURVE",
"586 637 CURVE SMOOTH",
"586 197 LINE SMOOTH",
"586 65 OFFCURVE",
"489 31 OFFCURVE",
"397 31 CURVE SMOOTH",
"290 31 OFFCURVE",
"203 63 OFFCURVE",
"203 197 CURVE SMOOTH",
"203 637 LINE SMOOTH",
"203 662 OFFCURVE",
"226 673 OFFCURVE",
"257 673 CURVE SMOOTH",
"280 673 LINE",
"280 700 LINE",
"28 700 LINE",
"28 673 LINE",
"51 673 LINE SMOOTH",
"82 673 OFFCURVE",
"105 662 OFFCURVE",
"105 637 CURVE SMOOTH",
"105 204 LINE SMOOTH",
"105 46 OFFCURVE",
"208 -10 OFFCURVE",
"375 -10 CURVE SMOOTH"
);
},
{
closed = 1;
nodes = (
"304 781 OFFCURVE",
"322 800 OFFCURVE",
"322 827 CURVE SMOOTH",
"322 855 OFFCURVE",
"304 875 OFFCURVE",
"275 875 CURVE SMOOTH",
"247 875 OFFCURVE",
"229 855 OFFCURVE",
"229 827 CURVE SMOOTH",
"229 800 OFFCURVE",
"247 781 OFFCURVE",
"275 781 CURVE SMOOTH"
);
},
{
closed = 1;
nodes = (
"520 781 OFFCURVE",
"538 800 OFFCURVE",
"538 827 CURVE SMOOTH",
"538 855 OFFCURVE",
"520 875 OFFCURVE",
"491 875 CURVE SMOOTH",
"462 875 OFFCURVE",
"444 855 OFFCURVE",
"444 827 CURVE SMOOTH",
"444 800 OFFCURVE",
"462 781 OFFCURVE",
"491 781 CURVE SMOOTH"
);
}
);
};
components = (
{
name = U;
},
{
name = dieresis;
transform = "{1, 0, 0, 1, 148, 230}";
}
);
layerId = "0B1DFD06-3317-40CA-B510-4969A0718C16";
width = 742;
}
);
leftKerningGroup = U;
note = Udieresis;
rightKerningGroup = U;
unicode = 00DC;
},
{
glyphname = Udieresisacute;
lastChange = "2017-12-19 05:21:12 +0000";
layers = (
{
background = {
paths = (
{
closed = 1;
nodes = (
"539 -10 OFFCURVE",
"636 51 OFFCURVE",
"636 204 CURVE SMOOTH",
"636 637 LINE SMOOTH",
"636 662 OFFCURVE",
"660 673 OFFCURVE",
"690 673 CURVE SMOOTH",
"713 673 LINE",
"713 700 LINE",
"510 700 LINE",
"510 673 LINE",
"532 673 LINE SMOOTH",
"564 673 OFFCURVE",
"586 662 OFFCURVE",
"586 637 CURVE SMOOTH",
"586 197 LINE SMOOTH",
"586 65 OFFCURVE",
"489 31 OFFCURVE",
"397 31 CURVE SMOOTH",
"290 31 OFFCURVE",
"203 63 OFFCURVE",
"203 197 CURVE SMOOTH",
"203 637 LINE SMOOTH",
"203 662 OFFCURVE",
"226 673 OFFCURVE",
"257 673 CURVE SMOOTH",
"280 673 LINE",
"280 700 LINE",
"28 700 LINE",
"28 673 LINE",
"51 673 LINE SMOOTH",
"82 673 OFFCURVE",
"105 662 OFFCURVE",
"105 637 CURVE SMOOTH",
"105 204 LINE SMOOTH",
"105 46 OFFCURVE",
"208 -10 OFFCURVE",
"375 -10 CURVE SMOOTH"
);
},
{
closed = 1;
nodes = (
"291 780 OFFCURVE",
"310 799 OFFCURVE",
"310 827 CURVE SMOOTH",
"310 855 OFFCURVE",
"291 875 OFFCURVE",
"262 875 CURVE SMOOTH",
"235 875 OFFCURVE",
"216 855 OFFCURVE",
"216 827 CURVE SMOOTH",
"216 799 OFFCURVE",
"235 780 OFFCURVE",
"262 780 CURVE SMOOTH"
);
},
{
closed = 1;
nodes = (
"507 780 OFFCURVE",
"526 799 OFFCURVE",
"526 827 CURVE SMOOTH",
"526 855 OFFCURVE",
"507 875 OFFCURVE",
"479 875 CURVE SMOOTH",
"451 875 OFFCURVE",
"432 855 OFFCURVE",
"432 827 CURVE SMOOTH",
"432 799 OFFCURVE",
"451 780 OFFCURVE",
"479 780 CURVE SMOOTH"
);
},
{
closed = 1;
nodes = (
"481 969 LINE SMOOTH",
"502 981 OFFCURVE",
"512 993 OFFCURVE",
"512 1009 CURVE SMOOTH",
"512 1024 OFFCURVE",
"503 1037 OFFCURVE",
"481 1037 CURVE SMOOTH",
"460 1037 OFFCURVE",
"442 1020 OFFCURVE",
"435 1013 CURVE SMOOTH",
"344 924 LINE",
"362 899 LINE"
);
}
);
};
components = (
{
name = U;
},
{
name = dieresisacute;
transform = "{1, 0, 0, 1, 149, 230}";
}
);
layerId = "0B1DFD06-3317-40CA-B510-4969A0718C16";
width = 742;
}
);
leftKerningGroup = U;
note = Udieresisacute;
rightKerningGroup = U;
unicode = 01D7;
},
{
glyphname = Udieresiscaron;
lastChange = "2017-12-19 05:21:12 +0000";
layers = (
{
background = {
paths = (
{
closed = 1;
nodes = (
"539 -10 OFFCURVE",
"636 51 OFFCURVE",
"636 204 CURVE SMOOTH",
"636 637 LINE SMOOTH",
"636 662 OFFCURVE",
"660 673 OFFCURVE",
"690 673 CURVE SMOOTH",
"713 673 LINE",
"713 700 LINE",
"510 700 LINE",
"510 673 LINE",
"532 673 LINE SMOOTH",
"564 673 OFFCURVE",
"586 662 OFFCURVE",
"586 637 CURVE SMOOTH",
"586 197 LINE SMOOTH",
"586 65 OFFCURVE",
"489 31 OFFCURVE",
"397 31 CURVE SMOOTH",
"290 31 OFFCURVE",
"203 63 OFFCURVE",
"203 197 CURVE SMOOTH",
"203 637 LINE SMOOTH",
"203 662 OFFCURVE",
"226 673 OFFCURVE",
"257 673 CURVE SMOOTH",
"280 673 LINE",
"280 700 LINE",
"28 700 LINE",
"28 673 LINE",
"51 673 LINE SMOOTH",
"82 673 OFFCURVE",
"105 662 OFFCURVE",
"105 637 CURVE SMOOTH",
"105 204 LINE SMOOTH",
"105 46 OFFCURVE",
"208 -10 OFFCURVE",
"375 -10 CURVE SMOOTH"
);
},
{
closed = 1;
nodes = (
"296 780 OFFCURVE",
"315 799 OFFCURVE",
"315 827 CURVE SMOOTH",
"315 855 OFFCURVE",
"296 875 OFFCURVE",
"267 875 CURVE SMOOTH",
"240 875 OFFCURVE",
"221 855 OFFCURVE",
"221 827 CURVE SMOOTH",
"221 799 OFFCURVE",
"240 780 OFFCURVE",
"267 780 CURVE SMOOTH"
);
},
{
closed = 1;
nodes = (
"512 780 OFFCURVE",
"531 799 OFFCURVE",
"531 827 CURVE SMOOTH",
"531 855 OFFCURVE",
"512 875 OFFCURVE",
"484 875 CURVE SMOOTH",
"456 875 OFFCURVE",
"437 855 OFFCURVE",
"437 827 CURVE SMOOTH",
"437 799 OFFCURVE",
"456 780 OFFCURVE",
"484 780 CURVE SMOOTH"
);
},
{
closed = 1;
nodes = (
"401 911 LINE",
"523 1035 LINE",
"505 1056 LINE",
"404 978 LINE",
"394 971 OFFCURVE",
"385 963 OFFCURVE",
"376 963 CURVE SMOOTH",
"369 963 OFFCURVE",
"357 971 OFFCURVE",
"347 978 CURVE",
"246 1056 LINE",
"228 1035 LINE",
"350 911 LINE"
);
}
);
};
components = (
{
name = U;
},
{
name = dieresiscaron;
transform = "{1, 0, 0, 1, 149, 230}";
}
);
layerId = "0B1DFD06-3317-40CA-B510-4969A0718C16";
width = 742;
}
);
leftKerningGroup = U;
note = Udieresiscaron;
rightKerningGroup = U;
unicode = 01D9;
},
{
glyphname = Udieresisgrave;
lastChange = "2017-12-19 05:21:12 +0000";
layers = (
{
background = {
paths = (
{
closed = 1;
nodes = (
"539 -10 OFFCURVE",
"636 51 OFFCURVE",
"636 204 CURVE SMOOTH",
"636 637 LINE SMOOTH",
"636 662 OFFCURVE",
"660 673 OFFCURVE",
"690 673 CURVE SMOOTH",
"713 673 LINE",
"713 700 LINE",
"510 700 LINE",
"510 673 LINE",
"532 673 LINE SMOOTH",
"564 673 OFFCURVE",
"586 662 OFFCURVE",
"586 637 CURVE SMOOTH",
"586 197 LINE SMOOTH",
"586 65 OFFCURVE",
"489 31 OFFCURVE",
"397 31 CURVE SMOOTH",
"290 31 OFFCURVE",
"203 63 OFFCURVE",
"203 197 CURVE SMOOTH",
"203 637 LINE SMOOTH",
"203 662 OFFCURVE",
"226 673 OFFCURVE",
"257 673 CURVE SMOOTH",
"280 673 LINE",
"280 700 LINE",
"28 700 LINE",
"28 673 LINE",
"51 673 LINE SMOOTH",
"82 673 OFFCURVE",
"105 662 OFFCURVE",
"105 637 CURVE SMOOTH",
"105 204 LINE SMOOTH",
"105 46 OFFCURVE",
"208 -10 OFFCURVE",
"375 -10 CURVE SMOOTH"
);
},
{
closed = 1;
nodes = (
"296 780 OFFCURVE",
"315 799 OFFCURVE",
"315 827 CURVE SMOOTH",
"315 855 OFFCURVE",
"296 875 OFFCURVE",
"267 875 CURVE SMOOTH",
"240 875 OFFCURVE",
"221 855 OFFCURVE",
"221 827 CURVE SMOOTH",
"221 799 OFFCURVE",
"240 780 OFFCURVE",
"267 780 CURVE SMOOTH"
);
},
{
closed = 1;
nodes = (
"403 924 LINE",
"312 1013 LINE SMOOTH",
"305 1020 OFFCURVE",
"288 1036 OFFCURVE",
"267 1036 CURVE SMOOTH",
"245 1036 OFFCURVE",
"235 1024 OFFCURVE",
"235 1009 CURVE SMOOTH",
"235 993 OFFCURVE",
"245 981 OFFCURVE",
"266 969 CURVE SMOOTH",
"385 899 LINE"
);
},
{
closed = 1;
nodes = (
"512 780 OFFCURVE",
"531 799 OFFCURVE",
"531 827 CURVE SMOOTH",
"531 855 OFFCURVE",
"512 875 OFFCURVE",
"484 875 CURVE SMOOTH",
"456 875 OFFCURVE",
"437 855 OFFCURVE",
"437 827 CURVE SMOOTH",
"437 799 OFFCURVE",
"456 780 OFFCURVE",
"484 780 CURVE SMOOTH"
);
}
);
};
components = (
{
name = U;
},
{
name = dieresisgrave;
transform = "{1, 0, 0, 1, 149, 230}";
}
);
layerId = "0B1DFD06-3317-40CA-B510-4969A0718C16";
width = 742;
}
);
leftKerningGroup = U;
note = Udieresisgrave;
rightKerningGroup = U;
unicode = 01DB;
},
{
glyphname = Udieresismacron;
lastChange = "2017-12-19 05:21:12 +0000";
layers = (
{
background = {
paths = (
{
closed = 1;
nodes = (
"539 -10 OFFCURVE",
"636 51 OFFCURVE",
"636 204 CURVE SMOOTH",
"636 637 LINE SMOOTH",
"636 662 OFFCURVE",
"660 673 OFFCURVE",
"690 673 CURVE SMOOTH",
"713 673 LINE",
"713 700 LINE",
"510 700 LINE",
"510 673 LINE",
"532 673 LINE SMOOTH",
"564 673 OFFCURVE",
"586 662 OFFCURVE",
"586 637 CURVE SMOOTH",
"586 197 LINE SMOOTH",
"586 65 OFFCURVE",
"489 31 OFFCURVE",
"397 31 CURVE SMOOTH",
"290 31 OFFCURVE",
"203 63 OFFCURVE",
"203 197 CURVE SMOOTH",
"203 637 LINE SMOOTH",
"203 662 OFFCURVE",
"226 673 OFFCURVE",
"257 673 CURVE SMOOTH",
"280 673 LINE",
"280 700 LINE",
"28 700 LINE",
"28 673 LINE",
"51 673 LINE SMOOTH",
"82 673 OFFCURVE",
"105 662 OFFCURVE",
"105 637 CURVE SMOOTH",
"105 204 LINE SMOOTH",
"105 46 OFFCURVE",
"208 -10 OFFCURVE",
"375 -10 CURVE SMOOTH"
);
},
{
closed = 1;
nodes = (
"291 781 OFFCURVE",
"309 800 OFFCURVE",
"309 827 CURVE SMOOTH",
"309 855 OFFCURVE",
"291 875 OFFCURVE",
"262 875 CURVE SMOOTH",
"234 875 OFFCURVE",
"216 855 OFFCURVE",
"216 827 CURVE SMOOTH",
"216 800 OFFCURVE",
"234 781 OFFCURVE",
"262 781 CURVE SMOOTH"
);
},
{
closed = 1;
nodes = (
"507 781 OFFCURVE",
"525 800 OFFCURVE",
"525 827 CURVE SMOOTH",
"525 855 OFFCURVE",
"507 875 OFFCURVE",
"478 875 CURVE SMOOTH",
"449 875 OFFCURVE",
"431 855 OFFCURVE",
"431 827 CURVE SMOOTH",
"431 800 OFFCURVE",
"449 781 OFFCURVE",
"478 781 CURVE SMOOTH"
);
},
{
closed = 1;
nodes = (
"537 928 LINE",
"537 970 LINE",
"204 970 LINE",
"204 928 LINE"
);
}
);
};
components = (
{
name = U;
},
{
name = dieresis;
transform = "{1, 0, 0, 1, 148, 230}";
},
{
alignment = -1;
name = macron;
transform = "{1, 0, 0, 1, 145, 356}";
}
);
layerId = "0B1DFD06-3317-40CA-B510-4969A0718C16";
width = 742;
}
);
leftKerningGroup = U;
note = Udieresismacron;
rightKerningGroup = U;
unicode = 01D5;
},
{
glyphname = Uhorn;
lastChange = "2017-12-19 07:31:34 +0000";
layers = (
{
layerId = "0B1DFD06-3317-40CA-B510-4969A0718C16";
paths = (
{
closed = 1;
nodes = (
"606 591 LINE",
"675 638 OFFCURVE",
"714 697 OFFCURVE",
"723 766 CURVE",
"676 766 LINE",
"673 717 OFFCURVE",
"650 673 OFFCURVE",
"606 635 CURVE",
"606 700 LINE",
"548 700 LINE",
"548 297 LINE SMOOTH",
"550 113 OFFCURVE",
"467 35 OFFCURVE",
"343 35 CURVE SMOOTH",
"219 35 OFFCURVE",
"137 113 OFFCURVE",
"137 297 CURVE SMOOTH",
"137 700 LINE",
"79 700 LINE",
"79 295 LINE SMOOTH",
"79 90 OFFCURVE",
"168 -13 OFFCURVE",
"343 -13 CURVE SMOOTH",
"517 -13 OFFCURVE",
"606 90 OFFCURVE",
"606 295 CURVE SMOOTH"
);
}
);
width = 685;
}
);
note = Uhorn;
unicode = 01AF;
},
{
color = 0;
glyphname = "alpha-latin";
lastChange = "2017-12-19 05:24:05 +0000";
layers = (
{
layerId = "0B1DFD06-3317-40CA-B510-4969A0718C16";
paths = (
{
closed = 1;
nodes = (
"304 -10 OFFCURVE",
"357 10 OFFCURVE",
"393 69 CURVE",
"393 37 LINE SMOOTH",
"393 0 OFFCURVE",
"429 -10 OFFCURVE",
"461 -10 CURVE SMOOTH",
"491 -10 OFFCURVE",
"523 -1 OFFCURVE",
"545 17 CURVE",
"545 34 LINE",
"531 29 OFFCURVE",
"519 26 OFFCURVE",
"510 26 CURVE SMOOTH",
"494 26 OFFCURVE",
"486 36 OFFCURVE",
"486 58 CURVE SMOOTH",
"486 403 LINE",
"452 444 OFFCURVE",
"374 480 OFFCURVE",
"279 480 CURVE SMOOTH",
"141 480 OFFCURVE",
"26 405 OFFCURVE",
"26 215 CURVE SMOOTH",
"26 67 OFFCURVE",
"96 -10 OFFCURVE",
"234 -10 CURVE SMOOTH"
);
},
{
closed = 1;
nodes = (
"152 28 OFFCURVE",
"119 116 OFFCURVE",
"119 222 CURVE SMOOTH",
"119 370 OFFCURVE",
"183 441 OFFCURVE",
"279 441 CURVE SMOOTH",
"330 441 OFFCURVE",
"368 421 OFFCURVE",
"392 398 CURVE",
"392 169 LINE SMOOTH",
"392 98 OFFCURVE",
"346 28 OFFCURVE",
"255 28 CURVE SMOOTH"
);
}
);
width = 558;
}
);
leftKerningGroup = a;
note = ascript;
rightKerningGroup = a;
unicode = 0251;
},
{
glyphname = ae;
lastChange = "2017-12-19 07:31:51 +0000";
layers = (
{
layerId = "0B1DFD06-3317-40CA-B510-4969A0718C16";
paths = (
{
closed = 1;
nodes = (
"809 71 LINE",
"751 49 OFFCURVE",
"692 37 OFFCURVE",
"634 37 CURVE SMOOTH",
"515 37 OFFCURVE",
"432 113 OFFCURVE",
"428 247 CURVE",
"836 247 LINE",
"833 422 OFFCURVE",
"761 510 OFFCURVE",
"622 510 CURVE SMOOTH",
"531 510 OFFCURVE",
"462 473 OFFCURVE",
"415 398 CURVE",
"388 473 OFFCURVE",
"329 510 OFFCURVE",
"240 510 CURVE SMOOTH",
"181 510 OFFCURVE",
"123 501 OFFCURVE",
"69 484 CURVE",
"76 431 LINE",
"148 453 OFFCURVE",
"201 465 OFFCURVE",
"235 465 CURVE SMOOTH",
"290 465 OFFCURVE",
"328 445 OFFCURVE",
"350 406 CURVE SMOOTH",
"365 381 OFFCURVE",
"372 353 OFFCURVE",
"372 320 CURVE SMOOTH",
"372 312 LINE",
"363 312 LINE SMOOTH",
"147 312 OFFCURVE",
"38 250 OFFCURVE",
"38 125 CURVE SMOOTH",
"38 38 OFFCURVE",
"110 -13 OFFCURVE",
"197 -13 CURVE SMOOTH",
"307 -13 OFFCURVE",
"376 29 OFFCURVE",
"404 115 CURVE",
"453 29 OFFCURVE",
"526 -13 OFFCURVE",
"628 -13 CURVE SMOOTH",
"694 -13 OFFCURVE",
"756 -1 OFFCURVE",
"813 22 CURVE"
);
},
{
closed = 1;
nodes = (
"372 210 LINE SMOOTH",
"372 147 OFFCURVE",
"351 100 OFFCURVE",
"312 69 CURVE",
"281 47 OFFCURVE",
"244 35 OFFCURVE",
"201 35 CURVE SMOOTH",
"143 35 OFFCURVE",
"98 71 OFFCURVE",
"98 135 CURVE SMOOTH",
"98 219 OFFCURVE",
"190 262 OFFCURVE",
"372 262 CURVE"
);
},
{
closed = 1;
nodes = (
"431 293 LINE",
"438 337 OFFCURVE",
"454 375 OFFCURVE",
"482 406 CURVE SMOOTH",
"516 445 OFFCURVE",
"560 465 OFFCURVE",
"614 465 CURVE SMOOTH",
"675 465 OFFCURVE",
"719 442 OFFCURVE",
"748 400 CURVE SMOOTH",
"770 369 OFFCURVE",
"781 332 OFFCURVE",
"782 293 CURVE"
);
}
);
width = 894;
}
);
note = ae;
unicode = 00E6;
},
{
glyphname = eth;
lastChange = "2017-12-19 07:32:00 +0000";
layers = (
{
layerId = "0B1DFD06-3317-40CA-B510-4969A0718C16";
paths = (
{
closed = 1;
nodes = (
"473 353 OFFCURVE",
"438 453 OFFCURVE",
"369 541 CURVE SMOOTH",
"356 559 OFFCURVE",
"341 575 OFFCURVE",
"325 589 CURVE",
"423 654 LINE",
"398 694 LINE",
"288 622 LINE",
"234 664 OFFCURVE",
"172 692 OFFCURVE",
"103 706 CURVE",
"98 663 LINE",
"148 648 OFFCURVE",
"196 625 OFFCURVE",
"240 591 CURVE",
"125 517 LINE",
"150 478 LINE",
"278 559 LINE",
"338 501 OFFCURVE",
"379 435 OFFCURVE",
"401 359 CURVE",
"397 372 OFFCURVE",
"382 387 OFFCURVE",
"360 403 CURVE",
"329 422 OFFCURVE",
"293 432 OFFCURVE",
"251 432 CURVE SMOOTH",
"194 432 OFFCURVE",
"147 410 OFFCURVE",
"110 366 CURVE SMOOTH",
"74 322 OFFCURVE",
"56 269 OFFCURVE",
"56 207 CURVE SMOOTH",
"56 79 OFFCURVE",
"132 -18 OFFCURVE",
"256 -18 CURVE SMOOTH",
"325 -18 OFFCURVE",
"381 9 OFFCURVE",
"420 62 CURVE SMOOTH",
"456 109 OFFCURVE",
"473 168 OFFCURVE",
"473 240 CURVE SMOOTH"
);
},
{
closed = 1;
nodes = (
"415 112 OFFCURVE",
"347 32 OFFCURVE",
"263 32 CURVE SMOOTH",
"169 32 OFFCURVE",
"115 112 OFFCURVE",
"115 207 CURVE SMOOTH",
"115 306 OFFCURVE",
"171 384 OFFCURVE",
"263 384 CURVE SMOOTH",
"306 384 OFFCURVE",
"341 366 OFFCURVE",
"370 332 CURVE SMOOTH",
"400 298 OFFCURVE",
"415 256 OFFCURVE",
"415 207 CURVE SMOOTH"
);
}
);
width = 532;
}
);
note = eth;
unicode = 00F0;
},
{
color = 0;
glyphname = dcaron;
lastChange = "2017-12-19 05:24:30 +0000";
layers = (
{
layerId = "0B1DFD06-3317-40CA-B510-4969A0718C16";
paths = (
{
closed = 1;
nodes = (
"321 -10 OFFCURVE",
"381 14 OFFCURVE",
"417 74 CURVE",
"422 -4 LINE",
"564 11 LINE",
"564 34 LINE",
"541 34 LINE SMOOTH",
"513 34 OFFCURVE",
"499 44 OFFCURVE",
"499 69 CURVE SMOOTH",
"499 717 LINE",
"474 717 LINE",
"349 672 LINE",
"355 649 LINE",
"365 653 OFFCURVE",
"377 657 OFFCURVE",
"385 657 CURVE SMOOTH",
"394 657 OFFCURVE",
"405 654 OFFCURVE",
"405 636 CURVE SMOOTH",
"405 410 LINE",
"363 467 OFFCURVE",
"298 480 OFFCURVE",
"242 480 CURVE SMOOTH",
"123 480 OFFCURVE",
"31 401 OFFCURVE",
"31 245 CURVE SMOOTH",
"31 60 OFFCURVE",
"118 -10 OFFCURVE",
"243 -10 CURVE SMOOTH"
);
},
{
closed = 1;
nodes = (
"160 28 OFFCURVE",
"124 120 OFFCURVE",
"124 242 CURVE SMOOTH",
"124 372 OFFCURVE",
"176 440 OFFCURVE",
"275 440 CURVE SMOOTH",
"337 440 OFFCURVE",
"406 392 OFFCURVE",
"406 320 CURVE SMOOTH",
"406 168 LINE SMOOTH",
"406 97 OFFCURVE",
"357 28 OFFCURVE",
"269 28 CURVE SMOOTH"
);
},
{
closed = 1;
nodes = (
"630 523 OFFCURVE",
"674 583 OFFCURVE",
"674 646 CURVE SMOOTH",
"674 694 OFFCURVE",
"650 714 OFFCURVE",
"621 714 CURVE SMOOTH",
"592 714 OFFCURVE",
"575 694 OFFCURVE",
"575 670 CURVE SMOOTH",
"575 636 OFFCURVE",
"610 629 OFFCURVE",
"610 594 CURVE SMOOTH",
"610 558 OFFCURVE",
"584 525 OFFCURVE",
"557 499 CURVE",
"574 482 LINE"
);
}
);
width = 686;
}
);
leftKerningGroup = d;
note = dcaron;
unicode = 010F;
},
{
glyphname = dcroat;
lastChange = "2017-12-19 07:32:00 +0000";
layers = (
{
layerId = "0B1DFD06-3317-40CA-B510-4969A0718C16";
paths = (
{
closed = 1;
nodes = (
"584 675 LINE",
"513 675 LINE",
"513 742 LINE",
"456 742 LINE",
"456 675 LINE",
"265 675 LINE",
"265 626 LINE",
"456 626 LINE",
"456 404 LINE",
"413 475 OFFCURVE",
"350 510 OFFCURVE",
"266 510 CURVE SMOOTH",
"126 510 OFFCURVE",
"41 403 OFFCURVE",
"41 256 CURVE SMOOTH",
"41 96 OFFCURVE",
"132 -13 OFFCURVE",
"275 -13 CURVE SMOOTH",
"354 -13 OFFCURVE",
"416 21 OFFCURVE",
"462 88 CURVE",
"462 54 OFFCURVE",
"463 25 OFFCURVE",
"465 0 CURVE",
"517 0 LINE",
"515 25 OFFCURVE",
"513 66 OFFCURVE",
"513 122 CURVE SMOOTH",
"513 626 LINE",
"584 626 LINE"
);
},
{
closed = 1;
nodes = (
"456 200 LINE SMOOTH",
"456 106 OFFCURVE",
"381 35 OFFCURVE",
"282 35 CURVE SMOOTH",
"159 35 OFFCURVE",
"97 109 OFFCURVE",
"97 254 CURVE SMOOTH",
"97 378 OFFCURVE",
"163 465 OFFCURVE",
"276 465 CURVE SMOOTH",
"323 465 OFFCURVE",
"365 448 OFFCURVE",
"401 415 CURVE SMOOTH",
"438 381 OFFCURVE",
"456 338 OFFCURVE",
"456 284 CURVE SMOOTH"
);
}
);
width = 589;
}
);
note = dslash;
unicode = 0111;
},
{
color = 0;
glyphname = schwa;
lastChange = "2017-12-19 05:24:34 +0000";
layers = (
{
layerId = "0B1DFD06-3317-40CA-B510-4969A0718C16";
paths = (
{
closed = 1;
nodes = (
"396 -10 OFFCURVE",
"487 83 OFFCURVE",
"487 236 CURVE SMOOTH",
"487 393 OFFCURVE",
"392 480 OFFCURVE",
"246 480 CURVE SMOOTH",
"112 480 OFFCURVE",
"47 407 OFFCURVE",
"36 303 CURVE",
"65 303 LINE",
"83 407 OFFCURVE",
"154 444 OFFCURVE",
"225 444 CURVE SMOOTH",
"331 444 OFFCURVE",
"392 360 OFFCURVE",
"392 234 CURVE SMOOTH",
"392 121 OFFCURVE",
"343 28 OFFCURVE",
"242 28 CURVE SMOOTH",
"147 28 OFFCURVE",
"117 112 OFFCURVE",
"115 173 CURVE",
"403 173 LINE",
"403 212 LINE",
"32 212 LINE",
"32 189 LINE SMOOTH",
"32 77 OFFCURVE",
"100 -10 OFFCURVE",
"246 -10 CURVE SMOOTH"
);
}
);
width = 521;
}
);
note = schwa;
unicode = 0259;
},
{
color = 0;
glyphname = hbar;
lastChange = "2017-12-19 05:24:39 +0000";
layers = (
{
layerId = "0B1DFD06-3317-40CA-B510-4969A0718C16";
paths = (
{
closed = 1;
nodes = (
"600 0 LINE",
"600 25 LINE",
"582 25 LINE SMOOTH",
"552 25 OFFCURVE",
"528 34 OFFCURVE",
"528 57 CURVE SMOOTH",
"528 344 LINE SMOOTH",
"528 424 OFFCURVE",
"471 480 OFFCURVE",
"357 480 CURVE SMOOTH",
"265 480 OFFCURVE",
"194 424 OFFCURVE",
"178 373 CURVE",
"178 285 LINE",
"188 285 LINE",
"188 389 OFFCURVE",
"264 439 OFFCURVE",
"330 439 CURVE SMOOTH",
"396 439 OFFCURVE",
"434 404 OFFCURVE",
"434 332 CURVE SMOOTH",
"434 57 LINE SMOOTH",
"434 34 OFFCURVE",
"411 25 OFFCURVE",
"383 25 CURVE SMOOTH",
"367 25 LINE",
"367 0 LINE"
);
},
{
closed = 1;
nodes = (
"255 0 LINE",
"255 25 LINE",
"240 25 LINE SMOOTH",
"212 25 OFFCURVE",
"188 34 OFFCURVE",
"188 57 CURVE SMOOTH",
"188 717 LINE",
"163 717 LINE",
"37 672 LINE",
"44 649 LINE",
"54 653 OFFCURVE",
"66 657 OFFCURVE",
"73 657 CURVE SMOOTH",
"83 657 OFFCURVE",
"94 654 OFFCURVE",
"94 636 CURVE SMOOTH",
"94 57 LINE SMOOTH",
"94 34 OFFCURVE",
"71 25 OFFCURVE",
"41 25 CURVE SMOOTH",
"22 25 LINE",
"22 0 LINE"
);
},
{
closed = 1;
nodes = (
"339 559 LINE",
"339 594 LINE",
"40 594 LINE",
"40 559 LINE"
);
}
);
width = 622;
}
);
note = hbar;
rightKerningGroup = h;
unicode = 0127;
},
{
glyphname = idotless;
lastChange = "2017-12-19 05:49:06 +0000";
layers = (
{
layerId = "0B1DFD06-3317-40CA-B510-4969A0718C16";
paths = (
{
closed = 1;
nodes = (
"155 576 LINE",
"155 604 OFFCURVE",
"110 604 OFFCURVE",
"110 576 CURVE SMOOTH",
"115 40 LINE",
"119 14 OFFCURVE",
"157 8 OFFCURVE",
"162 40 CURVE"
);
}
);
width = 282;
}
);
note = dotlessi;
unicode = 0131;
},
{
color = 0;
glyphname = ij;
lastChange = "2017-12-19 05:24:49 +0000";
layers = (
{
layerId = "0B1DFD06-3317-40CA-B510-4969A0718C16";
paths = (
{
closed = 1;
nodes = (
"472 -107 OFFCURVE",
"516 -25 OFFCURVE",
"516 102 CURVE SMOOTH",
"516 473 LINE",
"491 473 LINE",
"365 428 LINE",
"372 406 LINE",
"383 410 OFFCURVE",
"394 414 OFFCURVE",
"402 414 CURVE SMOOTH",
"411 414 OFFCURVE",
"423 410 OFFCURVE",
"423 393 CURVE SMOOTH",
"423 97 LINE SMOOTH",
"423 -4 OFFCURVE",
"418 -72 OFFCURVE",
"326 -110 CURVE",
"331 -132 LINE"
);
},
{
closed = 1;
nodes = (
"265 0 LINE",
"265 25 LINE",
"246 25 LINE SMOOTH",
"217 25 OFFCURVE",
"193 34 OFFCURVE",
"193 57 CURVE SMOOTH",
"193 475 LINE",
"168 475 LINE",
"42 431 LINE",
"49 408 LINE",
"59 411 OFFCURVE",
"71 416 OFFCURVE",
"78 416 CURVE SMOOTH",
"88 416 OFFCURVE",
"99 412 OFFCURVE",
"99 394 CURVE SMOOTH",
"99 57 LINE SMOOTH",
"99 34 OFFCURVE",
"76 25 OFFCURVE",
"46 25 CURVE SMOOTH",
"27 25 LINE",
"27 0 LINE"
);
},
{
closed = 1;
nodes = (
"171 561 OFFCURVE",
"194 584 OFFCURVE",
"194 616 CURVE SMOOTH",
"194 649 OFFCURVE",
"171 671 OFFCURVE",
"138 671 CURVE SMOOTH",
"103 671 OFFCURVE",
"81 649 OFFCURVE",
"81 616 CURVE SMOOTH",
"81 584 OFFCURVE",
"103 561 OFFCURVE",
"138 561 CURVE SMOOTH"
);
},
{
closed = 1;
nodes = (
"499 561 OFFCURVE",
"522 584 OFFCURVE",
"522 616 CURVE SMOOTH",
"522 649 OFFCURVE",
"499 671 OFFCURVE",
"465 671 CURVE SMOOTH",
"431 671 OFFCURVE",
"409 649 OFFCURVE",
"409 616 CURVE SMOOTH",
"409 584 OFFCURVE",
"431 561 OFFCURVE",
"465 561 CURVE SMOOTH"
);
}
);
width = 598;
}
);
note = ij;
unicode = 0133;
},
{
color = 0;
glyphname = jdotless;
lastChange = "2017-12-19 05:24:51 +0000";
layers = (
{
anchors = (
{
name = bottom;
position = "{151, 0}";
},
{
name = top;
position = "{151, 470}";
}
);
layerId = "0B1DFD06-3317-40CA-B510-4969A0718C16";
paths = (
{
closed = 1;
nodes = (
"176 -107 OFFCURVE",
"220 -25 OFFCURVE",
"220 102 CURVE SMOOTH",
"220 473 LINE",
"195 473 LINE",
"69 428 LINE",
"76 406 LINE",
"86 410 OFFCURVE",
"98 414 OFFCURVE",
"106 414 CURVE SMOOTH",
"115 414 OFFCURVE",
"126 410 OFFCURVE",
"126 393 CURVE SMOOTH",
"126 97 LINE SMOOTH",
"126 -3 OFFCURVE",
"123 -71 OFFCURVE",
"31 -110 CURVE",
"35 -132 LINE"
);
}
);
width = 302;
}
);
leftKerningGroup = j;
note = dotlessj;
unicode = 0237;
},
{
color = 0;
glyphname = kgreenlandic;
lastChange = "2017-12-19 05:24:51 +0000";
layers = (
{
layerId = "0B1DFD06-3317-40CA-B510-4969A0718C16";
paths = (
{
closed = 1;
nodes = (
"257 0 LINE",
"257 25 LINE",
"240 25 LINE SMOOTH",
"211 25 OFFCURVE",
"187 35 OFFCURVE",
"187 57 CURVE SMOOTH",
"187 487 LINE",
"162 487 LINE",
"36 442 LINE",
"43 419 LINE",
"54 423 OFFCURVE",
"65 427 OFFCURVE",
"73 427 CURVE SMOOTH",
"82 427 OFFCURVE",
"94 424 OFFCURVE",
"94 406 CURVE SMOOTH",
"94 57 LINE SMOOTH",
"94 34 OFFCURVE",
"70 25 OFFCURVE",
"40 25 CURVE SMOOTH",
"21 25 LINE",
"21 0 LINE"
);
},
{
closed = 1;
nodes = (
"577 0 LINE",
"577 25 LINE",
"550 25 LINE SMOOTH",
"530 25 OFFCURVE",
"496 35 OFFCURVE",
"475 55 CURVE SMOOTH",
"247 266 LINE",
"185 217 LINE",
"421 0 LINE"
);
},
{
closed = 1;
nodes = (
"446 417 LINE SMOOTH",
"463 432 OFFCURVE",
"488 444 OFFCURVE",
"506 444 CURVE SMOOTH",
"528 444 LINE",
"528 470 LINE",
"332 470 LINE",
"332 444 LINE",
"354 444 LINE SMOOTH",
"380 444 OFFCURVE",
"401 428 OFFCURVE",
"380 411 CURVE SMOOTH",
"155 225 LINE",
"155 173 LINE"
);
}
);
width = 591;
}
);
note = kgreenlandic;
rightKerningGroup = k;
unicode = 0138;
},
{
glyphname = lslash;
lastChange = "2017-12-19 07:32:12 +0000";
layers = (
{
layerId = "0B1DFD06-3317-40CA-B510-4969A0718C16";
paths = (
{
closed = 1;
nodes = (
"146 354 LINE",
"146 742 LINE",
"88 742 LINE",
"88 335 LINE",
"26 316 LINE",
"40 270 LINE",
"88 285 LINE",
"88 251 LINE SMOOTH",
"88 82 OFFCURVE",
"150 -4 OFFCURVE",
"273 -10 CURVE",
"279 40 LINE",
"222 41 OFFCURVE",
"184 68 OFFCURVE",
"165 118 CURVE",
"151 148 OFFCURVE",
"146 201 OFFCURVE",
"146 273 CURVE SMOOTH",
"146 303 LINE",
"266 343 LINE",
"266 394 LINE"
);
}
);
width = 307;
}
);
note = lslash;
unicode = 0142;
},
{
color = 0;
glyphname = eng;
lastChange = "2017-12-19 05:24:55 +0000";
layers = (
{
layerId = "0B1DFD06-3317-40CA-B510-4969A0718C16";
paths = (
{
closed = 1;
nodes = (
"478 -215 OFFCURVE",
"529 -140 OFFCURVE",
"529 -17 CURVE SMOOTH",
"529 344 LINE SMOOTH",
"529 424 OFFCURVE",
"472 480 OFFCURVE",
"358 480 CURVE SMOOTH",
"266 480 OFFCURVE",
"195 424 OFFCURVE",
"178 373 CURVE",
"178 285 LINE",
"188 285 LINE",
"188 389 OFFCURVE",
"264 439 OFFCURVE",
"331 439 CURVE SMOOTH",
"395 439 OFFCURVE",
"435 404 OFFCURVE",
"435 332 CURVE SMOOTH",
"435 -58 LINE SMOOTH",
"435 -128 OFFCURVE",
"413 -186 OFFCURVE",
"339 -215 CURVE",
"344 -238 LINE"
);
},
{
closed = 1;
nodes = (
"255 0 LINE",
"255 25 LINE",
"240 25 LINE SMOOTH",
"205 25 OFFCURVE",
"188 37 OFFCURVE",
"188 66 CURVE SMOOTH",
"188 473 LINE",
"166 473 LINE",
"38 428 LINE",
"44 406 LINE",
"54 410 OFFCURVE",
"66 414 OFFCURVE",
"74 414 CURVE SMOOTH",
"83 414 OFFCURVE",
"94 410 OFFCURVE",
"94 393 CURVE SMOOTH",
"94 66 LINE SMOOTH",
"94 37 OFFCURVE",
"77 25 OFFCURVE",
"41 25 CURVE SMOOTH",
"22 25 LINE",
"22 0 LINE"
);
}
);
width = 609;
}
);
leftKerningGroup = m;
note = eng;
rightKerningGroup = m;
unicode = 014B;
},
{
glyphname = ohorn;
lastChange = "2017-12-19 07:32:23 +0000";
layers = (
{
layerId = "0B1DFD06-3317-40CA-B510-4969A0718C16";
paths = (
{
closed = 1;
nodes = (
"544 315 OFFCURVE",
"525 373 OFFCURVE",
"485 422 CURVE",
"538 470 OFFCURVE",
"566 525 OFFCURVE",
"567 585 CURVE",
"519 585 LINE",
"516 526 OFFCURVE",
"497 481 OFFCURVE",
"462 447 CURVE",
"415 490 OFFCURVE",
"359 510 OFFCURVE",
"293 510 CURVE SMOOTH",
"218 510 OFFCURVE",
"156 485 OFFCURVE",
"110 434 CURVE SMOOTH",
"65 384 OFFCURVE",
"41 322 OFFCURVE",
"41 248 CURVE SMOOTH",
"41 175 OFFCURVE",
"65 113 OFFCURVE",
"110 62 CURVE SMOOTH",
"156 10 OFFCURVE",
"218 -15 OFFCURVE",
"293 -15 CURVE SMOOTH",
"368 -15 OFFCURVE",
"429 10 OFFCURVE",
"475 62 CURVE SMOOTH",
"520 113 OFFCURVE",
"544 175 OFFCURVE",
"544 248 CURVE SMOOTH"
);
},
{
closed = 1;
nodes = (
"488 188 OFFCURVE",
"469 137 OFFCURVE",
"432 96 CURVE SMOOTH",
"395 54 OFFCURVE",
"350 34 OFFCURVE",
"293 34 CURVE SMOOTH",
"235 34 OFFCURVE",
"188 54 OFFCURVE",
"151 96 CURVE SMOOTH",
"115 137 OFFCURVE",
"97 188 OFFCURVE",
"97 248 CURVE SMOOTH",
"97 309 OFFCURVE",
"115 360 OFFCURVE",
"151 400 CURVE SMOOTH",
"188 441 OFFCURVE",
"235 462 OFFCURVE",
"293 462 CURVE SMOOTH",
"350 462 OFFCURVE",
"395 441 OFFCURVE",
"432 400 CURVE SMOOTH",
"469 360 OFFCURVE",
"488 309 OFFCURVE",
"488 248 CURVE SMOOTH"
);
}
);
width = 585;
}
);
note = ohorn;
unicode = 01A1;
},
{
glyphname = oslash;
lastChange = "2017-12-19 07:32:31 +0000";
layers = (
{
layerId = "0B1DFD06-3317-40CA-B510-4969A0718C16";
paths = (
{
closed = 1;
nodes = (
"370 232 OFFCURVE",
"348 280 OFFCURVE",
"303 314 CURVE",
"346 383 LINE",
"303 383 LINE",
"272 332 LINE",
"247 342 OFFCURVE",
"223 347 OFFCURVE",
"199 347 CURVE SMOOTH",
"148 347 OFFCURVE",
"106 330 OFFCURVE",
"75 295 CURVE SMOOTH",
"44 261 OFFCURVE",
"28 219 OFFCURVE",
"28 169 CURVE SMOOTH",
"28 110 OFFCURVE",
"48 64 OFFCURVE",
"87 30 CURVE",
"51 -29 LINE",
"91 -29 LINE",
"115 10 LINE",
"142 -3 OFFCURVE",
"170 -10 OFFCURVE",
"199 -10 CURVE SMOOTH",
"250 -10 OFFCURVE",
"292 7 OFFCURVE",
"323 42 CURVE SMOOTH",
"354 77 OFFCURVE",
"370 119 OFFCURVE",
"370 169 CURVE SMOOTH"
);
},
{
closed = 1;
nodes = (
"332 128 OFFCURVE",
"319 93 OFFCURVE",
"294 65 CURVE SMOOTH",
"269 37 OFFCURVE",
"238 23 OFFCURVE",
"199 23 CURVE SMOOTH",
"175 23 OFFCURVE",
"153 29 OFFCURVE",
"134 40 CURVE",
"284 283 LINE",
"316 254 OFFCURVE",
"332 216 OFFCURVE",
"332 169 CURVE SMOOTH"
);
},
{
closed = 1;
nodes = (
"106 61 LINE",
"79 90 OFFCURVE",
"66 126 OFFCURVE",
"66 169 CURVE SMOOTH",
"66 210 OFFCURVE",
"78 245 OFFCURVE",
"103 272 CURVE SMOOTH",
"128 300 OFFCURVE",
"160 314 OFFCURVE",
"199 314 CURVE SMOOTH",
"219 314 OFFCURVE",
"237 310 OFFCURVE",
"254 302 CURVE"
);
}
);
width = 398;
}
);
note = oslash;
unicode = 00F8;
},
{
glyphname = oe;
lastChange = "2017-12-19 07:32:45 +0000";
layers = (
{
layerId = "0B1DFD06-3317-40CA-B510-4969A0718C16";
paths = (
{
closed = 1;
nodes = (
"925 71 LINE",
"866 49 OFFCURVE",
"807 37 OFFCURVE",
"750 37 CURVE SMOOTH",
"628 37 OFFCURVE",
"544 107 OFFCURVE",
"544 247 CURVE",
"953 247 LINE",
"950 422 OFFCURVE",
"878 510 OFFCURVE",
"738 510 CURVE SMOOTH",
"632 510 OFFCURVE",
"559 465 OFFCURVE",
"516 373 CURVE",
"473 465 OFFCURVE",
"398 510 OFFCURVE",
"293 510 CURVE SMOOTH",
"218 510 OFFCURVE",
"156 485 OFFCURVE",
"110 434 CURVE SMOOTH",
"65 384 OFFCURVE",
"41 322 OFFCURVE",
"41 248 CURVE SMOOTH",
"41 175 OFFCURVE",
"65 113 OFFCURVE",
"110 62 CURVE SMOOTH",
"156 10 OFFCURVE",
"218 -15 OFFCURVE",
"293 -15 CURVE SMOOTH",
"395 -15 OFFCURVE",
"469 29 OFFCURVE",
"513 119 CURVE",
"559 31 OFFCURVE",
"637 -13 OFFCURVE",
"744 -13 CURVE SMOOTH",
"810 -13 OFFCURVE",
"872 -1 OFFCURVE",
"929 22 CURVE"
);
},
{
closed = 1;
nodes = (
"487 125 OFFCURVE",
"404 34 OFFCURVE",
"293 34 CURVE SMOOTH",
"235 34 OFFCURVE",
"188 54 OFFCURVE",
"151 96 CURVE SMOOTH",
"115 137 OFFCURVE",
"97 188 OFFCURVE",
"97 248 CURVE SMOOTH",
"97 309 OFFCURVE",
"115 360 OFFCURVE",
"151 400 CURVE SMOOTH",
"188 441 OFFCURVE",
"235 462 OFFCURVE",
"293 462 CURVE SMOOTH",
"350 462 OFFCURVE",
"397 441 OFFCURVE",
"434 400 CURVE SMOOTH",
"470 359 OFFCURVE",
"490 309 OFFCURVE",
"488 248 CURVE SMOOTH"
);
},
{
closed = 1;
nodes = (
"547 293 LINE",
"563 394 OFFCURVE",
"635 465 OFFCURVE",
"731 465 CURVE SMOOTH",
"831 465 OFFCURVE",
"894 392 OFFCURVE",
"898 293 CURVE"
);
}
);
width = 998;
}
);
note = oe;
unicode = 0153;
},
{
glyphname = thorn;
lastChange = "2017-12-19 07:32:45 +0000";
layers = (
{
layerId = "0B1DFD06-3317-40CA-B510-4969A0718C16";
paths = (
{
closed = 1;
nodes = (
"589 329 OFFCURVE",
"567 388 OFFCURVE",
"525 435 CURVE SMOOTH",
"479 485 OFFCURVE",
"420 510 OFFCURVE",
"350 510 CURVE SMOOTH",
"263 510 OFFCURVE",
"196 476 OFFCURVE",
"146 409 CURVE",
"146 691 LINE",
"90 691 LINE",
"90 -206 LINE",
"146 -206 LINE",
"146 78 LINE",
"191 18 OFFCURVE",
"253 -13 OFFCURVE",
"334 -13 CURVE SMOOTH",
"406 -13 OFFCURVE",
"466 10 OFFCURVE",
"513 56 CURVE SMOOTH",
"564 106 OFFCURVE",
"589 173 OFFCURVE",
"589 259 CURVE SMOOTH"
);
},
{
closed = 1;
nodes = (
"535 118 OFFCURVE",
"454 35 OFFCURVE",
"338 35 CURVE SMOOTH",
"251 35 OFFCURVE",
"182 87 OFFCURVE",
"153 153 CURVE",
"148 172 OFFCURVE",
"146 187 OFFCURVE",
"146 197 CURVE SMOOTH",
"146 284 LINE SMOOTH",
"146 303 OFFCURVE",
"150 323 OFFCURVE",
"157 343 CURVE SMOOTH",
"190 423 OFFCURVE",
"250 465 OFFCURVE",
"340 465 CURVE SMOOTH",
"457 465 OFFCURVE",
"535 376 OFFCURVE",
"535 257 CURVE SMOOTH"
);
}
);
width = 635;
}
);
note = thorn;
unicode = 00FE;
},
{
glyphname = germandbls;
lastChange = "2017-12-19 07:32:53 +0000";
layers = (
{
layerId = "0B1DFD06-3317-40CA-B510-4969A0718C16";
paths = (
{
closed = 1;
nodes = (
"523 181 OFFCURVE",
"510 215 OFFCURVE",
"485 248 CURVE SMOOTH",
"478 259 OFFCURVE",
"459 278 OFFCURVE",
"426 306 CURVE SMOOTH",
"394 334 OFFCURVE",
"378 357 OFFCURVE",
"378 373 CURVE SMOOTH",
"378 395 OFFCURVE",
"394 420 OFFCURVE",
"426 447 CURVE SMOOTH",
"459 473 OFFCURVE",
"475 506 OFFCURVE",
"475 545 CURVE SMOOTH",
"475 650 OFFCURVE",
"401 716 OFFCURVE",
"303 716 CURVE SMOOTH",
"160 716 OFFCURVE",
"88 626 OFFCURVE",
"88 447 CURVE SMOOTH",
"88 -79 LINE SMOOTH",
"88 -123 OFFCURVE",
"79 -165 OFFCURVE",
"60 -203 CURVE",
"113 -218 LINE",
"135 -178 OFFCURVE",
"146 -132 OFFCURVE",
"146 -79 CURVE SMOOTH",
"146 422 LINE SMOOTH",
"146 582 OFFCURVE",
"194 663 OFFCURVE",
"293 663 CURVE SMOOTH",
"378 663 OFFCURVE",
"420 623 OFFCURVE",
"420 542 CURVE SMOOTH",
"420 523 OFFCURVE",
"404 497 OFFCURVE",
"370 465 CURVE SMOOTH",
"337 434 OFFCURVE",
"320 404 OFFCURVE",
"320 378 CURVE SMOOTH",
"320 341 OFFCURVE",
"345 300 OFFCURVE",
"395 256 CURVE SMOOTH",
"445 213 OFFCURVE",
"470 175 OFFCURVE",
"470 141 CURVE SMOOTH",
"470 81 OFFCURVE",
"425 35 OFFCURVE",
"347 35 CURVE SMOOTH",
"312 35 OFFCURVE",
"275 46 OFFCURVE",
"238 65 CURVE",
"221 16 LINE",
"256 -3 OFFCURVE",
"297 -13 OFFCURVE",
"345 -13 CURVE SMOOTH",
"403 -13 OFFCURVE",
"447 3 OFFCURVE",
"479 34 CURVE SMOOTH",
"509 63 OFFCURVE",
"523 101 OFFCURVE",
"523 150 CURVE SMOOTH"
);
}
);
width = 576;
}
);
note = germandbls;
unicode = 00DF;
},
{
glyphname = tbar;
lastChange = "2017-12-19 05:21:12 +0000";
layers = (
{
components = (
{
name = t;
}
);
layerId = "0B1DFD06-3317-40CA-B510-4969A0718C16";
paths = (
{
closed = 1;
nodes = (
"321 260 LINE",
"321 297 LINE",
"33 297 LINE",
"33 260 LINE"
);
}
);
width = 397;
}
);
leftKerningGroup = t;
note = tbar;
rightKerningGroup = t;
unicode = 0167;
},
{
glyphname = uhorn;
lastChange = "2017-12-19 07:33:03 +0000";
layers = (
{
layerId = "0B1DFD06-3317-40CA-B510-4969A0718C16";
paths = (
{
closed = 1;
nodes = (
"506 46 OFFCURVE",
"497 85 OFFCURVE",
"497 122 CURVE SMOOTH",
"497 398 LINE",
"564 442 OFFCURVE",
"601 504 OFFCURVE",
"609 585 CURVE",
"562 585 LINE",
"557 525 OFFCURVE",
"537 476 OFFCURVE",
"497 440 CURVE",
"497 500 LINE",
"440 500 LINE",
"440 197 LINE SMOOTH",
"440 148 OFFCURVE",
"420 109 OFFCURVE",
"384 78 CURVE SMOOTH",
"350 50 OFFCURVE",
"312 37 OFFCURVE",
"269 37 CURVE SMOOTH",
"179 37 OFFCURVE",
"134 101 OFFCURVE",
"134 229 CURVE SMOOTH",
"134 500 LINE",
"76 500 LINE",
"76 219 LINE SMOOTH",
"76 65 OFFCURVE",
"137 -13 OFFCURVE",
"256 -13 CURVE SMOOTH",
"338 -13 OFFCURVE",
"401 21 OFFCURVE",
"444 87 CURVE",
"448 56 OFFCURVE",
"456 24 OFFCURVE",
"467 -10 CURVE",
"522 1 LINE"
);
}
);
width = 548;
}
);
note = uhorn;
unicode = 01B0;
},
{
glyphname = fi;
lastChange = "2017-12-19 07:33:24 +0000";
layers = (
{
layerId = "0B1DFD06-3317-40CA-B510-4969A0718C16";
paths = (
{
closed = 1;
nodes = (
"146 500 LINE",
"146 525 LINE SMOOTH",
"146 645 OFFCURVE",
"191 706 OFFCURVE",
"282 706 CURVE SMOOTH",
"319 706 OFFCURVE",
"356 694 OFFCURVE",
"392 670 CURVE",
"417 714 LINE",
"381 741 OFFCURVE",
"340 754 OFFCURVE",
"293 754 CURVE SMOOTH",
"159 754 OFFCURVE",
"88 664 OFFCURVE",
"88 525 CURVE SMOOTH",
"88 500 LINE",
"15 500 LINE",
"15 454 LINE",
"88 454 LINE",
"88 0 LINE",
"146 0 LINE",
"146 454 LINE",
"376 454 LINE",
"376 0 LINE",
"434 0 LINE",
"434 500 LINE"
);
}
);
width = 510;
}
);
note = fi;
unicode = FB01;
},
{
glyphname = fl;
lastChange = "2017-12-19 07:33:24 +0000";
layers = (
{
layerId = "0B1DFD06-3317-40CA-B510-4969A0718C16";
paths = (
{
closed = 1;
nodes = (
"510 41 OFFCURVE",
"472 66 OFFCURVE",
"453 118 CURVE SMOOTH",
"440 150 OFFCURVE",
"434 201 OFFCURVE",
"434 273 CURVE SMOOTH",
"434 725 LINE",
"394 744 OFFCURVE",
"354 754 OFFCURVE",
"316 754 CURVE SMOOTH",
"185 754 OFFCURVE",
"88 673 OFFCURVE",
"88 515 CURVE SMOOTH",
"88 500 LINE",
"15 500 LINE",
"15 454 LINE",
"88 454 LINE",
"88 0 LINE",
"146 0 LINE",
"146 454 LINE",
"290 454 LINE",
"290 500 LINE",
"146 500 LINE",
"146 522 LINE SMOOTH",
"146 617 OFFCURVE",
"181 706 OFFCURVE",
"304 706 CURVE SMOOTH",
"332 706 OFFCURVE",
"357 701 OFFCURVE",
"376 691 CURVE",
"376 251 LINE SMOOTH",
"376 82 OFFCURVE",
"438 -4 OFFCURVE",
"562 -10 CURVE",
"567 40 LINE"
);
}
);
width = 594;
}
);
note = fl;
unicode = FB02;
},
{
glyphname = ordfeminine;
lastChange = "2017-12-19 07:33:24 +0000";
layers = (
{
layerId = "0B1DFD06-3317-40CA-B510-4969A0718C16";
paths = (
{
closed = 1;
nodes = (
"312 363 LINE",
"309 391 OFFCURVE",
"307 420 OFFCURVE",
"307 448 CURVE SMOOTH",
"307 547 LINE SMOOTH",
"307 651 OFFCURVE",
"265 704 OFFCURVE",
"179 704 CURVE SMOOTH",
"137 704 OFFCURVE",
"98 691 OFFCURVE",
"62 666 CURVE",
"78 629 LINE",
"106 650 OFFCURVE",
"135 660 OFFCURVE",
"169 660 CURVE SMOOTH",
"203 660 OFFCURVE",
"228 648 OFFCURVE",
"244 626 CURVE",
"251 613 OFFCURVE",
"256 600 OFFCURVE",
"256 587 CURVE SMOOTH",
"256 576 LINE",
"109 575 OFFCURVE",
"35 535 OFFCURVE",
"35 459 CURVE SMOOTH",
"35 392 OFFCURVE",
"74 359 OFFCURVE",
"148 359 CURVE SMOOTH",
"194 359 OFFCURVE",
"231 376 OFFCURVE",
"259 412 CURVE",
"266 363 LINE"
);
},
{
closed = 1;
nodes = (
"256 473 LINE SMOOTH",
"256 454 OFFCURVE",
"244 438 OFFCURVE",
"221 423 CURVE",
"197 410 OFFCURVE",
"176 403 OFFCURVE",
"157 403 CURVE SMOOTH",
"110 403 OFFCURVE",
"87 422 OFFCURVE",
"87 459 CURVE SMOOTH",
"87 510 OFFCURVE",
"143 535 OFFCURVE",
"256 535 CURVE"
);
}
);
width = 362;
}
);
note = ordfeminine;
unicode = 00AA;
},
{
glyphname = ordmasculine;
lastChange = "2017-12-19 07:33:24 +0000";
layers = (
{
layerId = "0B1DFD06-3317-40CA-B510-4969A0718C16";
paths = (
{
closed = 1;
nodes = (
"390 578 OFFCURVE",
"372 619 OFFCURVE",
"335 656 CURVE SMOOTH",
"298 692 OFFCURVE",
"257 710 OFFCURVE",
"209 710 CURVE SMOOTH",
"160 710 OFFCURVE",
"118 692 OFFCURVE",
"82 656 CURVE SMOOTH",
"47 619 OFFCURVE",
"29 578 OFFCURVE",
"29 529 CURVE SMOOTH",
"29 481 OFFCURVE",
"47 438 OFFCURVE",
"82 403 CURVE SMOOTH",
"118 368 OFFCURVE",
"160 350 OFFCURVE",
"209 350 CURVE SMOOTH",
"257 350 OFFCURVE",
"298 368 OFFCURVE",
"335 403 CURVE SMOOTH",
"372 438 OFFCURVE",
"390 481 OFFCURVE",
"390 529 CURVE SMOOTH"
);
},
{
closed = 1;
nodes = (
"338 459 OFFCURVE",
"279 401 OFFCURVE",
"209 401 CURVE SMOOTH",
"138 401 OFFCURVE",
"81 459 OFFCURVE",
"81 529 CURVE SMOOTH",
"81 600 OFFCURVE",
"138 659 OFFCURVE",
"209 659 CURVE SMOOTH",
"279 659 OFFCURVE",
"338 600 OFFCURVE",
"338 529 CURVE SMOOTH"
);
}
);
width = 419;
}
);
note = ordmasculine;
unicode = 00BA;
},
{
color = 0;
glyphname = nmod;
lastChange = "2017-12-19 05:26:45 +0000";
layers = (
{
layerId = "0B1DFD06-3317-40CA-B510-4969A0718C16";
paths = (
{
closed = 1;
nodes = (
"410 378 LINE",
"410 397 LINE",
"392 397 LINE SMOOTH",
"368 397 OFFCURVE",
"350 405 OFFCURVE",
"350 424 CURVE SMOOTH",
"350 599 LINE SMOOTH",
"350 660 OFFCURVE",
"323 708 OFFCURVE",
"240 708 CURVE SMOOTH",
"168 708 OFFCURVE",
"128 658 OFFCURVE",
"116 601 CURVE",
"116 548 LINE",
"135 548 LINE",
"135 628 OFFCURVE",
"173 677 OFFCURVE",
"221 677 CURVE SMOOTH",
"266 677 OFFCURVE",
"281 652 OFFCURVE",
"281 595 CURVE SMOOTH",
"281 424 LINE SMOOTH",
"281 405 OFFCURVE",
"264 397 OFFCURVE",
"239 397 CURVE SMOOTH",
"229 397 LINE",
"229 378 LINE"
);
},
{
closed = 1;
nodes = (
"187 378 LINE",
"187 397 LINE",
"177 397 LINE SMOOTH",
"152 397 OFFCURVE",
"135 405 OFFCURVE",
"135 424 CURVE SMOOTH",
"135 706 LINE",
"114 706 LINE",
"17 670 LINE",
"22 652 LINE",
"30 655 OFFCURVE",
"42 659 OFFCURVE",
"50 659 CURVE SMOOTH",
"58 659 OFFCURVE",
"66 656 OFFCURVE",
"66 643 CURVE SMOOTH",
"66 424 LINE SMOOTH",
"66 405 OFFCURVE",
"48 397 OFFCURVE",
"23 397 CURVE SMOOTH",
"6 397 LINE",
"6 378 LINE"
);
}
);
width = 416;
}
);
note = uni207F;
unicode = 207F;
},
{
glyphname = Delta;
lastChange = "2017-12-19 07:45:52 +0000";
layers = (
{
layerId = "0B1DFD06-3317-40CA-B510-4969A0718C16";
paths = (
{
closed = 1;
nodes = (
"94 51 LINE",
"348 562 LINE",
"603 51 LINE"
);
},
{
closed = 1;
nodes = (
"348 694 LINE",
"0 0 LINE",
"697 0 LINE"
);
}
);
width = 697;
}
);
note = Delta;
unicode = 0394;
},
{
glyphname = Omega;
lastChange = "2017-12-19 07:45:25 +0000";
layers = (
{
layerId = "0B1DFD06-3317-40CA-B510-4969A0718C16";
paths = (
{
closed = 1;
nodes = (
"613 49 LINE",
"442 49 LINE",
"442 135 LINE",
"482 151 OFFCURVE",
"517 182 OFFCURVE",
"548 228 CURVE SMOOTH",
"579 275 OFFCURVE",
"595 328 OFFCURVE",
"595 387 CURVE SMOOTH",
"595 559 OFFCURVE",
"491 657 OFFCURVE",
"332 657 CURVE SMOOTH",
"173 657 OFFCURVE",
"69 559 OFFCURVE",
"69 387 CURVE SMOOTH",
"69 328 OFFCURVE",
"85 275 OFFCURVE",
"116 228 CURVE SMOOTH",
"147 182 OFFCURVE",
"182 151 OFFCURVE",
"222 135 CURVE",
"222 49 LINE",
"51 49 LINE",
"51 0 LINE",
"275 0 LINE",
"275 169 LINE",
"176 216 OFFCURVE",
"126 290 OFFCURVE",
"126 391 CURVE SMOOTH",
"126 519 OFFCURVE",
"213 607 OFFCURVE",
"332 607 CURVE SMOOTH",
"451 607 OFFCURVE",
"538 519 OFFCURVE",
"538 391 CURVE SMOOTH",
"538 290 OFFCURVE",
"488 216 OFFCURVE",
"390 169 CURVE",
"390 0 LINE",
"613 0 LINE"
);
}
);
width = 664;
}
);
note = Omega;
unicode = 03A9;
},
{
glyphname = mu;
lastChange = "2017-12-19 07:46:46 +0000";
layers = (
{
layerId = "0B1DFD06-3317-40CA-B510-4969A0718C16";
paths = (
{
closed = 1;
nodes = (
"519 21 OFFCURVE",
"516 62 OFFCURVE",
"516 122 CURVE SMOOTH",
"516 500 LINE",
"460 500 LINE",
"460 196 LINE SMOOTH",
"460 156 OFFCURVE",
"442 119 OFFCURVE",
"407 85 CURVE SMOOTH",
"372 53 OFFCURVE",
"332 37 OFFCURVE",
"290 37 CURVE SMOOTH",
"190 37 OFFCURVE",
"140 96 OFFCURVE",
"140 215 CURVE SMOOTH",
"140 500 LINE",
"84 500 LINE",
"84 -206 LINE",
"140 -206 LINE",
"140 62 LINE",
"173 12 OFFCURVE",
"219 -13 OFFCURVE",
"276 -13 CURVE SMOOTH",
"345 -13 OFFCURVE",
"409 22 OFFCURVE",
"465 93 CURVE",
"465 76 LINE SMOOTH",
"465 53 OFFCURVE",
"467 28 OFFCURVE",
"472 0 CURVE",
"526 0 LINE"
);
}
);
width = 601;
}
);
note = mu;
unicode = 03BC;
},
{
color = 0;
glyphname = pi;
lastChange = "2017-12-19 05:38:58 +0000";
layers = (
{
layerId = "0B1DFD06-3317-40CA-B510-4969A0718C16";
paths = (
{
closed = 1;
nodes = (
"577 -10 OFFCURVE",
"603 -4 OFFCURVE",
"633 13 CURVE",
"633 54 LINE",
"618 44 OFFCURVE",
"598 36 OFFCURVE",
"581 36 CURVE SMOOTH",
"555 36 OFFCURVE",
"528 49 OFFCURVE",
"528 100 CURVE SMOOTH",
"528 431 LINE",
"647 431 LINE",
"647 470 LINE",
"19 470 LINE",
"19 431 LINE",
"136 431 LINE",
"136 0 LINE",
"231 0 LINE",
"231 431 LINE",
"433 431 LINE",
"433 96 LINE SMOOTH",
"433 32 OFFCURVE",
"466 -10 OFFCURVE",
"540 -10 CURVE SMOOTH"
);
}
);
width = 664;
}
);
note = pi;
unicode = 03C0;
},
{
glyphname = "koKai-thai";
lastChange = "2017-12-19 07:34:03 +0000";
layers = (
{
layerId = "0B1DFD06-3317-40CA-B510-4969A0718C16";
paths = (
{
closed = 1;
nodes = (
"485 390 LINE SMOOTH",
"485 513 OFFCURVE",
"403 588 OFFCURVE",
"275 588 CURVE SMOOTH",
"218 588 OFFCURVE",
"169 570 OFFCURVE",
"126 535 CURVE SMOOTH",
"85 500 OFFCURVE",
"60 454 OFFCURVE",
"53 400 CURVE",
"96 404 OFFCURVE",
"132 400 OFFCURVE",
"165 384 CURVE",
"113 363 OFFCURVE",
"88 323 OFFCURVE",
"88 266 CURVE SMOOTH",
"88 0 LINE",
"141 0 LINE",
"141 268 LINE SMOOTH",
"141 319 OFFCURVE",
"182 366 OFFCURVE",
"229 376 CURVE",
"207 415 OFFCURVE",
"168 437 OFFCURVE",
"110 441 CURVE",
"134 500 OFFCURVE",
"206 541 OFFCURVE",
"272 541 CURVE SMOOTH",
"366 541 OFFCURVE",
"432 479 OFFCURVE",
"432 384 CURVE SMOOTH",
"432 0 LINE",
"485 0 LINE"
);
}
);
width = 567;
}
);
note = uni0E01;
unicode = 0E01;
},
{
glyphname = "thoThung-thai";
lastChange = "2017-12-19 07:34:03 +0000";
layers = (
{
layerId = "0B1DFD06-3317-40CA-B510-4969A0718C16";
paths = (
{
closed = 1;
nodes = (
"473 390 LINE SMOOTH",
"473 513 OFFCURVE",
"388 588 OFFCURVE",
"263 588 CURVE SMOOTH",
"207 588 OFFCURVE",
"157 570 OFFCURVE",
"115 534 CURVE SMOOTH",
"72 498 OFFCURVE",
"46 454 OFFCURVE",
"38 400 CURVE",
"88 400 OFFCURVE",
"126 394 OFFCURVE",
"153 384 CURVE",
"103 359 OFFCURVE",
"78 320 OFFCURVE",
"78 268 CURVE SMOOTH",
"78 85 LINE SMOOTH",
"78 31 OFFCURVE",
"121 -12 OFFCURVE",
"175 -12 CURVE SMOOTH",
"232 -12 OFFCURVE",
"273 26 OFFCURVE",
"273 85 CURVE SMOOTH",
"273 140 OFFCURVE",
"229 184 OFFCURVE",
"175 184 CURVE SMOOTH",
"162 184 OFFCURVE",
"147 181 OFFCURVE",
"131 173 CURVE",
"131 269 LINE SMOOTH",
"131 318 OFFCURVE",
"172 366 OFFCURVE",
"218 376 CURVE",
"200 413 OFFCURVE",
"162 435 OFFCURVE",
"101 440 CURVE",
"125 498 OFFCURVE",
"194 541 OFFCURVE",
"260 541 CURVE SMOOTH",
"356 541 OFFCURVE",
"420 484 OFFCURVE",
"420 384 CURVE SMOOTH",
"420 0 LINE",
"473 0 LINE"
);
},
{
closed = 1;
nodes = (
"226 56 OFFCURVE",
"204 35 OFFCURVE",
"176 35 CURVE SMOOTH",
"148 35 OFFCURVE",
"128 56 OFFCURVE",
"128 84 CURVE SMOOTH",
"128 112 OFFCURVE",
"148 134 OFFCURVE",
"176 134 CURVE SMOOTH",
"204 134 OFFCURVE",
"226 112 OFFCURVE",
"226 84 CURVE SMOOTH"
);
}
);
width = 556;
}
);
note = uni0E16;
unicode = 0E16;
},
{
glyphname = "phoSamphao-thai";
lastChange = "2017-12-19 07:34:03 +0000";
layers = (
{
layerId = "0B1DFD06-3317-40CA-B510-4969A0718C16";
paths = (
{
closed = 1;
nodes = (
"542 388 LINE SMOOTH",
"542 512 OFFCURVE",
"456 588 OFFCURVE",
"331 588 CURVE SMOOTH",
"273 588 OFFCURVE",
"223 570 OFFCURVE",
"181 534 CURVE SMOOTH",
"138 498 OFFCURVE",
"115 453 OFFCURVE",
"110 398 CURVE",
"116 400 OFFCURVE",
"125 400 OFFCURVE",
"138 400 CURVE SMOOTH",
"163 400 OFFCURVE",
"190 394 OFFCURVE",
"216 382 CURVE",
"176 357 OFFCURVE",
"157 322 OFFCURVE",
"157 276 CURVE SMOOTH",
"157 253 OFFCURVE",
"160 219 OFFCURVE",
"166 173 CURVE",
"153 178 OFFCURVE",
"141 181 OFFCURVE",
"131 181 CURVE SMOOTH",
"78 181 OFFCURVE",
"35 137 OFFCURVE",
"35 84 CURVE SMOOTH",
"35 31 OFFCURVE",
"78 -12 OFFCURVE",
"131 -12 CURVE SMOOTH",
"191 -12 OFFCURVE",
"228 31 OFFCURVE",
"228 88 CURVE SMOOTH",
"228 112 OFFCURVE",
"226 132 OFFCURVE",
"222 150 CURVE SMOOTH",
"213 190 OFFCURVE",
"209 229 OFFCURVE",
"209 268 CURVE SMOOTH",
"209 322 OFFCURVE",
"235 357 OFFCURVE",
"288 375 CURVE",
"260 413 OFFCURVE",
"221 435 OFFCURVE",
"169 440 CURVE",
"193 498 OFFCURVE",
"263 541 OFFCURVE",
"329 541 CURVE SMOOTH",
"423 541 OFFCURVE",
"490 478 OFFCURVE",
"490 382 CURVE SMOOTH",
"490 0 LINE",
"542 0 LINE"
);
},
{
closed = 1;
nodes = (
"181 56 OFFCURVE",
"159 35 OFFCURVE",
"131 35 CURVE SMOOTH",
"103 35 OFFCURVE",
"82 56 OFFCURVE",
"82 84 CURVE SMOOTH",
"82 112 OFFCURVE",
"103 134 OFFCURVE",
"131 134 CURVE SMOOTH",
"159 134 OFFCURVE",
"181 112 OFFCURVE",
"181 84 CURVE SMOOTH"
);
}
);
width = 625;
}
);
note = uni0E20;
unicode = 0E20;
},
{
glyphname = "ru-thai";
lastChange = "2017-12-19 07:34:03 +0000";
layers = (
{
layerId = "0B1DFD06-3317-40CA-B510-4969A0718C16";
paths = (
{
closed = 1;
nodes = (
"473 390 LINE SMOOTH",
"473 513 OFFCURVE",
"388 588 OFFCURVE",
"263 588 CURVE SMOOTH",
"207 588 OFFCURVE",
"157 570 OFFCURVE",
"115 534 CURVE SMOOTH",
"72 498 OFFCURVE",
"46 454 OFFCURVE",
"38 400 CURVE",
"88 400 OFFCURVE",
"126 394 OFFCURVE",
"153 384 CURVE",
"103 359 OFFCURVE",
"78 320 OFFCURVE",
"78 268 CURVE SMOOTH",
"78 85 LINE SMOOTH",
"78 31 OFFCURVE",
"121 -12 OFFCURVE",
"175 -12 CURVE SMOOTH",
"229 -12 OFFCURVE",
"273 31 OFFCURVE",
"273 85 CURVE SMOOTH",
"273 140 OFFCURVE",
"229 184 OFFCURVE",
"175 184 CURVE SMOOTH",
"162 184 OFFCURVE",
"147 181 OFFCURVE",
"131 173 CURVE",
"131 269 LINE SMOOTH",
"131 318 OFFCURVE",
"172 366 OFFCURVE",
"218 376 CURVE",
"200 413 OFFCURVE",
"162 435 OFFCURVE",
"101 440 CURVE",
"125 498 OFFCURVE",
"194 541 OFFCURVE",
"260 541 CURVE SMOOTH",
"356 541 OFFCURVE",
"420 484 OFFCURVE",
"420 384 CURVE SMOOTH",
"420 -294 LINE",
"473 -294 LINE"
);
},
{
closed = 1;
nodes = (
"226 56 OFFCURVE",
"204 35 OFFCURVE",
"176 35 CURVE SMOOTH",
"148 35 OFFCURVE",
"128 56 OFFCURVE",
"128 84 CURVE SMOOTH",
"128 112 OFFCURVE",
"148 134 OFFCURVE",
"176 134 CURVE SMOOTH",
"204 134 OFFCURVE",
"226 112 OFFCURVE",
"226 84 CURVE SMOOTH"
);
}
);
width = 556;
}
);
note = uni0E24;
unicode = 0E24;
},
{
color = 0;
glyphname = "ru-thai.short";
lastChange = "2017-12-19 05:26:58 +0000";
layers = (
{
layerId = "0B1DFD06-3317-40CA-B510-4969A0718C16";
paths = (
{
closed = 1;
nodes = (
"524 -140 LINE",
"524 379 LINE SMOOTH",
"524 505 OFFCURVE",
"416 563 OFFCURVE",
"285 563 CURVE SMOOTH",
"171 563 OFFCURVE",
"50 499 OFFCURVE",
"38 348 CURVE",
"145 348 LINE",
"81 321 OFFCURVE",
"59 268 OFFCURVE",
"59 215 CURVE SMOOTH",
"59 117 LINE SMOOTH",
"59 38 OFFCURVE",
"94 -10 OFFCURVE",
"181 -10 CURVE SMOOTH",
"239 -10 OFFCURVE",
"285 27 OFFCURVE",
"285 87 CURVE SMOOTH",
"285 155 OFFCURVE",
"229 179 OFFCURVE",
"196 179 CURVE SMOOTH",
"181 179 OFFCURVE",
"165 177 OFFCURVE",
"154 169 CURVE",
"154 222 LINE SMOOTH",
"154 288 OFFCURVE",
"176 319 OFFCURVE",
"232 346 CURVE",
"232 381 LINE",
"92 381 LINE",
"107 472 OFFCURVE",
"191 520 OFFCURVE",
"270 520 CURVE SMOOTH",
"373 520 OFFCURVE",
"429 461 OFFCURVE",
"429 396 CURVE SMOOTH",
"429 -140 LINE"
);
},
{
closed = 1;
nodes = (
"146 23 OFFCURVE",
"125 52 OFFCURVE",
"125 87 CURVE SMOOTH",
"125 122 OFFCURVE",
"152 149 OFFCURVE",
"188 149 CURVE SMOOTH",
"223 149 OFFCURVE",
"249 122 OFFCURVE",
"249 87 CURVE SMOOTH",
"249 52 OFFCURVE",
"226 23 OFFCURVE",
"188 23 CURVE SMOOTH"
);
}
);
width = 585;
}
);
note = "ru-thai.short";
},
{
glyphname = "lu-thai";
lastChange = "2017-12-19 07:34:03 +0000";
layers = (
{
layerId = "0B1DFD06-3317-40CA-B510-4969A0718C16";
paths = (
{
closed = 1;
nodes = (
"542 388 LINE SMOOTH",
"542 512 OFFCURVE",
"456 588 OFFCURVE",
"331 588 CURVE SMOOTH",
"273 588 OFFCURVE",
"223 570 OFFCURVE",
"181 534 CURVE SMOOTH",
"138 498 OFFCURVE",
"115 453 OFFCURVE",
"110 398 CURVE",
"116 400 OFFCURVE",
"125 400 OFFCURVE",
"138 400 CURVE SMOOTH",
"163 400 OFFCURVE",
"190 394 OFFCURVE",
"216 382 CURVE",
"176 357 OFFCURVE",
"157 322 OFFCURVE",
"157 276 CURVE SMOOTH",
"157 253 OFFCURVE",
"160 219 OFFCURVE",
"166 173 CURVE",
"153 178 OFFCURVE",
"141 181 OFFCURVE",
"131 181 CURVE SMOOTH",
"78 181 OFFCURVE",
"35 137 OFFCURVE",
"35 84 CURVE SMOOTH",
"35 31 OFFCURVE",
"78 -12 OFFCURVE",
"131 -12 CURVE SMOOTH",
"184 -12 OFFCURVE",
"228 31 OFFCURVE",
"228 88 CURVE SMOOTH",
"228 112 OFFCURVE",
"226 132 OFFCURVE",
"222 150 CURVE SMOOTH",
"213 190 OFFCURVE",
"209 229 OFFCURVE",
"209 268 CURVE SMOOTH",
"209 322 OFFCURVE",
"235 357 OFFCURVE",
"288 375 CURVE",
"260 413 OFFCURVE",
"221 435 OFFCURVE",
"169 440 CURVE",
"193 498 OFFCURVE",
"263 541 OFFCURVE",
"329 541 CURVE SMOOTH",
"423 541 OFFCURVE",
"490 478 OFFCURVE",
"490 382 CURVE SMOOTH",
"490 -294 LINE",
"542 -294 LINE"
);
},
{
closed = 1;
nodes = (
"181 56 OFFCURVE",
"159 35 OFFCURVE",
"131 35 CURVE SMOOTH",
"103 35 OFFCURVE",
"82 56 OFFCURVE",
"82 84 CURVE SMOOTH",
"82 112 OFFCURVE",
"103 134 OFFCURVE",
"131 134 CURVE SMOOTH",
"159 134 OFFCURVE",
"181 112 OFFCURVE",
"181 84 CURVE SMOOTH"
);
}
);
width = 625;
}
);
note = uni0E26;
unicode = 0E26;
},
{
color = 0;
glyphname = "lu-thai.short";
lastChange = "2017-12-19 05:26:58 +0000";
layers = (
{
layerId = "0B1DFD06-3317-40CA-B510-4969A0718C16";
paths = (
{
closed = 1;
nodes = (
"567 -140 LINE",
"567 379 LINE SMOOTH",
"567 505 OFFCURVE",
"459 563 OFFCURVE",
"329 563 CURVE SMOOTH",
"214 563 OFFCURVE",
"94 499 OFFCURVE",
"81 348 CURVE",
"211 348 LINE",
"152 323 OFFCURVE",
"132 275 OFFCURVE",
"132 223 CURVE SMOOTH",
"132 169 LINE",
"120 177 OFFCURVE",
"105 179 OFFCURVE",
"90 179 CURVE SMOOTH",
"56 179 OFFCURVE",
"0 155 OFFCURVE",
"0 87 CURVE SMOOTH",
"0 27 OFFCURVE",
"47 -10 OFFCURVE",
"105 -10 CURVE SMOOTH",
"185 -10 OFFCURVE",
"227 32 OFFCURVE",
"227 103 CURVE SMOOTH",
"227 206 LINE SMOOTH",
"227 277 OFFCURVE",
"241 318 OFFCURVE",
"297 346 CURVE",
"297 381 LINE",
"134 381 LINE",
"149 472 OFFCURVE",
"234 520 OFFCURVE",
"313 520 CURVE SMOOTH",
"416 520 OFFCURVE",
"472 461 OFFCURVE",
"472 396 CURVE SMOOTH",
"472 -140 LINE"
);
},
{
closed = 1;
nodes = (
"60 23 OFFCURVE",
"37 52 OFFCURVE",
"37 87 CURVE SMOOTH",
"37 122 OFFCURVE",
"63 149 OFFCURVE",
"98 149 CURVE SMOOTH",
"134 149 OFFCURVE",
"161 122 OFFCURVE",
"161 87 CURVE SMOOTH",
"161 52 OFFCURVE",
"139 23 OFFCURVE",
"98 23 CURVE SMOOTH"
);
}
);
width = 628;
}
);
note = "lu-thai.short";
},
{
glyphname = "doChada-thai";
lastChange = "2017-12-19 07:34:03 +0000";
layers = (
{
layerId = "0B1DFD06-3317-40CA-B510-4969A0718C16";
paths = (
{
closed = 1;
nodes = (
"542 388 LINE SMOOTH",
"542 512 OFFCURVE",
"456 588 OFFCURVE",
"331 588 CURVE SMOOTH",
"273 588 OFFCURVE",
"223 570 OFFCURVE",
"181 534 CURVE SMOOTH",
"138 498 OFFCURVE",
"115 453 OFFCURVE",
"110 398 CURVE",
"116 400 OFFCURVE",
"125 400 OFFCURVE",
"138 400 CURVE SMOOTH",
"163 400 OFFCURVE",
"190 394 OFFCURVE",
"216 382 CURVE",
"176 357 OFFCURVE",
"157 322 OFFCURVE",
"157 276 CURVE SMOOTH",
"157 253 OFFCURVE",
"160 219 OFFCURVE",
"166 173 CURVE",
"153 178 OFFCURVE",
"141 181 OFFCURVE",
"131 181 CURVE SMOOTH",
"78 181 OFFCURVE",
"35 137 OFFCURVE",
"35 84 CURVE SMOOTH",
"35 31 OFFCURVE",
"78 -12 OFFCURVE",
"131 -12 CURVE SMOOTH",
"184 -12 OFFCURVE",
"228 31 OFFCURVE",
"228 88 CURVE SMOOTH",
"228 112 OFFCURVE",
"226 132 OFFCURVE",
"222 150 CURVE SMOOTH",
"213 190 OFFCURVE",
"209 229 OFFCURVE",
"209 268 CURVE SMOOTH",
"209 322 OFFCURVE",
"235 357 OFFCURVE",
"288 375 CURVE",
"260 413 OFFCURVE",
"221 435 OFFCURVE",
"169 440 CURVE",
"193 498 OFFCURVE",
"263 541 OFFCURVE",
"329 541 CURVE SMOOTH",
"423 541 OFFCURVE",
"490 478 OFFCURVE",
"490 382 CURVE SMOOTH",
"490 -248 LINE",
"453 -210 OFFCURVE",
"395 -178 OFFCURVE",
"318 -150 CURVE",
"319 -122 OFFCURVE",
"334 -98 OFFCURVE",
"363 -79 CURVE",
"323 -56 LINE",
"291 -75 OFFCURVE",
"273 -101 OFFCURVE",
"269 -138 CURVE",
"248 -135 OFFCURVE",
"235 -134 OFFCURVE",
"231 -134 CURVE SMOOTH",
"171 -134 OFFCURVE",
"121 -172 OFFCURVE",
"121 -232 CURVE SMOOTH",
"121 -284 OFFCURVE",
"156 -322 OFFCURVE",
"215 -322 CURVE SMOOTH",
"278 -322 OFFCURVE",
"318 -272 OFFCURVE",
"318 -209 CURVE SMOOTH",
"318 -198 LINE",
"347 -206 OFFCURVE",
"379 -222 OFFCURVE",
"416 -245 CURVE SMOOTH",
"453 -269 OFFCURVE",
"476 -293 OFFCURVE",
"484 -316 CURVE",
"542 -316 LINE"
);
},
{
closed = 1;
nodes = (
"266 -194 OFFCURVE",
"268 -201 OFFCURVE",
"268 -209 CURVE SMOOTH",
"268 -253 OFFCURVE",
"250 -275 OFFCURVE",
"216 -275 CURVE SMOOTH",
"184 -275 OFFCURVE",
"168 -260 OFFCURVE",
"168 -229 CURVE SMOOTH",
"168 -198 OFFCURVE",
"190 -182 OFFCURVE",
"234 -182 CURVE SMOOTH",
"245 -182 OFFCURVE",
"256 -184 OFFCURVE",
"265 -187 CURVE"
);
},
{
closed = 1;
nodes = (
"181 56 OFFCURVE",
"159 35 OFFCURVE",
"131 35 CURVE SMOOTH",
"103 35 OFFCURVE",
"82 56 OFFCURVE",
"82 84 CURVE SMOOTH",
"82 112 OFFCURVE",
"103 134 OFFCURVE",
"131 134 CURVE SMOOTH",
"159 134 OFFCURVE",
"181 112 OFFCURVE",
"181 84 CURVE SMOOTH"
);
}
);
width = 625;
}
);
note = uni0E0E;
unicode = 0E0E;
},
{
glyphname = "doChada-thai.short";
lastChange = "2017-12-19 07:34:34 +0000";
layers = (
{
layerId = "0B1DFD06-3317-40CA-B510-4969A0718C16";
paths = (
{
closed = 1;
nodes = (
"542 388 LINE SMOOTH",
"542 512 OFFCURVE",
"456 588 OFFCURVE",
"331 588 CURVE SMOOTH",
"273 588 OFFCURVE",
"223 570 OFFCURVE",
"181 534 CURVE SMOOTH",
"138 498 OFFCURVE",
"115 453 OFFCURVE",
"110 398 CURVE",
"116 400 OFFCURVE",
"125 400 OFFCURVE",
"138 400 CURVE SMOOTH",
"163 400 OFFCURVE",
"190 394 OFFCURVE",
"216 382 CURVE",
"176 357 OFFCURVE",
"157 322 OFFCURVE",
"157 276 CURVE SMOOTH",
"157 253 OFFCURVE",
"160 219 OFFCURVE",
"166 173 CURVE",
"153 178 OFFCURVE",
"141 181 OFFCURVE",
"131 181 CURVE SMOOTH",
"78 181 OFFCURVE",
"35 137 OFFCURVE",
"35 84 CURVE SMOOTH",
"35 31 OFFCURVE",
"78 -12 OFFCURVE",
"131 -12 CURVE SMOOTH",
"184 -12 OFFCURVE",
"228 31 OFFCURVE",
"228 88 CURVE SMOOTH",
"228 112 OFFCURVE",
"226 132 OFFCURVE",
"222 150 CURVE SMOOTH",
"213 190 OFFCURVE",
"209 229 OFFCURVE",
"209 268 CURVE SMOOTH",
"209 322 OFFCURVE",
"235 357 OFFCURVE",
"288 375 CURVE",
"260 413 OFFCURVE",
"221 435 OFFCURVE",
"169 440 CURVE",
"193 498 OFFCURVE",
"263 541 OFFCURVE",
"329 541 CURVE SMOOTH",
"423 541 OFFCURVE",
"490 478 OFFCURVE",
"490 382 CURVE SMOOTH",
"490 -248 LINE",
"453 -210 OFFCURVE",
"395 -178 OFFCURVE",
"318 -150 CURVE",
"319 -122 OFFCURVE",
"334 -98 OFFCURVE",
"363 -79 CURVE",
"323 -56 LINE",
"291 -75 OFFCURVE",
"273 -101 OFFCURVE",
"269 -138 CURVE",
"248 -135 OFFCURVE",
"235 -134 OFFCURVE",
"231 -134 CURVE SMOOTH",
"171 -134 OFFCURVE",
"121 -172 OFFCURVE",
"121 -232 CURVE SMOOTH",
"121 -284 OFFCURVE",
"156 -322 OFFCURVE",
"215 -322 CURVE SMOOTH",
"278 -322 OFFCURVE",
"318 -272 OFFCURVE",
"318 -209 CURVE SMOOTH",
"318 -198 LINE",
"347 -206 OFFCURVE",
"379 -222 OFFCURVE",
"416 -245 CURVE SMOOTH",
"453 -269 OFFCURVE",
"476 -293 OFFCURVE",
"484 -316 CURVE",
"542 -316 LINE"
);
},
{
closed = 1;
nodes = (
"266 -194 OFFCURVE",
"268 -201 OFFCURVE",
"268 -209 CURVE SMOOTH",
"268 -253 OFFCURVE",
"250 -275 OFFCURVE",
"216 -275 CURVE SMOOTH",
"184 -275 OFFCURVE",
"168 -260 OFFCURVE",
"168 -229 CURVE SMOOTH",
"168 -198 OFFCURVE",
"190 -182 OFFCURVE",
"234 -182 CURVE SMOOTH",
"245 -182 OFFCURVE",
"256 -184 OFFCURVE",
"265 -187 CURVE"
);
},
{
closed = 1;
nodes = (
"181 56 OFFCURVE",
"159 35 OFFCURVE",
"131 35 CURVE SMOOTH",
"103 35 OFFCURVE",
"82 56 OFFCURVE",
"82 84 CURVE SMOOTH",
"82 112 OFFCURVE",
"103 134 OFFCURVE",
"131 134 CURVE SMOOTH",
"159 134 OFFCURVE",
"181 112 OFFCURVE",
"181 84 CURVE SMOOTH"
);
}
);
width = 625;
}
);
note = "doChada-thai.short";
},
{
glyphname = "toPatak-thai";
lastChange = "2017-12-19 07:34:03 +0000";
layers = (
{
layerId = "0B1DFD06-3317-40CA-B510-4969A0718C16";
paths = (
{
closed = 1;
nodes = (
"216 -251 OFFCURVE",
"198 -278 OFFCURVE",
"162 -278 CURVE SMOOTH",
"131 -278 OFFCURVE",
"115 -263 OFFCURVE",
"115 -234 CURVE SMOOTH",
"115 -200 OFFCURVE",
"134 -184 OFFCURVE",
"172 -184 CURVE SMOOTH",
"193 -184 OFFCURVE",
"207 -188 OFFCURVE",
"216 -197 CURVE"
);
},
{
closed = 1;
nodes = (
"542 388 LINE SMOOTH",
"542 512 OFFCURVE",
"456 588 OFFCURVE",
"331 588 CURVE SMOOTH",
"273 588 OFFCURVE",
"223 570 OFFCURVE",
"181 534 CURVE SMOOTH",
"138 498 OFFCURVE",
"115 453 OFFCURVE",
"110 398 CURVE",
"116 400 OFFCURVE",
"125 400 OFFCURVE",
"138 400 CURVE SMOOTH",
"163 400 OFFCURVE",
"190 394 OFFCURVE",
"216 382 CURVE",
"176 357 OFFCURVE",
"157 322 OFFCURVE",
"157 276 CURVE SMOOTH",
"157 253 OFFCURVE",
"160 219 OFFCURVE",
"166 173 CURVE",
"153 178 OFFCURVE",
"141 181 OFFCURVE",
"131 181 CURVE SMOOTH",
"78 181 OFFCURVE",
"35 137 OFFCURVE",
"35 84 CURVE SMOOTH",
"35 31 OFFCURVE",
"78 -12 OFFCURVE",
"131 -12 CURVE SMOOTH",
"184 -12 OFFCURVE",
"228 31 OFFCURVE",
"228 88 CURVE SMOOTH",
"228 112 OFFCURVE",
"226 132 OFFCURVE",
"222 150 CURVE SMOOTH",
"213 190 OFFCURVE",
"209 229 OFFCURVE",
"209 268 CURVE SMOOTH",
"209 322 OFFCURVE",
"235 357 OFFCURVE",
"288 375 CURVE",
"260 413 OFFCURVE",
"221 435 OFFCURVE",
"169 440 CURVE",
"193 498 OFFCURVE",
"263 541 OFFCURVE",
"329 541 CURVE SMOOTH",
"423 541 OFFCURVE",
"490 478 OFFCURVE",
"490 382 CURVE SMOOTH",
"490 -248 LINE",
"404 -153 LINE",
"335 -245 LINE",
"263 -169 LINE",
"265 -135 OFFCURVE",
"282 -107 OFFCURVE",
"316 -87 CURVE",
"276 -63 LINE",
"238 -85 OFFCURVE",
"218 -115 OFFCURVE",
"216 -148 CURVE",
"203 -141 OFFCURVE",
"187 -138 OFFCURVE",
"168 -138 CURVE SMOOTH",
"113 -138 OFFCURVE",
"71 -175 OFFCURVE",
"71 -232 CURVE SMOOTH",
"71 -284 OFFCURVE",
"104 -323 OFFCURVE",
"165 -323 CURVE SMOOTH",
"213 -323 OFFCURVE",
"257 -287 OFFCURVE",
"259 -226 CURVE",
"340 -315 LINE",
"404 -226 LINE",
"484 -316 LINE",
"542 -316 LINE"
);
},
{
closed = 1;
nodes = (
"181 56 OFFCURVE",
"159 35 OFFCURVE",
"131 35 CURVE SMOOTH",
"103 35 OFFCURVE",
"82 56 OFFCURVE",
"82 84 CURVE SMOOTH",
"82 112 OFFCURVE",
"103 134 OFFCURVE",
"131 134 CURVE SMOOTH",
"159 134 OFFCURVE",
"181 112 OFFCURVE",
"181 84 CURVE SMOOTH"
);
}
);
width = 625;
}
);
note = uni0E0F;
unicode = 0E0F;
},
{
glyphname = "toPatak-thai.short";
lastChange = "2017-12-19 07:34:47 +0000";
layers = (
{
layerId = "0B1DFD06-3317-40CA-B510-4969A0718C16";
paths = (
{
closed = 1;
nodes = (
"216 -251 OFFCURVE",
"198 -278 OFFCURVE",
"162 -278 CURVE SMOOTH",
"131 -278 OFFCURVE",
"115 -263 OFFCURVE",
"115 -234 CURVE SMOOTH",
"115 -200 OFFCURVE",
"134 -184 OFFCURVE",
"172 -184 CURVE SMOOTH",
"193 -184 OFFCURVE",
"207 -188 OFFCURVE",
"216 -197 CURVE"
);
},
{
closed = 1;
nodes = (
"542 388 LINE SMOOTH",
"542 512 OFFCURVE",
"456 588 OFFCURVE",
"331 588 CURVE SMOOTH",
"273 588 OFFCURVE",
"223 570 OFFCURVE",
"181 534 CURVE SMOOTH",
"138 498 OFFCURVE",
"115 453 OFFCURVE",
"110 398 CURVE",
"116 400 OFFCURVE",
"125 400 OFFCURVE",
"138 400 CURVE SMOOTH",
"163 400 OFFCURVE",
"190 394 OFFCURVE",
"216 382 CURVE",
"176 357 OFFCURVE",
"157 322 OFFCURVE",
"157 276 CURVE SMOOTH",
"157 253 OFFCURVE",
"160 219 OFFCURVE",
"166 173 CURVE",
"153 178 OFFCURVE",
"141 181 OFFCURVE",
"131 181 CURVE SMOOTH",
"78 181 OFFCURVE",
"35 137 OFFCURVE",
"35 84 CURVE SMOOTH",
"35 31 OFFCURVE",
"78 -12 OFFCURVE",
"131 -12 CURVE SMOOTH",
"184 -12 OFFCURVE",
"228 31 OFFCURVE",
"228 88 CURVE SMOOTH",
"228 112 OFFCURVE",
"226 132 OFFCURVE",
"222 150 CURVE SMOOTH",
"213 190 OFFCURVE",
"209 229 OFFCURVE",
"209 268 CURVE SMOOTH",
"209 322 OFFCURVE",
"235 357 OFFCURVE",
"288 375 CURVE",
"260 413 OFFCURVE",
"221 435 OFFCURVE",
"169 440 CURVE",
"193 498 OFFCURVE",
"263 541 OFFCURVE",
"329 541 CURVE SMOOTH",
"423 541 OFFCURVE",
"490 478 OFFCURVE",
"490 382 CURVE SMOOTH",
"490 -248 LINE",
"404 -153 LINE",
"335 -245 LINE",
"263 -169 LINE",
"265 -135 OFFCURVE",
"282 -107 OFFCURVE",
"316 -87 CURVE",
"276 -63 LINE",
"238 -85 OFFCURVE",
"218 -115 OFFCURVE",
"216 -148 CURVE",
"203 -141 OFFCURVE",
"187 -138 OFFCURVE",
"168 -138 CURVE SMOOTH",
"113 -138 OFFCURVE",
"71 -175 OFFCURVE",
"71 -232 CURVE SMOOTH",
"71 -284 OFFCURVE",
"104 -323 OFFCURVE",
"165 -323 CURVE SMOOTH",
"213 -323 OFFCURVE",
"257 -287 OFFCURVE",
"259 -226 CURVE",
"340 -315 LINE",
"404 -226 LINE",
"484 -316 LINE",
"542 -316 LINE"
);
},
{
closed = 1;
nodes = (
"181 56 OFFCURVE",
"159 35 OFFCURVE",
"131 35 CURVE SMOOTH",
"103 35 OFFCURVE",
"82 56 OFFCURVE",
"82 84 CURVE SMOOTH",
"82 112 OFFCURVE",
"103 134 OFFCURVE",
"131 134 CURVE SMOOTH",
"159 134 OFFCURVE",
"181 112 OFFCURVE",
"181 84 CURVE SMOOTH"
);
}
);
width = 625;
}
);
note = "toPatak-thai.short";
},
{
glyphname = "ru_lakkhangyao-thai";
lastChange = "2017-12-19 07:35:13 +0000";
layers = (
{
layerId = "0B1DFD06-3317-40CA-B510-4969A0718C16";
paths = (
{
closed = 1;
nodes = (
"473 390 LINE SMOOTH",
"473 513 OFFCURVE",
"388 588 OFFCURVE",
"263 588 CURVE SMOOTH",
"207 588 OFFCURVE",
"157 570 OFFCURVE",
"115 534 CURVE SMOOTH",
"72 498 OFFCURVE",
"46 454 OFFCURVE",
"38 400 CURVE",
"88 400 OFFCURVE",
"126 394 OFFCURVE",
"153 384 CURVE",
"103 359 OFFCURVE",
"78 320 OFFCURVE",
"78 268 CURVE SMOOTH",
"78 85 LINE SMOOTH",
"78 31 OFFCURVE",
"121 -12 OFFCURVE",
"175 -12 CURVE SMOOTH",
"229 -12 OFFCURVE",
"273 31 OFFCURVE",
"273 85 CURVE SMOOTH",
"273 140 OFFCURVE",
"229 184 OFFCURVE",
"175 184 CURVE SMOOTH",
"162 184 OFFCURVE",
"147 181 OFFCURVE",
"131 173 CURVE",
"131 269 LINE SMOOTH",
"131 318 OFFCURVE",
"172 366 OFFCURVE",
"218 376 CURVE",
"200 413 OFFCURVE",
"162 435 OFFCURVE",
"101 440 CURVE",
"125 498 OFFCURVE",
"194 541 OFFCURVE",
"260 541 CURVE SMOOTH",
"356 541 OFFCURVE",
"420 484 OFFCURVE",
"420 384 CURVE SMOOTH",
"420 -294 LINE",
"473 -294 LINE"
);
},
{
closed = 1;
nodes = (
"226 56 OFFCURVE",
"204 35 OFFCURVE",
"176 35 CURVE SMOOTH",
"148 35 OFFCURVE",
"128 56 OFFCURVE",
"128 84 CURVE SMOOTH",
"128 112 OFFCURVE",
"148 134 OFFCURVE",
"176 134 CURVE SMOOTH",
"204 134 OFFCURVE",
"226 112 OFFCURVE",
"226 84 CURVE SMOOTH"
);
},
{
closed = 1;
nodes = (
"763 438 LINE SMOOTH",
"763 528 OFFCURVE",
"701 588 OFFCURVE",
"588 588 CURVE SMOOTH",
"488 588 OFFCURVE",
"417 515 OFFCURVE",
"416 432 CURVE",
"470 432 LINE",
"475 485 OFFCURVE",
"517 541 OFFCURVE",
"587 541 CURVE SMOOTH",
"663 541 OFFCURVE",
"710 498 OFFCURVE",
"710 440 CURVE SMOOTH",
"710 -294 LINE",
"763 -294 LINE"
);
}
);
width = 846;
}
);
note = "ru_lakkhangyao-thai";
},
{
glyphname = "lu_lakkhangyao-thai";
lastChange = "2017-12-19 07:35:16 +0000";
layers = (
{
layerId = "0B1DFD06-3317-40CA-B510-4969A0718C16";
paths = (
{
closed = 1;
nodes = (
"831 438 LINE SMOOTH",
"831 528 OFFCURVE",
"769 588 OFFCURVE",
"656 588 CURVE SMOOTH",
"556 588 OFFCURVE",
"485 515 OFFCURVE",
"484 432 CURVE",
"538 432 LINE",
"542 485 OFFCURVE",
"585 541 OFFCURVE",
"654 541 CURVE SMOOTH",
"731 541 OFFCURVE",
"778 498 OFFCURVE",
"778 440 CURVE SMOOTH",
"778 -294 LINE",
"831 -294 LINE"
);
},
{
closed = 1;
nodes = (
"542 388 LINE SMOOTH",
"542 512 OFFCURVE",
"456 588 OFFCURVE",
"331 588 CURVE SMOOTH",
"273 588 OFFCURVE",
"223 570 OFFCURVE",
"181 534 CURVE SMOOTH",
"138 498 OFFCURVE",
"115 453 OFFCURVE",
"110 398 CURVE",
"116 400 OFFCURVE",
"125 400 OFFCURVE",
"138 400 CURVE SMOOTH",
"163 400 OFFCURVE",
"190 394 OFFCURVE",
"216 382 CURVE",
"176 357 OFFCURVE",
"157 322 OFFCURVE",
"157 276 CURVE SMOOTH",
"157 253 OFFCURVE",
"160 219 OFFCURVE",
"166 173 CURVE",
"153 178 OFFCURVE",
"141 181 OFFCURVE",
"131 181 CURVE SMOOTH",
"78 181 OFFCURVE",
"35 137 OFFCURVE",
"35 84 CURVE SMOOTH",
"35 31 OFFCURVE",
"78 -12 OFFCURVE",
"131 -12 CURVE SMOOTH",
"184 -12 OFFCURVE",
"228 31 OFFCURVE",
"228 88 CURVE SMOOTH",
"228 112 OFFCURVE",
"226 132 OFFCURVE",
"222 150 CURVE SMOOTH",
"213 190 OFFCURVE",
"209 229 OFFCURVE",
"209 268 CURVE SMOOTH",
"209 322 OFFCURVE",
"235 357 OFFCURVE",
"288 375 CURVE",
"260 413 OFFCURVE",
"221 435 OFFCURVE",
"169 440 CURVE",
"193 498 OFFCURVE",
"263 541 OFFCURVE",
"329 541 CURVE SMOOTH",
"423 541 OFFCURVE",
"490 478 OFFCURVE",
"490 382 CURVE SMOOTH",
"490 -294 LINE",
"542 -294 LINE"
);
},
{
closed = 1;
nodes = (
"181 56 OFFCURVE",
"159 35 OFFCURVE",
"131 35 CURVE SMOOTH",
"103 35 OFFCURVE",
"82 56 OFFCURVE",
"82 84 CURVE SMOOTH",
"82 112 OFFCURVE",
"103 134 OFFCURVE",
"131 134 CURVE SMOOTH",
"159 134 OFFCURVE",
"181 112 OFFCURVE",
"181 84 CURVE SMOOTH"
);
}
);
width = 914;
}
);
note = "lu_lakkhangyao-thai";
},
{
glyphname = "yoYing-thai";
lastChange = "2017-12-19 07:34:03 +0000";
layers = (
{
layerId = "0B1DFD06-3317-40CA-B510-4969A0718C16";
paths = (
{
closed = 1;
nodes = (
"648 -50 LINE",
"647 -156 OFFCURVE",
"603 -209 OFFCURVE",
"519 -209 CURVE SMOOTH",
"503 -209 OFFCURVE",
"488 -206 OFFCURVE",
"476 -198 CURVE",
"510 -185 OFFCURVE",
"528 -160 OFFCURVE",
"528 -123 CURVE SMOOTH",
"528 -81 OFFCURVE",
"492 -44 OFFCURVE",
"447 -44 CURVE SMOOTH",
"404 -44 OFFCURVE",
"368 -81 OFFCURVE",
"368 -123 CURVE SMOOTH",
"368 -196 OFFCURVE",
"442 -251 OFFCURVE",
"520 -251 CURVE SMOOTH",
"644 -251 OFFCURVE",
"698 -168 OFFCURVE",
"703 -50 CURVE"
);
},
{
closed = 1;
nodes = (
"488 -146 OFFCURVE",
"470 -163 OFFCURVE",
"448 -163 CURVE SMOOTH",
"426 -163 OFFCURVE",
"409 -146 OFFCURVE",
"409 -123 CURVE SMOOTH",
"409 -101 OFFCURVE",
"426 -84 OFFCURVE",
"448 -84 CURVE SMOOTH",
"470 -84 OFFCURVE",
"488 -101 OFFCURVE",
"488 -123 CURVE SMOOTH"
);
},
{
closed = 1;
nodes = (
"231 56 OFFCURVE",
"209 35 OFFCURVE",
"181 35 CURVE SMOOTH",
"153 35 OFFCURVE",
"132 56 OFFCURVE",
"132 84 CURVE SMOOTH",
"132 112 OFFCURVE",
"153 134 OFFCURVE",
"181 134 CURVE SMOOTH",
"209 134 OFFCURVE",
"231 112 OFFCURVE",
"231 84 CURVE SMOOTH"
);
},
{
closed = 1;
nodes = (
"681 576 LINE",
"628 576 LINE",
"628 118 LINE SMOOTH",
"628 63 OFFCURVE",
"598 35 OFFCURVE",
"538 35 CURVE SMOOTH",
"478 35 OFFCURVE",
"447 63 OFFCURVE",
"447 118 CURVE SMOOTH",
"447 395 LINE SMOOTH",
"447 519 OFFCURVE",
"376 588 OFFCURVE",
"254 588 CURVE SMOOTH",
"147 588 OFFCURVE",
"62 509 OFFCURVE",
"44 398 CURVE",
"84 403 OFFCURVE",
"123 397 OFFCURVE",
"160 382 CURVE",
"109 357 OFFCURVE",
"84 319 OFFCURVE",
"84 266 CURVE SMOOTH",
"84 87 LINE SMOOTH",
"84 26 OFFCURVE",
"123 -13 OFFCURVE",
"181 -13 CURVE SMOOTH",
"250 -13 OFFCURVE",
"278 32 OFFCURVE",
"278 85 CURVE SMOOTH",
"278 138 OFFCURVE",
"235 181 OFFCURVE",
"181 181 CURVE SMOOTH",
"165 181 OFFCURVE",
"150 178 OFFCURVE",
"137 172 CURVE",
"137 268 LINE SMOOTH",
"137 319 OFFCURVE",
"178 365 OFFCURVE",
"225 375 CURVE",
"201 415 OFFCURVE",
"162 435 OFFCURVE",
"107 440 CURVE",
"129 500 OFFCURVE",
"188 541 OFFCURVE",
"251 541 CURVE SMOOTH",
"347 541 OFFCURVE",
"394 491 OFFCURVE",
"394 390 CURVE SMOOTH",
"394 122 LINE SMOOTH",
"394 32 OFFCURVE",
"441 -12 OFFCURVE",
"537 -12 CURVE SMOOTH",
"632 -12 OFFCURVE",
"681 32 OFFCURVE",
"681 121 CURVE SMOOTH"
);
}
);
width = 763;
}
);
note = uni0E0D;
unicode = 0E0D;
},
{
glyphname = "yoYing-thai.less";
lastChange = "2017-12-19 07:35:33 +0000";
layers = (
{
layerId = "0B1DFD06-3317-40CA-B510-4969A0718C16";
paths = (
{
closed = 1;
nodes = (
"231 56 OFFCURVE",
"209 35 OFFCURVE",
"181 35 CURVE SMOOTH",
"153 35 OFFCURVE",
"132 56 OFFCURVE",
"132 84 CURVE SMOOTH",
"132 112 OFFCURVE",
"153 134 OFFCURVE",
"181 134 CURVE SMOOTH",
"209 134 OFFCURVE",
"231 112 OFFCURVE",
"231 84 CURVE SMOOTH"
);
},
{
closed = 1;
nodes = (
"681 576 LINE",
"628 576 LINE",
"628 118 LINE SMOOTH",
"628 63 OFFCURVE",
"598 35 OFFCURVE",
"538 35 CURVE SMOOTH",
"478 35 OFFCURVE",
"447 63 OFFCURVE",
"447 118 CURVE SMOOTH",
"447 395 LINE SMOOTH",
"447 519 OFFCURVE",
"376 588 OFFCURVE",
"254 588 CURVE SMOOTH",
"147 588 OFFCURVE",
"62 509 OFFCURVE",
"44 398 CURVE",
"84 403 OFFCURVE",
"123 397 OFFCURVE",
"160 382 CURVE",
"109 357 OFFCURVE",
"84 319 OFFCURVE",
"84 266 CURVE SMOOTH",
"84 87 LINE SMOOTH",
"84 26 OFFCURVE",
"123 -13 OFFCURVE",
"181 -13 CURVE SMOOTH",
"250 -13 OFFCURVE",
"278 32 OFFCURVE",
"278 85 CURVE SMOOTH",
"278 138 OFFCURVE",
"235 181 OFFCURVE",
"181 181 CURVE SMOOTH",
"165 181 OFFCURVE",
"150 178 OFFCURVE",
"137 172 CURVE",
"137 268 LINE SMOOTH",
"137 319 OFFCURVE",
"178 365 OFFCURVE",
"225 375 CURVE",
"201 415 OFFCURVE",
"162 435 OFFCURVE",
"107 440 CURVE",
"129 500 OFFCURVE",
"188 541 OFFCURVE",
"251 541 CURVE SMOOTH",
"347 541 OFFCURVE",
"394 491 OFFCURVE",
"394 390 CURVE SMOOTH",
"394 122 LINE SMOOTH",
"394 32 OFFCURVE",
"441 -12 OFFCURVE",
"537 -12 CURVE SMOOTH",
"632 -12 OFFCURVE",
"681 32 OFFCURVE",
"681 121 CURVE SMOOTH"
);
}
);
width = 764;
}
);
note = "yoYing-thai.less";
},
{
glyphname = "khoKhai-thai";
lastChange = "2017-12-19 07:34:03 +0000";
layers = (
{
layerId = "0B1DFD06-3317-40CA-B510-4969A0718C16";
paths = (
{
closed = 1;
nodes = (
"473 576 LINE",
"420 576 LINE",
"420 118 LINE SMOOTH",
"420 63 OFFCURVE",
"394 35 OFFCURVE",
"340 35 CURVE SMOOTH",
"285 35 OFFCURVE",
"259 63 OFFCURVE",
"259 118 CURVE SMOOTH",
"259 254 LINE SMOOTH",
"259 276 OFFCURVE",
"270 310 OFFCURVE",
"294 356 CURVE SMOOTH",
"318 401 OFFCURVE",
"329 440 OFFCURVE",
"329 467 CURVE SMOOTH",
"329 542 OFFCURVE",
"268 588 OFFCURVE",
"181 588 CURVE SMOOTH",
"81 588 OFFCURVE",
"22 522 OFFCURVE",
"22 450 CURVE SMOOTH",
"22 385 OFFCURVE",
"56 334 OFFCURVE",
"116 334 CURVE SMOOTH",
"168 334 OFFCURVE",
"203 372 OFFCURVE",
"203 423 CURVE SMOOTH",
"203 472 OFFCURVE",
"168 509 OFFCURVE",
"116 509 CURVE SMOOTH",
"103 509 OFFCURVE",
"91 507 OFFCURVE",
"82 503 CURVE",
"104 531 OFFCURVE",
"138 545 OFFCURVE",
"181 545 CURVE SMOOTH",
"235 545 OFFCURVE",
"279 506 OFFCURVE",
"279 460 CURVE SMOOTH",
"279 437 OFFCURVE",
"268 404 OFFCURVE",
"243 362 CURVE SMOOTH",
"218 319 OFFCURVE",
"206 287 OFFCURVE",
"206 262 CURVE SMOOTH",
"206 122 LINE SMOOTH",
"206 32 OFFCURVE",
"250 -12 OFFCURVE",
"338 -12 CURVE SMOOTH",
"428 -12 OFFCURVE",
"473 32 OFFCURVE",
"473 122 CURVE SMOOTH"
);
},
{
closed = 1;
nodes = (
"163 394 OFFCURVE",
"144 375 OFFCURVE",
"116 375 CURVE SMOOTH",
"88 375 OFFCURVE",
"69 394 OFFCURVE",
"69 422 CURVE SMOOTH",
"69 450 OFFCURVE",
"88 469 OFFCURVE",
"116 469 CURVE SMOOTH",
"144 469 OFFCURVE",
"163 450 OFFCURVE",
"163 422 CURVE SMOOTH"
);
}
);
width = 556;
}
);
note = uni0E02;
unicode = 0E02;
},
{
glyphname = "khoKhuat-thai";
lastChange = "2017-12-19 07:34:03 +0000";
layers = (
{
layerId = "0B1DFD06-3317-40CA-B510-4969A0718C16";
paths = (
{
closed = 1;
nodes = (
"479 576 LINE",
"426 576 LINE",
"426 118 LINE SMOOTH",
"426 63 OFFCURVE",
"400 35 OFFCURVE",
"345 35 CURVE SMOOTH",
"291 35 OFFCURVE",
"265 63 OFFCURVE",
"265 118 CURVE SMOOTH",
"265 210 LINE SMOOTH",
"265 238 OFFCURVE",
"278 278 OFFCURVE",
"306 326 CURVE SMOOTH",
"334 375 OFFCURVE",
"348 415 OFFCURVE",
"348 445 CURVE SMOOTH",
"348 481 OFFCURVE",
"338 512 OFFCURVE",
"319 539 CURVE",
"297 569 OFFCURVE",
"268 585 OFFCURVE",
"232 589 CURVE",
"193 538 LINE",
"156 589 LINE",
"116 582 OFFCURVE",
"82 557 OFFCURVE",
"57 517 CURVE SMOOTH",
"34 481 OFFCURVE",
"22 442 OFFCURVE",
"22 400 CURVE SMOOTH",
"22 365 OFFCURVE",
"29 335 OFFCURVE",
"46 310 CURVE SMOOTH",
"63 282 OFFCURVE",
"88 269 OFFCURVE",
"122 269 CURVE SMOOTH",
"175 269 OFFCURVE",
"216 307 OFFCURVE",
"216 365 CURVE SMOOTH",
"216 419 OFFCURVE",
"181 460 OFFCURVE",
"123 460 CURVE SMOOTH",
"106 460 OFFCURVE",
"90 457 OFFCURVE",
"76 451 CURVE",
"87 487 OFFCURVE",
"109 515 OFFCURVE",
"140 537 CURVE",
"193 476 LINE",
"244 538 LINE",
"281 531 OFFCURVE",
"300 501 OFFCURVE",
"300 450 CURVE SMOOTH",
"300 419 OFFCURVE",
"285 381 OFFCURVE",
"256 332 CURVE SMOOTH",
"226 285 OFFCURVE",
"212 245 OFFCURVE",
"212 215 CURVE SMOOTH",
"212 122 LINE SMOOTH",
"212 32 OFFCURVE",
"256 -12 OFFCURVE",
"344 -12 CURVE SMOOTH",
"434 -12 OFFCURVE",
"479 32 OFFCURVE",
"479 122 CURVE SMOOTH"
);
},
{
closed = 1;
nodes = (
"169 338 OFFCURVE",
"150 319 OFFCURVE",
"122 319 CURVE SMOOTH",
"94 319 OFFCURVE",
"75 338 OFFCURVE",
"75 366 CURVE SMOOTH",
"75 394 OFFCURVE",
"94 413 OFFCURVE",
"122 413 CURVE SMOOTH",
"150 413 OFFCURVE",
"169 394 OFFCURVE",
"169 366 CURVE SMOOTH"
);
}
);
width = 562;
}
);
note = uni0E03;
unicode = 0E03;
},
{
glyphname = "choChang-thai";
lastChange = "2017-12-19 07:34:03 +0000";
layers = (
{
layerId = "0B1DFD06-3317-40CA-B510-4969A0718C16";
paths = (
{
closed = 1;
nodes = (
"476 360 LINE SMOOTH",
"476 412 OFFCURVE",
"457 444 OFFCURVE",
"419 459 CURVE",
"456 478 OFFCURVE",
"498 537 OFFCURVE",
"504 612 CURVE",
"448 612 LINE",
"445 542 OFFCURVE",
"417 497 OFFCURVE",
"363 475 CURVE",
"363 459 OFFCURVE",
"362 447 OFFCURVE",
"360 441 CURVE",
"403 426 OFFCURVE",
"423 397 OFFCURVE",
"423 354 CURVE SMOOTH",
"423 118 LINE SMOOTH",
"423 63 OFFCURVE",
"395 35 OFFCURVE",
"341 35 CURVE SMOOTH",
"287 35 OFFCURVE",
"259 63 OFFCURVE",
"259 118 CURVE SMOOTH",
"259 254 LINE SMOOTH",
"259 276 OFFCURVE",
"270 310 OFFCURVE",
"294 356 CURVE SMOOTH",
"318 401 OFFCURVE",
"329 440 OFFCURVE",
"329 467 CURVE SMOOTH",
"329 542 OFFCURVE",
"268 588 OFFCURVE",
"181 588 CURVE SMOOTH",
"81 588 OFFCURVE",
"22 522 OFFCURVE",
"22 450 CURVE SMOOTH",
"22 385 OFFCURVE",
"56 334 OFFCURVE",
"116 334 CURVE SMOOTH",
"168 334 OFFCURVE",
"203 372 OFFCURVE",
"203 423 CURVE SMOOTH",
"203 472 OFFCURVE",
"168 509 OFFCURVE",
"116 509 CURVE SMOOTH",
"103 509 OFFCURVE",
"91 507 OFFCURVE",
"82 503 CURVE",
"104 531 OFFCURVE",
"138 545 OFFCURVE",
"181 545 CURVE SMOOTH",
"235 545 OFFCURVE",
"279 506 OFFCURVE",
"279 460 CURVE SMOOTH",
"279 437 OFFCURVE",
"268 404 OFFCURVE",
"243 362 CURVE SMOOTH",
"218 319 OFFCURVE",
"206 287 OFFCURVE",
"206 262 CURVE SMOOTH",
"206 122 LINE SMOOTH",
"206 32 OFFCURVE",
"250 -12 OFFCURVE",
"340 -12 CURVE SMOOTH",
"431 -12 OFFCURVE",
"476 32 OFFCURVE",
"476 122 CURVE SMOOTH"
);
},
{
closed = 1;
nodes = (
"163 394 OFFCURVE",
"144 375 OFFCURVE",
"116 375 CURVE SMOOTH",
"88 375 OFFCURVE",
"69 394 OFFCURVE",
"69 422 CURVE SMOOTH",
"69 450 OFFCURVE",
"88 469 OFFCURVE",
"116 469 CURVE SMOOTH",
"144 469 OFFCURVE",
"163 450 OFFCURVE",
"163 422 CURVE SMOOTH"
);
}
);
width = 559;
}
);
note = uni0E0A;
unicode = 0E0A;
},
{
glyphname = "soSo-thai";
lastChange = "2017-12-19 07:34:03 +0000";
layers = (
{
layerId = "0B1DFD06-3317-40CA-B510-4969A0718C16";
paths = (
{
closed = 1;
nodes = (
"169 338 OFFCURVE",
"150 319 OFFCURVE",
"122 319 CURVE SMOOTH",
"94 319 OFFCURVE",
"75 338 OFFCURVE",
"75 366 CURVE SMOOTH",
"75 394 OFFCURVE",
"94 413 OFFCURVE",
"122 413 CURVE SMOOTH",
"150 413 OFFCURVE",
"169 394 OFFCURVE",
"169 366 CURVE SMOOTH"
);
},
{
closed = 1;
nodes = (
"482 360 LINE SMOOTH",
"482 412 OFFCURVE",
"463 444 OFFCURVE",
"425 459 CURVE",
"462 478 OFFCURVE",
"504 537 OFFCURVE",
"510 612 CURVE",
"454 612 LINE",
"451 542 OFFCURVE",
"423 497 OFFCURVE",
"369 475 CURVE",
"370 460 OFFCURVE",
"372 448 OFFCURVE",
"370 440 CURVE",
"410 426 OFFCURVE",
"429 397 OFFCURVE",
"429 354 CURVE SMOOTH",
"429 118 LINE SMOOTH",
"429 63 OFFCURVE",
"401 35 OFFCURVE",
"347 35 CURVE SMOOTH",
"293 35 OFFCURVE",
"265 63 OFFCURVE",
"265 119 CURVE SMOOTH",
"265 210 LINE SMOOTH",
"265 238 OFFCURVE",
"278 278 OFFCURVE",
"306 326 CURVE SMOOTH",
"334 375 OFFCURVE",
"348 415 OFFCURVE",
"348 445 CURVE SMOOTH",
"348 481 OFFCURVE",
"338 512 OFFCURVE",
"319 539 CURVE",
"297 569 OFFCURVE",
"268 585 OFFCURVE",
"232 589 CURVE",
"193 538 LINE",
"156 589 LINE",
"116 582 OFFCURVE",
"82 557 OFFCURVE",
"57 517 CURVE SMOOTH",
"34 481 OFFCURVE",
"22 442 OFFCURVE",
"22 400 CURVE SMOOTH",
"22 365 OFFCURVE",
"29 335 OFFCURVE",
"46 310 CURVE SMOOTH",
"63 282 OFFCURVE",
"88 269 OFFCURVE",
"122 269 CURVE SMOOTH",
"175 269 OFFCURVE",
"216 307 OFFCURVE",
"216 365 CURVE SMOOTH",
"216 419 OFFCURVE",
"181 460 OFFCURVE",
"123 460 CURVE SMOOTH",
"106 460 OFFCURVE",
"90 457 OFFCURVE",
"76 451 CURVE",
"87 487 OFFCURVE",
"109 515 OFFCURVE",
"140 537 CURVE",
"193 476 LINE",
"244 538 LINE",
"281 531 OFFCURVE",
"300 501 OFFCURVE",
"300 450 CURVE SMOOTH",
"300 419 OFFCURVE",
"285 381 OFFCURVE",
"256 332 CURVE SMOOTH",
"226 285 OFFCURVE",
"212 245 OFFCURVE",
"212 215 CURVE SMOOTH",
"212 122 LINE SMOOTH",
"212 32 OFFCURVE",
"256 -12 OFFCURVE",
"345 -12 CURVE SMOOTH",
"437 -12 OFFCURVE",
"482 32 OFFCURVE",
"482 122 CURVE SMOOTH"
);
}
);
width = 564;
}
);
note = uni0E0B;
unicode = 0E0B;
},
{
glyphname = "khoKhwai-thai";
lastChange = "2017-12-19 07:34:03 +0000";
layers = (
{
layerId = "0B1DFD06-3317-40CA-B510-4969A0718C16";
paths = (
{
closed = 1;
nodes = (
"495 400 LINE SMOOTH",
"495 462 OFFCURVE",
"473 509 OFFCURVE",
"429 539 CURVE",
"387 572 OFFCURVE",
"335 588 OFFCURVE",
"275 588 CURVE SMOOTH",
"210 588 OFFCURVE",
"156 569 OFFCURVE",
"113 529 CURVE SMOOTH",
"71 490 OFFCURVE",
"49 438 OFFCURVE",
"49 375 CURVE SMOOTH",
"49 347 OFFCURVE",
"56 307 OFFCURVE",
"72 256 CURVE SMOOTH",
"88 204 OFFCURVE",
"96 163 OFFCURVE",
"96 135 CURVE SMOOTH",
"96 0 LINE",
"148 0 LINE",
"148 96 LINE SMOOTH",
"148 132 OFFCURVE",
"157 173 OFFCURVE",
"173 221 CURVE SMOOTH",
"187 259 OFFCURVE",
"201 288 OFFCURVE",
"215 309 CURVE",
"234 285 OFFCURVE",
"257 273 OFFCURVE",
"282 273 CURVE SMOOTH",
"331 273 OFFCURVE",
"369 313 OFFCURVE",
"369 362 CURVE SMOOTH",
"369 415 OFFCURVE",
"334 448 OFFCURVE",
"285 448 CURVE SMOOTH",
"243 448 OFFCURVE",
"206 423 OFFCURVE",
"178 372 CURVE SMOOTH",
"156 332 OFFCURVE",
"141 285 OFFCURVE",
"132 229 CURVE",
"115 303 LINE SMOOTH",
"107 334 OFFCURVE",
"103 359 OFFCURVE",
"103 381 CURVE SMOOTH",
"103 426 OFFCURVE",
"119 463 OFFCURVE",
"153 494 CURVE SMOOTH",
"187 525 OFFCURVE",
"226 541 OFFCURVE",
"272 541 CURVE SMOOTH",
"360 541 OFFCURVE",
"442 490 OFFCURVE",
"442 395 CURVE SMOOTH",
"442 0 LINE",
"495 0 LINE"
);
},
{
closed = 1;
nodes = (
"328 337 OFFCURVE",
"307 316 OFFCURVE",
"282 316 CURVE SMOOTH",
"257 316 OFFCURVE",
"237 337 OFFCURVE",
"237 362 CURVE SMOOTH",
"237 387 OFFCURVE",
"257 407 OFFCURVE",
"282 407 CURVE SMOOTH",
"307 407 OFFCURVE",
"328 387 OFFCURVE",
"328 362 CURVE SMOOTH"
);
}
);
width = 578;
}
);
note = uni0E04;
unicode = 0E04;
},
{
glyphname = "khoKhon-thai";
lastChange = "2017-12-19 07:34:03 +0000";
layers = (
{
layerId = "0B1DFD06-3317-40CA-B510-4969A0718C16";
paths = (
{
closed = 1;
nodes = (
"495 415 LINE",
"494 510 OFFCURVE",
"440 569 OFFCURVE",
"332 591 CURVE",
"273 516 LINE",
"209 591 LINE",
"101 562 OFFCURVE",
"49 491 OFFCURVE",
"49 378 CURVE SMOOTH",
"49 348 OFFCURVE",
"57 306 OFFCURVE",
"74 248 CURVE SMOOTH",
"90 191 OFFCURVE",
"98 148 OFFCURVE",
"98 118 CURVE SMOOTH",
"98 0 LINE",
"151 0 LINE",
"151 79 LINE SMOOTH",
"151 116 OFFCURVE",
"157 156 OFFCURVE",
"171 198 CURVE SMOOTH",
"182 237 OFFCURVE",
"194 263 OFFCURVE",
"207 276 CURVE",
"226 254 OFFCURVE",
"253 243 OFFCURVE",
"284 243 CURVE SMOOTH",
"331 243 OFFCURVE",
"368 281 OFFCURVE",
"368 329 CURVE SMOOTH",
"368 381 OFFCURVE",
"334 415 OFFCURVE",
"282 415 CURVE SMOOTH",
"209 415 OFFCURVE",
"159 348 OFFCURVE",
"132 215 CURVE",
"113 298 OFFCURVE",
"104 356 OFFCURVE",
"104 390 CURVE SMOOTH",
"104 412 OFFCURVE",
"110 437 OFFCURVE",
"123 462 CURVE",
"140 495 OFFCURVE",
"165 522 OFFCURVE",
"196 538 CURVE",
"273 457 LINE",
"344 537 LINE",
"409 520 OFFCURVE",
"441 479 OFFCURVE",
"442 412 CURVE SMOOTH",
"442 0 LINE",
"495 0 LINE"
);
},
{
closed = 1;
nodes = (
"328 304 OFFCURVE",
"307 284 OFFCURVE",
"282 284 CURVE SMOOTH",
"257 284 OFFCURVE",
"237 304 OFFCURVE",
"237 329 CURVE SMOOTH",
"237 354 OFFCURVE",
"257 375 OFFCURVE",
"282 375 CURVE SMOOTH",
"307 375 OFFCURVE",
"328 354 OFFCURVE",
"328 329 CURVE SMOOTH"
);
}
);
width = 578;
}
);
note = uni0E05;
unicode = 0E05;
},
{
glyphname = "soSala-thai";
lastChange = "2017-12-19 07:34:03 +0000";
layers = (
{
layerId = "0B1DFD06-3317-40CA-B510-4969A0718C16";
paths = (
{
closed = 1;
nodes = (
"495 400 LINE SMOOTH",
"495 457 OFFCURVE",
"475 503 OFFCURVE",
"435 535 CURVE",
"484 576 OFFCURVE",
"510 609 OFFCURVE",
"515 632 CURVE",
"447 632 LINE",
"445 617 OFFCURVE",
"426 594 OFFCURVE",
"391 563 CURVE",
"354 579 OFFCURVE",
"316 588 OFFCURVE",
"275 588 CURVE SMOOTH",
"210 588 OFFCURVE",
"156 569 OFFCURVE",
"113 529 CURVE SMOOTH",
"71 490 OFFCURVE",
"49 438 OFFCURVE",
"49 375 CURVE SMOOTH",
"49 347 OFFCURVE",
"56 307 OFFCURVE",
"72 256 CURVE SMOOTH",
"88 204 OFFCURVE",
"96 163 OFFCURVE",
"96 135 CURVE SMOOTH",
"96 0 LINE",
"148 0 LINE",
"148 96 LINE SMOOTH",
"148 132 OFFCURVE",
"156 173 OFFCURVE",
"172 221 CURVE SMOOTH",
"185 259 OFFCURVE",
"200 288 OFFCURVE",
"213 309 CURVE",
"229 287 OFFCURVE",
"253 275 OFFCURVE",
"282 275 CURVE SMOOTH",
"329 275 OFFCURVE",
"368 313 OFFCURVE",
"368 360 CURVE SMOOTH",
"368 401 OFFCURVE",
"350 429 OFFCURVE",
"316 442 CURVE",
"391 500 LINE",
"425 473 OFFCURVE",
"442 438 OFFCURVE",
"442 395 CURVE SMOOTH",
"442 0 LINE",
"495 0 LINE"
);
},
{
closed = 1;
nodes = (
"232 435 LINE SMOOTH",
"184 398 OFFCURVE",
"151 329 OFFCURVE",
"132 229 CURVE",
"115 303 LINE SMOOTH",
"107 334 OFFCURVE",
"103 359 OFFCURVE",
"103 381 CURVE SMOOTH",
"103 426 OFFCURVE",
"119 463 OFFCURVE",
"153 494 CURVE SMOOTH",
"187 525 OFFCURVE",
"226 541 OFFCURVE",
"272 541 CURVE SMOOTH",
"300 541 OFFCURVE",
"325 537 OFFCURVE",
"348 526 CURVE"
);
},
{
closed = 1;
nodes = (
"326 335 OFFCURVE",
"306 315 OFFCURVE",
"281 315 CURVE SMOOTH",
"256 315 OFFCURVE",
"235 335 OFFCURVE",
"235 360 CURVE SMOOTH",
"235 385 OFFCURVE",
"256 406 OFFCURVE",
"281 406 CURVE SMOOTH",
"306 406 OFFCURVE",
"326 385 OFFCURVE",
"326 360 CURVE SMOOTH"
);
}
);
width = 578;
}
);
note = uni0E28;
unicode = 0E28;
},
